SplineFontDB: 3.0
FontName: SupermercadoOne-Regular
FullName: Supermercado One Regular
FamilyName: Supermercado One
Weight: Book
Copyright: Copyright (c) 2011-2012, Sorkin Type Co (www.sorkintype.com)\nwith Reserved Font Name "Supermercado". 
Version: 1.002
ItalicAngle: 0
UnderlinePosition: 5
UnderlineWidth: 181
Ascent: 1638
Descent: 410
LayerCount: 2
Layer: 0 1 "Back"  1
Layer: 1 1 "Fore"  0
XUID: [1021 631 1661839179 612244]
FSType: 0
OS2Version: 3
OS2_WeightWidthSlopeOnly: 0
OS2_UseTypoMetrics: 1
CreationTime: 1334494020
ModificationTime: 1334480929
PfmFamily: 17
TTFWeight: 400
TTFWidth: 5
LineGap: 0
VLineGap: 0
Panose: 2 1 6 4 3 1 0 4 8 4
OS2TypoAscent: 287
OS2TypoAOffset: 1
OS2TypoDescent: -117
OS2TypoDOffset: 1
OS2TypoLinegap: 0
OS2WinAscent: 0
OS2WinAOffset: 1
OS2WinDescent: 1
OS2WinDOffset: 1
HheadAscent: 0
HheadAOffset: 1
HheadDescent: -1
HheadDOffset: 1
OS2SubXSize: 1434
OS2SubYSize: 1331
OS2SubXOff: 0
OS2SubYOff: 287
OS2SupXSize: 1434
OS2SupYSize: 1331
OS2SupXOff: 0
OS2SupYOff: 977
OS2StrikeYSize: 102
OS2StrikeYPos: 512
OS2Vendor: 'STC '
OS2CodePages: 20000093.00000000
OS2UnicodeRanges: a00000af.4000204a.00000000.00000000
DEI: 91125
TtTable: prep
MPPEM
PUSHW_1
 150
GT
IF
PUSHB_2
 1
 1
INSTCTRL
EIF
PUSHW_2
 2048
 2048
MUL
DUP
PUSHB_1
 1
SWAP
WCVTP
DUP
PUSHB_1
 3
SWAP
WCVTF
PUSHB_1
 21
RCVT
DUP
DUP
PUSHB_1
 40
ADD
FLOOR
DUP
ROLL
NEQ
IF
PUSHB_1
 2
CINDEX
SUB
PUSHB_1
 1
RCVT
MUL
SWAP
DIV
PUSHB_1
 2
SWAP
WCVTP
PUSHB_4
 10
 11
 3
 2
CALL
PUSHB_4
 12
 17
 3
 2
CALL
PUSHB_4
 18
 23
 3
 2
CALL
EIF
PUSHB_3
 4
 40
 7
RCVT
GT
WCVTP
PUSHB_4
 12
 17
 4
 2
CALL
PUSHW_1
 511
SCANCTRL
PUSHB_1
 4
SCANTYPE
PUSHB_2
 5
 0
WCVTP
EndTTInstrs
TtTable: fpgm
PUSHB_1
 0
FDEF
DUP
ABS
PUSHB_1
 32
ADD
FLOOR
SWAP
PUSHB_1
 0
LT
IF
NEG
EIF
ENDF
PUSHB_1
 1
FDEF
DUP
ABS
DUP
PUSHB_1
 192
LT
PUSHB_1
 4
MINDEX
AND
PUSHB_1
 4
RCVT
OR
IF
POP
SWAP
POP
ELSE
ROLL
IF
DUP
PUSHB_1
 80
LT
IF
POP
PUSHB_1
 64
EIF
ELSE
DUP
PUSHB_1
 56
LT
IF
POP
PUSHB_1
 56
EIF
EIF
DUP
PUSHB_1
 10
RCVT
SUB
ABS
PUSHB_1

StartChar: exclam
Encoding: 33 33 23
Width: 513
GlyphClass: 2
Flags: W
LayerCount: 2
Fore
SplineSet
102 1182 m 2,0,1
 91 1314 91 1314 178 1362 c 0,2,3
 208 1379 208 1379 252 1379 c 128,-1,4
 296 1379 296 1379 327.5 1362 c 128,-1,5
 359 1345 359 1345 379 1318 c 0,6,7
 419 1263 419 1263 412 1182 c 2,8,-1
 353 522 l 2,9,10
 349 483 349 483 321.5 455.5 c 128,-1,11
 294 428 294 428 254 428 c 256,12,13
 214 428 214 428 188 455 c 128,-1,14
 162 482 162 482 158 522 c 2,15,-1
 102 1182 l 2,0,1
254 248 m 256,16,17
 309 248 309 248 348 208 c 1,18,19
 389 168 389 168 389 127 c 128,-1,20
 389 86 389 86 378 62 c 128,-1,21
 367 38 367 38 348 20 c 1,22,23
 309 -20 309 -20 254 -20 c 256,24,25
 199 -20 199 -20 160 20 c 1,26,27
 119 60 119 60 119 100 c 0,28,29
 119 168 119 168 159 208 c 128,-1,30
 199 248 199 248 254 248 c 256,16,17
EndSplineSet
EndChar

StartChar: quotedbl
Encoding: 34 34 24
Width: 1026
GlyphClass: 2
Flags: W
LayerCount: 2
Fore
SplineSet
179 1178 m 1,0,1
 173 1202 173 1202 173 1226 c 128,-1,2
 173 1250 173 1250 183 1275 c 128,-1,3
 193 1300 193 1300 211 1319 c 0,4,5
 249 1359 249 1359 292 1359 c 128,-1,6
 335 1359 335 1359 360 1348 c 128,-1,7
 385 1337 385 1337 403 1318 c 1,8,9
 443 1279 443 1279 443 1222 c 0,10,11
 443 1200 443 1200 439 1178 c 2,12,-1
 390 877 l 2,13,14
 385 845 385 845 363 821.5 c 128,-1,15
 341 798 341 798 307 798 c 256,16,17
 273 798 273 798 252 821.5 c 128,-1,18
 231 845 231 845 226 877 c 2,19,-1
 179 1178 l 1,0,1
588 1178 m 1,20,21
 582 1202 582 1202 582 1226 c 128,-1,22
 582 1250 582 1250 592 1275 c 128,-1,23
 602 1300 602 1300 620 1319 c 0,24,25
 658 1359 658 1359 701 1359 c 128,-1,26
 744 1359 744 1359 769 1348 c 128,-1,27
 794 1337 794 1337 812 1318 c 1,28,29
 852 1279 852 1279 852 1222 c 0,30,31
 852 1200 852 1200 848 1178 c 2,32,-1
 799 877 l 2,33,34
 794 845 794 845 772 821.5 c 128,-1,35
 750 798 750 798 716 798 c 256,36,37
 682 798 682 798 661 821.5 c 128,-1,38
 640 845 640 845 635 877 c 2,39,-1
 588 1178 l 1,20,21
EndSplineSet
EndChar

StartChar: numbersign
Encoding: 35 35 25
Width: 1023
GlyphClass: 2
Flags: W
LayerCount: 2
Fore
SplineSet
545 429 m 1,0,-1
 405 429 l 1,1,-1
 362 60 l 2,2,3
 357 22 357 22 328 -1 c 128,-1,4
 299 -24 299 -24 270.5 -20 c 128,-1,5
 242 -16 242 -16 226.5 -7 c 128,-1,6
 211 2 211 2 200 16 c 0,7,8
 177 47 177 47 181 81 c 2,9,-1
 222 429 l 1,10,-1
 98 429 l 2,11,12
 63 429 63 429 44 448 c 0,13,14
 10 482 10 482 10 519.5 c 128,-1,15
 10 557 10 557 35.5 583.5 c 128,-1,16
 61 610 61 610 98 610 c 2,17,-1
 243 610 l 1,18,-1
 263 779 l 1,19,-1
 144 779 l 2,20,21
 109 779 109 779 90 798 c 0,22,23
 56 832 56 832 56 869.5 c 128,-1,24
 56 907 56 907 81.5 933.5 c 128,-1,25
 107 960 107 960 144 960 c 2,26,-1
 284 960 l 1,27,-1
 324 1298 l 2,28,29
 328 1337 328 1337 350 1354 c 0,30,31
 389 1383 389 1383 417.5 1379.5 c 128,-1,32
 446 1376 446 1376 461.5 1367 c 128,-1,33
 477 1358 477 1358 488 1344 c 0,34,35
 510 1314 510 1314 506 1277 c 2,36,-1
 468 960 l 1,37,-1
 607 960 l 1,38,-1
 647 1298 l 2,39,40
 651 1337 651 1337 673 1354 c 0,41,42
 712 1383 712 1383 740.5 1379.5 c 128,-1,43
 769 1376 769 1376 784.5 1367 c 128,-1,44
 800 1358 800 1358 810 1344 c 0,45,46
 833 1314 833 1314 829 1277 c 2,47,-1
 791 960 l 1,48,-1
 905 960 l 2,49,50
 940 960 940 960 960 940 c 0,51,52
 993 907 993 907 993 869.5 c 128,-1,53
 993 832 993 832 967.5 805.5 c 128,-1,54
 942 779 942 779 905 779 c 2,55,-1
 770 779 l 1,56,-1
 750 610 l 1,57,-1
 859 610 l 2,58,59
 894 610 894 610 914 590 c 0,60,61
 947 557 947 557 947 519.5 c 128,-1,62
 947 482 947 482 921.5 455.5 c 128,-1,63
 896 429 896 429 859 429 c 2,64,-1
 728 429 l 1,65,-1
 685 60 l 2,66,67
 680 22 680 22 651 -1 c 128,-1,68
 622 -24 622 -24 593.5 -20 c 128,-1,69
 565 -16 565 -16 549.5 -7 c 128,-1,70
 534 2 534 2 524 16 c 0,71,72
 500 47 500 47 504 81 c 2,73,-1
 545 429 l 1,0,-1
427 610 m 1,74,-1
 566 610 l 1,75,-1
 586 779 l 1,76,-1
 447 779 l 1,77,-1
 427 610 l 1,74,-1
EndSplineSet
EndChar

StartChar: dollar
Encoding: 36 36 26
Width: 1023
GlyphClass: 2
Flags: W
LayerCount: 2
Fore
SplineSet
570 1319 m 1,0,-1
 704 1319 l 2,1,2
 741 1319 741 1319 767.5 1292.5 c 128,-1,3
 794 1266 794 1266 794 1238.5 c 128,-1,4
 794 1211 794 1211 787 1194.5 c 128,-1,5
 780 1178 780 1178 768 1166 c 0,6,7
 739 1139 739 1139 704 1139 c 2,8,-1
 570 1139 l 1,9,-1
 570 824 l 1,10,-1
 635 805 l 2,11,12
 734 776 734 776 796 696 c 0,13,14
 862 611 862 611 862 496 c 2,15,-1
 862 336 l 2,16,17
 862 211 862 211 787 134 c 128,-1,18
 712 57 712 57 570 43 c 1,19,-1
 570 -25 l 2,20,21
 570 -52 570 -52 554 -69.5 c 128,-1,22
 538 -87 538 -87 514 -86.5 c 128,-1,23
 490 -86 490 -86 474 -69.5 c 128,-1,24
 458 -53 458 -53 458 -28 c 2,25,-1
 458 40 l 1,26,-1
 294 40 l 2,27,28
 257 40 257 40 230.5 66.5 c 128,-1,29
 204 93 204 93 204 120.5 c 128,-1,30
 204 148 204 148 211 164.5 c 128,-1,31
 218 181 218 181 230 193 c 0,32,33
 259 220 259 220 294 220 c 2,34,-1
 458 220 l 1,35,-1
 458 625 l 1,36,-1
 367 651 l 2,37,38
 223 692 223 692 176 833 c 0,39,40
 161 878 161 878 161 929 c 2,41,-1
 161 1023 l 2,42,43
 161 1147 161 1147 238 1224.5 c 128,-1,44
 315 1302 315 1302 458 1316 c 1,45,-1
 458 1399 l 2,46,47
 458 1423 458 1423 474.5 1439.5 c 128,-1,48
 491 1456 491 1456 515 1456 c 128,-1,49
 539 1456 539 1456 554.5 1439.5 c 128,-1,50
 570 1423 570 1423 570 1400 c 2,51,-1
 570 1319 l 1,0,-1
570 226 m 1,52,53
 646 249 646 249 646 338 c 2,54,-1
 646 482 l 2,55,56
 646 556 646 556 570 592 c 1,57,-1
 570 226 l 1,52,53
377 958 m 2,58,59
 377 918 377 918 395.5 894 c 128,-1,60
 414 870 414 870 458 856 c 1,61,-1
 458 1133 l 1,62,63
 423 1121 423 1121 400 1090 c 128,-1,64
 377 1059 377 1059 377 1020 c 2,65,-1
 377 958 l 2,58,59
EndSplineSet
EndChar

StartChar: percent
Encoding: 37 37 27
Width: 1698
GlyphClass: 2
Flags: W
LayerCount: 2
Fore
SplineSet
1036 1361 m 2,0,1
 1060 1417 1060 1417 1119 1417 c 0,2,3
 1171 1417 1171 1417 1198 1376 c 0,4,5
 1212 1353 1212 1353 1212 1331 c 128,-1,6
 1212 1309 1212 1309 1204 1290 c 2,7,-1
 648 -19 l 2,8,9
 625 -74 625 -74 567 -74 c 0,10,11
 515 -74 515 -74 488 -32 c 0,12,13
 473 -8 473 -8 473 14.5 c 128,-1,14
 473 37 473 37 480 52 c 2,15,-1
 1036 1361 l 2,0,1
148 1147 m 2,16,17
 148 1253 148 1253 220 1316 c 128,-1,18
 292 1379 292 1379 428 1379 c 0,19,20
 628 1379 628 1379 689 1242 c 0,21,22
 708 1199 708 1199 708 1146 c 2,23,-1
 708 877 l 2,24,25
 708 770 708 770 635.5 708 c 128,-1,26
 563 646 563 646 429 646 c 128,-1,27
 295 646 295 646 221.5 708.5 c 128,-1,28
 148 771 148 771 148 880 c 2,29,-1
 148 1147 l 2,16,17
521 1143 m 2,30,31
 521 1182 521 1182 494 1209.5 c 128,-1,32
 467 1237 467 1237 427.5 1237 c 128,-1,33
 388 1237 388 1237 361 1209.5 c 128,-1,34
 334 1182 334 1182 334 1143 c 2,35,-1
 334 873 l 2,36,37
 334 832 334 832 361 810.5 c 128,-1,38
 388 789 388 789 427.5 789 c 128,-1,39
 467 789 467 789 494 810.5 c 128,-1,40
 521 832 521 832 521 873 c 2,41,-1
 521 1143 l 2,30,31
989 482 m 2,42,43
 989 588 989 588 1061 651 c 128,-1,44
 1133 714 1133 714 1269 714 c 0,45,46
 1469 714 1469 714 1530 577 c 0,47,48
 1549 534 1549 534 1549 481 c 2,49,-1
 1549 212 l 2,50,51
 1549 105 1549 105 1476.5 43 c 128,-1,52
 1404 -19 1404 -19 1270 -19 c 128,-1,53
 1136 -19 1136 -19 1062.5 43.5 c 128,-1,54
 989 106 989 106 989 215 c 2,55,-1
 989 482 l 2,42,43
1362 478 m 2,56,57
 1362 517 1362 517 1335 544.5 c 128,-1,58
 1308 572 1308 572 1268.5 572 c 128,-1,59
 1229 572 1229 572 1202 544.5 c 128,-1,60
 1175 517 1175 517 1175 478 c 2,61,-1
 1175 208 l 2,62,63
 1175 167 1175 167 1202 145.5 c 128,-1,64
 1229 124 1229 124 1268.5 124 c 128,-1,65
 1308 124 1308 124 1335 145.5 c 128,-1,66
 1362 167 1362 167 1362 208 c 2,67,-1
 1362 478 l 2,56,57
EndSplineSet
EndChar

StartChar: ampersand
Encoding: 38 38 28
Width: 1193
GlyphClass: 2
Flags: W
LayerCount: 2
Fore
SplineSet
852 423 m 1,0,1
 888 368 888 368 888 298 c 128,-1,2
 888 228 888 228 863.5 173.5 c 128,-1,3
 839 119 839 119 792 80 c 0,4,5
 695 0 695 0 523 0 c 0,6,7
 260 0 260 0 181 172 c 0,8,9
 156 227 156 227 156 296 c 2,10,-1
 156 549 l 2,11,12
 156 691 156 691 252 761 c 0,13,14
 282 783 282 783 320 801 c 1,15,16
 246 841 246 841 220 882 c 0,17,18
 172 955 172 955 172 1053 c 2,19,-1
 172 1085 l 2,20,21
 172 1220 172 1220 264 1298 c 0,22,23
 360 1379 360 1379 527 1379 c 0,24,25
 687 1379 687 1379 780 1300 c 0,26,27
 870 1223 870 1223 872 1088 c 1,28,-1
 872 1073 l 2,29,30
 872 1024 872 1024 847 999 c 0,31,32
 803 955 803 955 755 955 c 0,33,34
 706 955 706 955 680 980 c 1,35,36
 637 1024 637 1024 637 1073 c 2,37,-1
 637 1088 l 1,38,39
 635 1135 635 1135 612 1158 c 0,40,41
 571 1199 571 1199 536.5 1199 c 128,-1,42
 502 1199 502 1199 480.5 1190 c 128,-1,43
 459 1181 459 1181 443 1165 c 0,44,45
 409 1131 409 1131 409 1081 c 2,46,-1
 409 1019 l 2,47,48
 409 950 409 950 473 914 c 0,49,50
 490 905 490 905 517.5 899 c 128,-1,51
 545 893 545 893 570.5 868 c 128,-1,52
 596 843 596 843 596 801.5 c 128,-1,53
 596 760 596 760 570.5 734.5 c 128,-1,54
 545 709 545 709 516.5 703 c 128,-1,55
 488 697 488 697 467.5 687.5 c 128,-1,56
 447 678 447 678 430 663 c 0,57,58
 392 628 392 628 392 583 c 2,59,-1
 392 287 l 2,60,61
 392 211 392 211 472 188 c 0,62,63
 496 181 496 181 525.5 181 c 128,-1,64
 555 181 555 181 582 190 c 128,-1,65
 609 199 609 199 629 215 c 0,66,67
 671 249 671 249 671 290.5 c 128,-1,68
 671 332 671 332 658 353 c 128,-1,69
 645 374 645 374 629 393 c 0,70,71
 587 443 587 443 587 477 c 128,-1,72
 587 511 587 511 596 532 c 128,-1,73
 605 553 605 553 621 569 c 0,74,75
 655 603 655 603 705 603 c 2,76,-1
 850 603 l 2,77,78
 894 603 894 603 918 630 c 0,79,80
 958 675 958 675 958 722 c 2,81,-1
 958 786 l 2,82,83
 958 836 958 836 984 860 c 1,84,85
 1028 903 1028 903 1065 903 c 128,-1,86
 1102 903 1102 903 1123.5 894 c 128,-1,87
 1145 885 1145 885 1160 869 c 0,88,89
 1195 833 1195 833 1195 786 c 2,90,-1
 1195 719 l 2,91,92
 1195 597 1195 597 1108 510 c 128,-1,93
 1021 423 1021 423 899 423 c 2,94,-1
 852 423 l 1,0,1
EndSplineSet
EndChar

StartChar: quotesingle
Encoding: 39 39 29
Width: 513
GlyphClass: 2
Flags: W
LayerCount: 2
Fore
SplineSet
128 1178 m 1,0,1
 122 1202 122 1202 122 1226 c 128,-1,2
 122 1250 122 1250 132 1275 c 128,-1,3
 142 1300 142 1300 160 1319 c 0,4,5
 198 1359 198 1359 241 1359 c 128,-1,6
 284 1359 284 1359 309 1348 c 128,-1,7
 334 1337 334 1337 352 1318 c 1,8,9
 392 1279 392 1279 392 1222 c 0,10,11
 392 1200 392 1200 388 1178 c 2,12,-1
 339 877 l 2,13,14
 334 845 334 845 312 821.5 c 128,-1,15
 290 798 290 798 256 798 c 256,16,17
 222 798 222 798 201 821.5 c 128,-1,18
 180 845 180 845 175 877 c 2,19,-1
 128 1178 l 1,0,1
EndSplineSet
EndChar

StartChar: parenleft
Encoding: 40 40 30
Width: 1023
GlyphClass: 2
Flags: W
LayerCount: 2
Fore
SplineSet
530 375 m 2,0,1
 530 102 530 102 638 -52 c 0,2,3
 668 -94 668 -94 692 -118 c 1,4,5
 729 -158 729 -158 729 -188 c 128,-1,6
 729 -218 729 -218 722 -235 c 128,-1,7
 715 -252 715 -252 702 -265 c 0,8,9
 674 -293 674 -293 644 -293 c 128,-1,10
 614 -293 614 -293 589 -281.5 c 128,-1,11
 564 -270 564 -270 532.5 -245.5 c 128,-1,12
 501 -221 501 -221 468 -182 c 128,-1,13
 435 -143 435 -143 403 -89 c 128,-1,14
 371 -35 371 -35 346 34 c 0,15,16
 292 189 292 189 292 380 c 2,17,-1
 292 887 l 2,18,19
 292 1241 292 1241 468 1449 c 0,20,21
 562 1560 562 1560 636 1560 c 0,22,23
 676 1560 676 1560 702.5 1532.5 c 128,-1,24
 729 1505 729 1505 729 1477 c 0,25,26
 729 1426 729 1426 698.5 1393.5 c 128,-1,27
 668 1361 668 1361 638 1318.5 c 128,-1,28
 608 1276 608 1276 584 1217 c 0,29,30
 530 1084 530 1084 530 892 c 2,31,-1
 530 375 l 2,0,1
EndSplineSet
EndChar

StartChar: parenright
Encoding: 41 41 31
Width: 1023
GlyphClass: 2
Flags: W
LayerCount: 2
Fore
SplineSet
492 375 m 2,0,1
 492 102 492 102 384 -52 c 0,2,3
 354 -94 354 -94 330 -118 c 1,4,5
 293 -158 293 -158 293 -188 c 128,-1,6
 293 -218 293 -218 300 -235 c 128,-1,7
 307 -252 307 -252 320 -265 c 0,8,9
 348 -293 348 -293 378 -293 c 128,-1,10
 408 -293 408 -293 433 -281.5 c 128,-1,11
 458 -270 458 -270 489.5 -245.5 c 128,-1,12
 521 -221 521 -221 554 -182 c 128,-1,13
 587 -143 587 -143 619 -89 c 128,-1,14
 651 -35 651 -35 676 34 c 0,15,16
 730 189 730 189 730 380 c 2,17,-1
 730 887 l 2,18,19
 730 1241 730 1241 554 1449 c 0,20,21
 460 1560 460 1560 386 1560 c 0,22,23
 346 1560 346 1560 319.5 1532.5 c 128,-1,24
 293 1505 293 1505 293 1477 c 0,25,26
 293 1426 293 1426 323.5 1393.5 c 128,-1,27
 354 1361 354 1361 384 1318.5 c 128,-1,28
 414 1276 414 1276 438 1217 c 0,29,30
 492 1084 492 1084 492 892 c 2,31,-1
 492 375 l 2,0,1
EndSplineSet
EndChar

StartChar: asterisk
Encoding: 42 42 32
Width: 808
GlyphClass: 2
Flags: W
LayerCount: 2
Fore
SplineSet
477 1139 m 1,0,-1
 562 1183 l 1,1,2
 592 1200 592 1200 622 1200 c 0,3,4
 686 1200 686 1200 707 1139 c 0,5,6
 713 1121 713 1121 713 1094.5 c 128,-1,7
 713 1068 713 1068 684.5 1044 c 128,-1,8
 656 1020 656 1020 618 1014 c 2,9,-1
 528 1000 l 1,10,-1
 597 932 l 2,11,12
 636 893 636 893 636 862 c 0,13,14
 636 806 636 806 604.5 783.5 c 128,-1,15
 573 761 573 761 544 761 c 0,16,17
 485 761 485 761 453 827 c 1,18,-1
 409 913 l 1,19,-1
 365 826 l 2,20,21
 332 759 332 759 273 759 c 0,22,23
 245 759 245 759 223 776 c 0,24,25
 182 806 182 806 182 838 c 0,26,27
 182 892 182 892 221 931 c 2,28,-1
 287 997 l 1,29,-1
 192 1012 l 2,30,31
 127 1023 127 1023 104 1068 c 0,32,33
 96 1083 96 1083 96 1101 c 128,-1,34
 96 1119 96 1119 104 1143 c 128,-1,35
 112 1167 112 1167 135 1182 c 128,-1,36
 158 1197 158 1197 186.5 1197 c 128,-1,37
 215 1197 215 1197 247 1181 c 2,38,-1
 329 1139 l 1,39,-1
 314 1235 l 1,40,41
 303 1316 303 1316 356 1348 c 0,42,43
 374 1359 374 1359 401.5 1359 c 128,-1,44
 429 1359 429 1359 448 1348 c 128,-1,45
 467 1337 467 1337 478 1320 c 0,46,47
 501 1286 501 1286 492 1235 c 1,48,-1
 477 1139 l 1,0,-1
EndSplineSet
EndChar

StartChar: plus
Encoding: 43 43 33
Width: 1023
GlyphClass: 2
Flags: W
LayerCount: 2
Fore
SplineSet
545.5 172 m 128,-1,1
 529 165 529 165 510.5 165 c 128,-1,2
 492 165 492 165 475.5 172 c 128,-1,3
 459 179 459 179 446 191 c 0,4,5
 420 216 420 216 420 253 c 2,6,-1
 420 525 l 1,7,-1
 182 525 l 2,8,9
 147 525 147 525 128 544 c 0,10,11
 94 578 94 578 94 606 c 128,-1,12
 94 634 94 634 101 650.5 c 128,-1,13
 108 667 108 667 120 680 c 0,14,15
 145 706 145 706 182 706 c 2,16,-1
 420 706 l 1,17,-1
 420 969 l 2,18,19
 420 1004 420 1004 440 1024 c 0,20,21
 473 1057 473 1057 501 1057 c 128,-1,22
 529 1057 529 1057 545.5 1050 c 128,-1,23
 562 1043 562 1043 574 1031 c 0,24,25
 601 1006 601 1006 601 969 c 2,26,-1
 601 706 l 1,27,-1
 840 706 l 2,28,29
 875 706 875 706 894 686 c 1,30,31
 928 653 928 653 928 625 c 128,-1,32
 928 597 928 597 921 580.5 c 128,-1,33
 914 564 914 564 902 552 c 0,34,35
 877 525 877 525 840 525 c 2,36,-1
 601 525 l 1,37,-1
 601 253 l 2,38,39
 601 218 601 218 581.5 198.5 c 128,-1,0
 562 179 562 179 545.5 172 c 128,-1,1
EndSplineSet
EndChar

StartChar: comma
Encoding: 44 44 34
Width: 513
GlyphClass: 2
Flags: W
LayerCount: 2
Fore
SplineSet
206 -62 m 0,0,1
 206 -19 206 -19 176 8 c 0,2,3
 121 56 121 56 121 116 c 0,4,5
 121 171 121 171 160 210 c 0,6,7
 198 248 198 248 246 248 c 128,-1,8
 294 248 294 248 323.5 230 c 128,-1,9
 353 212 353 212 372 184 c 0,10,11
 407 129 407 129 407 48 c 0,12,13
 407 -107 407 -107 319 -199 c 1,14,15
 265 -251 265 -251 230 -251 c 128,-1,16
 195 -251 195 -251 176 -230 c 128,-1,17
 157 -209 157 -209 157 -186 c 128,-1,18
 157 -163 157 -163 164.5 -149 c 128,-1,19
 172 -135 172 -135 182 -122 c 0,20,21
 206 -88 206 -88 206 -62 c 0,0,1
EndSplineSet
EndChar

StartChar: hyphen
Encoding: 45 45 35
Width: 1023
GlyphClass: 2
Flags: W
LayerCount: 2
Fore
SplineSet
911 650.5 m 128,-1,1
 918 634 918 634 918 615.5 c 128,-1,2
 918 597 918 597 911 580.5 c 128,-1,3
 904 564 904 564 892 552 c 0,4,5
 867 525 867 525 830 525 c 2,6,-1
 192 525 l 2,7,8
 157 525 157 525 138 544 c 0,9,10
 104 578 104 578 104 606 c 128,-1,11
 104 634 104 634 111 650.5 c 128,-1,12
 118 667 118 667 130 680 c 0,13,14
 155 706 155 706 192 706 c 2,15,-1
 830 706 l 2,16,17
 865 706 865 706 884.5 686.5 c 128,-1,0
 904 667 904 667 911 650.5 c 128,-1,1
EndSplineSet
EndChar

StartChar: period
Encoding: 46 46 36
Width: 513
GlyphClass: 2
Flags: W
LayerCount: 2
Fore
SplineSet
257 248 m 256,0,1
 312 248 312 248 352 208 c 256,2,3
 392 168 392 168 392 127 c 128,-1,4
 392 86 392 86 381 62 c 128,-1,5
 370 38 370 38 352 20 c 0,6,7
 312 -20 312 -20 257 -20 c 256,8,9
 202 -20 202 -20 162 20 c 256,10,11
 122 60 122 60 122 100 c 0,12,13
 122 168 122 168 162 208 c 128,-1,14
 202 248 202 248 257 248 c 256,0,1
EndSplineSet
EndChar

StartChar: slash
Encoding: 47 47 37
Width: 1023
GlyphClass: 2
Flags: W
LayerCount: 2
Fore
SplineSet
653 1470 m 2,0,1
 663 1508 663 1508 695.5 1526.5 c 128,-1,2
 728 1545 728 1545 765 1535 c 128,-1,3
 802 1525 802 1525 820.5 1493 c 128,-1,4
 839 1461 839 1461 829 1423 c 2,5,-1
 368 -292 l 2,6,7
 359 -329 359 -329 327 -347.5 c 128,-1,8
 295 -366 295 -366 267.5 -358.5 c 128,-1,9
 240 -351 240 -351 225.5 -339.5 c 128,-1,10
 211 -328 211 -328 202 -313 c 0,11,12
 183 -279 183 -279 193 -245 c 2,13,-1
 653 1470 l 2,0,1
EndSplineSet
EndChar

StartChar: zero
Encoding: 48 48 38
Width: 1023
GlyphClass: 2
Flags: W
LayerCount: 2
Fore
SplineSet
156 1085 m 2,0,1
 156 1220 156 1220 248 1298 c 0,2,3
 344 1379 344 1379 511 1379 c 0,4,5
 677 1379 677 1379 772 1298 c 0,6,7
 866 1219 866 1219 866 1083 c 2,8,-1
 866 274 l 2,9,10
 866 65 866 65 662 2 c 0,11,12
 596 -19 596 -19 511.5 -19 c 128,-1,13
 427 -19 427 -19 361 1.5 c 128,-1,14
 295 22 295 22 250 60 c 0,15,16
 156 140 156 140 156 277 c 2,17,-1
 156 1085 l 2,0,1
629 1080 m 2,18,19
 629 1130 629 1130 604 1155 c 0,20,21
 560 1199 560 1199 511 1199 c 256,22,23
 462 1199 462 1199 436 1174 c 1,24,25
 393 1130 393 1130 393 1080 c 2,26,-1
 393 268 l 2,27,28
 393 217 393 217 426.5 189.5 c 128,-1,29
 460 162 460 162 510.5 162 c 128,-1,30
 561 162 561 162 595 189.5 c 128,-1,31
 629 217 629 217 629 268 c 2,32,-1
 629 1080 l 2,18,19
EndSplineSet
EndChar

StartChar: one
Encoding: 49 49 39
Width: 678
GlyphClass: 2
Flags: W
LayerCount: 2
Fore
SplineSet
13 1233.5 m 128,-1,1
 6 1250 6 1250 6 1278 c 128,-1,2
 6 1306 6 1306 31.5 1332.5 c 128,-1,3
 57 1359 57 1359 94 1359 c 2,4,-1
 368 1359 l 2,5,6
 406 1359 406 1359 431.5 1332.5 c 128,-1,7
 457 1306 457 1306 457 1269 c 2,8,-1
 457 97 l 2,9,10
 457 49 457 49 432 24 c 0,11,12
 388 -20 388 -20 351 -20 c 128,-1,13
 314 -20 314 -20 292 -10.5 c 128,-1,14
 270 -1 270 -1 254 14 c 0,15,16
 219 48 219 48 219 97 c 2,17,-1
 219 1178 l 1,18,-1
 94 1178 l 2,19,20
 59 1178 59 1178 39.5 1197.5 c 128,-1,0
 20 1217 20 1217 13 1233.5 c 128,-1,1
EndSplineSet
EndChar

StartChar: two
Encoding: 50 50 40
Width: 1023
GlyphClass: 2
Flags: W
LayerCount: 2
Fore
SplineSet
526 1359 m 2,0,1
 686 1359 686 1359 779 1248 c 0,2,3
 862 1148 862 1148 862 997 c 0,4,5
 862 829 862 829 740 678 c 0,6,7
 703 633 703 633 660 585 c 2,8,-1
 501 407 l 2,9,10
 441 341 441 341 425 307 c 0,11,12
 398 251 398 251 398 181 c 1,13,-1
 770 181 l 2,14,15
 805 181 805 181 824 162 c 0,16,17
 858 128 858 128 858 90.5 c 128,-1,18
 858 53 858 53 832.5 26.5 c 128,-1,19
 807 0 807 0 770 0 c 2,20,-1
 279 0 l 2,21,22
 230 0 230 0 204 26 c 0,23,24
 161 69 161 69 161 120 c 2,25,-1
 161 122 l 2,26,27
 161 276 161 276 194.5 352 c 128,-1,28
 228 428 228 428 272 487.5 c 128,-1,29
 316 547 316 547 386 623 c 2,30,-1
 560 812 l 2,31,32
 592 846 592 846 613.5 899.5 c 128,-1,33
 635 953 635 953 635 1001.5 c 128,-1,34
 635 1050 635 1050 621.5 1082.5 c 128,-1,35
 608 1115 608 1115 586 1136 c 0,36,37
 542 1178 542 1178 482 1178 c 2,38,-1
 286 1178 l 2,39,40
 250 1178 250 1178 230 1198 c 0,41,42
 196 1232 196 1232 196 1269 c 128,-1,43
 196 1306 196 1306 222.5 1332.5 c 128,-1,44
 249 1359 249 1359 286 1359 c 2,45,-1
 526 1359 l 2,0,1
EndSplineSet
EndChar

StartChar: three
Encoding: 51 51 41
Width: 1023
GlyphClass: 2
Flags: W
LayerCount: 2
Fore
SplineSet
569 854 m 1,0,1
 597 869 597 869 638.5 869 c 128,-1,2
 680 869 680 869 718.5 847.5 c 128,-1,3
 757 826 757 826 786 787 c 0,4,5
 846 704 846 704 846 573 c 2,6,-1
 846 294 l 2,7,8
 846 165 846 165 759 86 c 0,9,10
 664 0 664 0 491 0 c 2,11,-1
 253 0 l 2,12,13
 218 0 218 0 198 20 c 0,14,15
 165 53 165 53 165 90.5 c 128,-1,16
 165 128 165 128 190.5 154.5 c 128,-1,17
 216 181 216 181 253 181 c 2,18,-1
 491 181 l 2,19,20
 540 181 540 181 566 206 c 1,21,22
 609 250 609 250 609 300 c 2,23,-1
 609 570 l 2,24,25
 609 634 609 634 586 663 c 1,26,27
 547 709 547 709 515 709 c 128,-1,28
 483 709 483 709 467.5 700.5 c 128,-1,29
 452 692 452 692 438 682 c 0,30,31
 402 655 402 655 377.5 655 c 128,-1,32
 353 655 353 655 336 662.5 c 128,-1,33
 319 670 319 670 306 683 c 0,34,35
 279 710 279 710 279 735 c 0,36,37
 279 775 279 775 296 800 c 2,38,-1
 561 1178 l 1,39,-1
 213 1178 l 2,40,41
 178 1178 178 1178 158 1198 c 0,42,43
 125 1231 125 1231 125 1268.5 c 128,-1,44
 125 1306 125 1306 150.5 1332.5 c 128,-1,45
 176 1359 176 1359 213 1359 c 2,46,-1
 741 1359 l 2,47,48
 786 1359 786 1359 816 1331 c 128,-1,49
 846 1303 846 1303 846 1274 c 0,50,51
 846 1223 846 1223 828 1200 c 2,52,-1
 569 854 l 1,0,1
EndSplineSet
EndChar

StartChar: four
Encoding: 52 52 42
Width: 1023
GlyphClass: 2
Flags: W
LayerCount: 2
Fore
SplineSet
978 364 m 0,0,1
 978 304 978 304 922 280 c 0,2,3
 906 273 906 273 887 273 c 2,4,-1
 827 273 l 1,5,-1
 827 97 l 2,6,7
 827 49 827 49 802 24 c 0,8,9
 758 -20 758 -20 721 -20 c 128,-1,10
 684 -20 684 -20 662 -10.5 c 128,-1,11
 640 -1 640 -1 624 14 c 0,12,13
 589 48 589 48 589 97 c 2,14,-1
 589 273 l 1,15,-1
 179 273 l 2,16,17
 127 273 127 273 100 326 c 1,18,19
 82 359 82 359 93 397 c 2,20,-1
 360 1290 l 2,21,22
 371 1329 371 1329 403.5 1352 c 128,-1,23
 436 1375 436 1375 464 1375 c 128,-1,24
 492 1375 492 1375 520 1366 c 128,-1,25
 548 1357 548 1357 569.5 1325.5 c 128,-1,26
 591 1294 591 1294 591 1265 c 128,-1,27
 591 1236 591 1236 585 1217 c 2,28,-1
 331 453 l 1,29,-1
 589 453 l 1,30,-1
 589 794 l 2,31,32
 589 843 589 843 614 870 c 0,33,34
 657 914 657 914 709 914 c 0,35,36
 759 914 759 914 783 888 c 1,37,38
 827 843 827 843 827 794 c 2,39,-1
 827 453 l 1,40,-1
 887 453 l 2,41,42
 924 453 924 453 944 434 c 0,43,44
 978 402 978 402 978 364 c 0,0,1
EndSplineSet
EndChar

StartChar: five
Encoding: 53 53 43
Width: 1023
GlyphClass: 2
Flags: W
LayerCount: 2
Fore
SplineSet
146 1239 m 2,0,1
 146 1318 146 1318 218 1350 c 0,2,3
 239 1359 239 1359 264 1359 c 2,4,-1
 765 1359 l 2,5,6
 802 1359 802 1359 827.5 1332.5 c 128,-1,7
 853 1306 853 1306 853 1278 c 128,-1,8
 853 1250 853 1250 846 1233.5 c 128,-1,9
 839 1217 839 1217 827 1205 c 0,10,11
 800 1178 800 1178 765 1178 c 2,12,-1
 374 1178 l 1,13,-1
 374 850 l 2,14,15
 374 831 374 831 384.5 824.5 c 128,-1,16
 395 818 395 818 405 818 c 128,-1,17
 415 818 415 818 423 826.5 c 128,-1,18
 431 835 431 835 450 854 c 0,19,20
 509 911 509 911 616 911 c 128,-1,21
 723 911 723 911 796 824 c 1,22,23
 867 737 867 737 867 615 c 2,24,-1
 867 294 l 2,25,26
 867 165 867 165 780 86 c 0,27,28
 685 0 685 0 512 0 c 2,29,-1
 271 0 l 2,30,31
 236 0 236 0 216 20 c 0,32,33
 183 53 183 53 183 90.5 c 128,-1,34
 183 128 183 128 208.5 154.5 c 128,-1,35
 234 181 234 181 271 181 c 2,36,-1
 512 181 l 2,37,38
 561 181 561 181 586 206 c 0,39,40
 630 250 630 250 630 300 c 2,41,-1
 630 612 l 2,42,43
 630 688 630 688 550 722 c 0,44,45
 527 731 527 731 491 731 c 128,-1,46
 455 731 455 731 425.5 709.5 c 128,-1,47
 396 688 396 688 381.5 657 c 128,-1,48
 367 626 367 626 335.5 607.5 c 128,-1,49
 304 589 304 589 274 589 c 128,-1,50
 244 589 244 589 221.5 599 c 128,-1,51
 199 609 199 609 182 626 c 0,52,53
 146 662 146 662 146 713 c 2,54,-1
 146 1239 l 2,0,1
EndSplineSet
EndChar

StartChar: six
Encoding: 54 54 44
Width: 1023
GlyphClass: 2
Flags: W
LayerCount: 2
Fore
SplineSet
644 1359 m 2,0,1
 681 1359 681 1359 707.5 1332.5 c 128,-1,2
 734 1306 734 1306 734 1278.5 c 128,-1,3
 734 1251 734 1251 727 1234.5 c 128,-1,4
 720 1218 720 1218 708 1206 c 0,5,6
 679 1179 679 1179 644 1179 c 2,7,-1
 566 1179 l 2,8,9
 498 1179 498 1179 448 1122 c 0,10,11
 393 1060 393 1060 393 947 c 2,12,-1
 393 859 l 2,13,14
 393 840 393 840 403.5 833.5 c 128,-1,15
 414 827 414 827 424 827 c 128,-1,16
 434 827 434 827 442 836 c 1,17,-1
 459 852 l 1,18,19
 527 920 527 920 615 920 c 0,20,21
 722 920 722 920 794 832 c 1,22,23
 866 746 866 746 866 624 c 2,24,-1
 866 275 l 2,25,26
 866 140 866 140 774 62 c 0,27,28
 678 -19 678 -19 511 -19 c 0,29,30
 345 -19 345 -19 250 62 c 0,31,32
 156 141 156 141 156 277 c 2,33,-1
 156 937 l 2,34,35
 156 1112 156 1112 248 1229 c 0,36,37
 351 1359 351 1359 532 1359 c 2,38,-1
 644 1359 l 2,0,1
629 621 m 2,39,40
 629 671 629 671 604 696 c 0,41,42
 560 740 560 740 523.5 740 c 128,-1,43
 487 740 487 740 466 732.5 c 128,-1,44
 445 725 445 725 428 711 c 0,45,46
 393 681 393 681 393 633 c 2,47,-1
 393 280 l 2,48,49
 393 230 393 230 418 205 c 0,50,51
 462 161 462 161 511 161 c 256,52,53
 560 161 560 161 586 186 c 1,54,55
 629 230 629 230 629 280 c 2,56,-1
 629 621 l 2,39,40
EndSplineSet
EndChar

StartChar: seven
Encoding: 55 55 45
Width: 855
GlyphClass: 2
Flags: W
LayerCount: 2
Fore
SplineSet
447 65 m 2,0,1
 436 26 436 26 403.5 3 c 128,-1,2
 371 -20 371 -20 343 -20 c 128,-1,3
 315 -20 315 -20 287 -11 c 128,-1,4
 259 -2 259 -2 237.5 29.5 c 128,-1,5
 216 61 216 61 216 89.5 c 128,-1,6
 216 118 216 118 222 138 c 2,7,-1
 557 1179 l 1,8,-1
 200 1179 l 2,9,10
 163 1179 163 1179 143 1198 c 0,11,12
 109 1230 109 1230 109 1268 c 0,13,14
 109 1328 109 1328 164 1352 c 0,15,16
 181 1359 181 1359 200 1359 c 2,17,-1
 697 1359 l 2,18,19
 751 1359 751 1359 780 1320 c 1,20,21
 806 1282 806 1282 794 1236 c 1,22,-1
 447 65 l 2,0,1
EndSplineSet
EndChar

StartChar: eight
Encoding: 56 56 46
Width: 1023
GlyphClass: 2
Flags: W
LayerCount: 2
Fore
SplineSet
718 710 m 1,0,1
 873 650 873 650 873 487 c 2,2,-1
 873 277 l 2,3,4
 873 140 873 140 776 60.5 c 128,-1,5
 679 -19 679 -19 511 -19 c 256,6,7
 343 -19 343 -19 246 60.5 c 128,-1,8
 149 140 149 140 149 277 c 2,9,-1
 149 487 l 2,10,11
 149 650 149 650 303 710 c 1,12,13
 234 749 234 749 207 790 c 0,14,15
 161 862 161 862 161 959 c 2,16,-1
 161 1083 l 2,17,18
 161 1219 161 1219 254 1298 c 0,19,20
 348 1379 348 1379 511 1379 c 256,21,22
 674 1379 674 1379 768 1298 c 0,23,24
 861 1219 861 1219 861 1083 c 2,25,-1
 861 959 l 2,26,27
 861 820 861 820 776 750 c 0,28,29
 750 728 750 728 718 710 c 1,0,1
638 507 m 2,30,31
 638 556 638 556 611 582 c 0,32,33
 564 626 564 626 510 626 c 0,34,35
 457 626 457 626 429 600 c 0,36,37
 382 558 382 558 382 507 c 2,38,-1
 382 267 l 2,39,40
 382 216 382 216 418.5 188.5 c 128,-1,41
 455 161 455 161 509.5 161 c 128,-1,42
 564 161 564 161 601 188.5 c 128,-1,43
 638 216 638 216 638 267 c 2,44,-1
 638 507 l 2,30,31
623 1080 m 2,45,46
 623 1158 623 1158 556 1190 c 0,47,48
 535 1199 535 1199 497 1199 c 128,-1,49
 459 1199 459 1199 428 1164.5 c 128,-1,50
 397 1130 397 1130 397 1080 c 2,51,-1
 397 893 l 2,52,53
 397 842 397 842 430 814.5 c 128,-1,54
 463 787 463 787 498 787 c 128,-1,55
 533 787 533 787 553.5 794 c 128,-1,56
 574 801 574 801 590 814 c 1,57,58
 623 844 623 844 623 893 c 2,59,-1
 623 1080 l 2,45,46
EndSplineSet
EndChar

StartChar: nine
Encoding: 57 57 47
Width: 1023
GlyphClass: 2
Flags: W
LayerCount: 2
Fore
SplineSet
456 0 m 2,0,1
 419 0 419 0 392.5 26.5 c 128,-1,2
 366 53 366 53 366 80.5 c 128,-1,3
 366 108 366 108 373 124.5 c 128,-1,4
 380 141 380 141 392 153 c 0,5,6
 421 180 421 180 454 180 c 128,-1,7
 487 180 487 180 518 196 c 128,-1,8
 549 212 549 212 574 244 c 0,9,10
 629 314 629 314 629 442 c 2,11,-1
 629 520 l 2,12,13
 629 539 629 539 618.5 545.5 c 128,-1,14
 608 552 608 552 598 552 c 128,-1,15
 588 552 588 552 580 544 c 2,16,-1
 563 527 l 2,17,18
 495 459 495 459 407 459 c 0,19,20
 300 459 300 459 228 546 c 256,21,22
 156 633 156 633 156 755 c 2,23,-1
 156 1085 l 2,24,25
 156 1220 156 1220 248 1298 c 0,26,27
 344 1379 344 1379 511 1379 c 0,28,29
 677 1379 677 1379 772 1298 c 0,30,31
 866 1219 866 1219 866 1083 c 2,32,-1
 866 452 l 2,33,34
 866 265 866 265 774 140 c 0,35,36
 670 0 670 0 490 0 c 2,37,-1
 456 0 l 2,0,1
393 758 m 2,38,39
 393 708 393 708 418 683 c 0,40,41
 462 639 462 639 498.5 639 c 128,-1,42
 535 639 535 639 556 646.5 c 128,-1,43
 577 654 577 654 594 668 c 0,44,45
 629 698 629 698 629 746 c 2,46,-1
 629 1080 l 2,47,48
 629 1130 629 1130 604 1155 c 0,49,50
 560 1199 560 1199 511 1199 c 256,51,52
 462 1199 462 1199 436 1174 c 1,53,54
 393 1130 393 1130 393 1080 c 2,55,-1
 393 758 l 2,38,39
EndSplineSet
EndChar

StartChar: colon
Encoding: 58 58 48
Width: 513
GlyphClass: 2
Flags: W
LayerCount: 2
Fore
SplineSet
257 248 m 256,0,1
 312 248 312 248 352 208 c 256,2,3
 392 168 392 168 392 127 c 128,-1,4
 392 86 392 86 381 62 c 128,-1,5
 370 38 370 38 352 20 c 0,6,7
 312 -20 312 -20 257 -20 c 256,8,9
 202 -20 202 -20 162 20 c 256,10,11
 122 60 122 60 122 100 c 0,12,13
 122 168 122 168 162 208 c 128,-1,14
 202 248 202 248 257 248 c 256,0,1
257 1085 m 256,15,16
 312 1085 312 1085 352 1045 c 256,17,18
 392 1005 392 1005 392 964 c 128,-1,19
 392 923 392 923 381 899 c 128,-1,20
 370 875 370 875 352 857 c 0,21,22
 312 817 312 817 257 817 c 256,23,24
 202 817 202 817 162 857 c 256,25,26
 122 897 122 897 122 937 c 0,27,28
 122 1005 122 1005 162 1045 c 128,-1,29
 202 1085 202 1085 257 1085 c 256,15,16
EndSplineSet
EndChar

StartChar: semicolon
Encoding: 59 59 49
Width: 513
GlyphClass: 2
Flags: W
LayerCount: 2
Fore
SplineSet
257 1085 m 256,0,1
 312 1085 312 1085 352 1045 c 256,2,3
 392 1005 392 1005 392 964 c 128,-1,4
 392 923 392 923 381 899 c 128,-1,5
 370 875 370 875 352 857 c 0,6,7
 312 817 312 817 257 817 c 256,8,9
 202 817 202 817 162 857 c 256,10,11
 122 897 122 897 122 937 c 0,12,13
 122 1005 122 1005 162 1045 c 128,-1,14
 202 1085 202 1085 257 1085 c 256,0,1
206 -62 m 0,15,16
 206 -19 206 -19 176 8 c 0,17,18
 121 56 121 56 121 116 c 0,19,20
 121 171 121 171 160 210 c 0,21,22
 198 248 198 248 246 248 c 128,-1,23
 294 248 294 248 323.5 230 c 128,-1,24
 353 212 353 212 372 184 c 0,25,26
 407 129 407 129 407 48 c 0,27,28
 407 -107 407 -107 319 -199 c 1,29,30
 265 -251 265 -251 230 -251 c 128,-1,31
 195 -251 195 -251 176 -230 c 128,-1,32
 157 -209 157 -209 157 -186 c 128,-1,33
 157 -163 157 -163 164.5 -149 c 128,-1,34
 172 -135 172 -135 182 -122 c 0,35,36
 206 -88 206 -88 206 -62 c 0,15,16
EndSplineSet
EndChar

StartChar: less
Encoding: 60 60 50
Width: 1023
GlyphClass: 2
Flags: W
LayerCount: 2
Fore
SplineSet
852 238 m 0,0,1
 830 226 830 226 806.5 226 c 128,-1,2
 783 226 783 226 764 238 c 2,3,-1
 127 605 l 2,4,5
 84 629 84 629 84 686 c 0,6,7
 84 735 84 735 127 760 c 2,8,-1
 764 1127 l 2,9,10
 783 1139 783 1139 806 1139 c 0,11,12
 860 1139 860 1139 885 1093 c 0,13,14
 898 1071 898 1071 898 1047 c 0,15,16
 898 996 898 996 855 971 c 2,17,-1
 354 682 l 1,18,-1
 855 394 l 2,19,20
 898 369 898 369 898 316.5 c 128,-1,21
 898 264 898 264 852 238 c 0,0,1
EndSplineSet
EndChar

StartChar: equal
Encoding: 61 61 51
Width: 1023
GlyphClass: 2
Flags: W
LayerCount: 2
Fore
SplineSet
911 469.5 m 128,-1,1
 918 453 918 453 918 434.5 c 128,-1,2
 918 416 918 416 911 399.5 c 128,-1,3
 904 383 904 383 892 370 c 0,4,5
 867 344 867 344 830 344 c 2,6,-1
 192 344 l 2,7,8
 157 344 157 344 138 364 c 1,9,10
 104 397 104 397 104 425 c 128,-1,11
 104 453 104 453 111 469.5 c 128,-1,12
 118 486 118 486 130 498 c 0,13,14
 155 525 155 525 192 525 c 2,15,-1
 830 525 l 2,16,17
 865 525 865 525 884.5 505.5 c 128,-1,0
 904 486 904 486 911 469.5 c 128,-1,1
911 831.5 m 128,-1,19
 918 815 918 815 918 796.5 c 128,-1,20
 918 778 918 778 911 761.5 c 128,-1,21
 904 745 904 745 892 732 c 0,22,23
 867 706 867 706 830 706 c 2,24,-1
 192 706 l 2,25,26
 157 706 157 706 138 726 c 1,27,28
 104 759 104 759 104 787 c 128,-1,29
 104 815 104 815 111 831.5 c 128,-1,30
 118 848 118 848 130 860 c 0,31,32
 155 887 155 887 192 887 c 2,33,-1
 830 887 l 2,34,35
 865 887 865 887 884.5 867.5 c 128,-1,18
 904 848 904 848 911 831.5 c 128,-1,19
EndSplineSet
EndChar

StartChar: greater
Encoding: 62 62 52
Width: 1023
GlyphClass: 2
Flags: W
LayerCount: 2
Fore
SplineSet
173 238 m 0,0,1
 195 226 195 226 218.5 226 c 128,-1,2
 242 226 242 226 261 238 c 2,3,-1
 898 605 l 2,4,5
 941 629 941 629 941 686 c 0,6,7
 941 735 941 735 898 760 c 2,8,-1
 261 1127 l 2,9,10
 242 1139 242 1139 219 1139 c 0,11,12
 165 1139 165 1139 140 1093 c 0,13,14
 127 1071 127 1071 127 1047 c 0,15,16
 127 996 127 996 170 971 c 2,17,-1
 671 682 l 1,18,-1
 170 394 l 2,19,20
 127 369 127 369 127 316.5 c 128,-1,21
 127 264 127 264 173 238 c 0,0,1
EndSplineSet
EndChar

StartChar: question
Encoding: 63 63 53
Width: 1026
GlyphClass: 2
Flags: W
LayerCount: 2
Fore
SplineSet
287 599 m 2,0,1
 287 791 287 791 502 908 c 1,2,-1
 564 941 l 2,3,4
 626 973 626 973 626 1037 c 2,5,-1
 626 1059 l 2,6,7
 626 1108 626 1108 600 1134 c 0,8,9
 556 1178 556 1178 507 1178 c 2,10,-1
 251 1178 l 2,11,12
 216 1178 216 1178 195 1198 c 0,13,14
 161 1230 161 1230 161 1267.5 c 128,-1,15
 161 1305 161 1305 187.5 1331.5 c 128,-1,16
 214 1358 214 1358 251 1358 c 2,17,-1
 509 1358 l 2,18,19
 674 1358 674 1358 770 1278 c 1,20,21
 862 1199 862 1199 862 1062 c 2,22,-1
 862 1028 l 2,23,24
 862 863 862 863 656 750 c 1,25,-1
 610 724 l 2,26,27
 547 689 547 689 522 628 c 0,28,29
 513 607 513 607 513 586 c 2,30,-1
 513 559 l 2,31,32
 513 513 513 513 489 489 c 0,33,34
 448 448 448 448 412.5 448 c 128,-1,35
 377 448 377 448 356 457 c 128,-1,36
 335 466 335 466 320 481 c 0,37,38
 287 514 287 514 287 559 c 2,39,-1
 287 599 l 2,0,1
399 249 m 256,40,41
 454 249 454 249 494 210 c 1,42,43
 534 169 534 169 534 128 c 128,-1,44
 534 87 534 87 523 63 c 128,-1,45
 512 39 512 39 494 20 c 1,46,47
 454 -19 454 -19 399 -19 c 256,48,49
 344 -19 344 -19 304 20 c 1,50,51
 264 61 264 61 264 102 c 0,52,53
 264 169 264 169 304 209 c 128,-1,54
 344 249 344 249 399 249 c 256,40,41
EndSplineSet
EndChar

StartChar: at
Encoding: 64 64 54
Width: 1698
GlyphClass: 2
Flags: W
LayerCount: 2
Fore
SplineSet
1121.5 -195.5 m 128,-1,1
 1138 -212 1138 -212 1138 -236 c 128,-1,2
 1138 -260 1138 -260 1121.5 -275.5 c 128,-1,3
 1105 -291 1105 -291 1082 -291 c 2,4,-1
 840 -291 l 2,5,6
 548 -291 548 -291 382 -176 c 0,7,8
 218 -62 218 -62 218 135 c 2,9,-1
 218 1026 l 2,10,11
 218 1224 218 1224 379 1338 c 0,12,13
 544 1455 544 1455 839 1455 c 0,14,15
 1140 1455 1140 1455 1311 1338 c 1,16,17
 1480 1221 1480 1221 1480 1024 c 2,18,-1
 1480 280 l 2,19,20
 1480 178 1480 178 1416 116 c 0,21,22
 1354 55 1354 55 1237.5 55 c 128,-1,23
 1121 55 1121 55 1057 132 c 0,24,25
 1049 141 1049 141 1042 141 c 0,26,27
 1027 141 1027 141 1021 132 c 1,28,29
 957 55 957 55 824 55 c 0,30,31
 715 55 715 55 640 116 c 1,32,33
 564 180 564 180 564 283 c 2,34,-1
 564 857 l 2,35,36
 564 950 564 950 627 1017 c 256,37,38
 690 1084 690 1084 774 1084 c 0,39,40
 860 1084 860 1084 920 1019 c 0,41,42
 925 1013 925 1013 935 1013 c 0,43,44
 948 1013 948 1013 953 1025 c 128,-1,45
 958 1037 958 1037 964 1045.5 c 128,-1,46
 970 1054 970 1054 980 1062 c 0,47,48
 1004 1084 1004 1084 1031 1084 c 128,-1,49
 1058 1084 1058 1084 1076 1077 c 128,-1,50
 1094 1070 1094 1070 1108 1058 c 0,51,52
 1140 1029 1140 1029 1140 992 c 2,53,-1
 1140 275 l 2,54,55
 1140 232 1140 232 1180 200 c 0,56,57
 1218 170 1218 170 1255 170 c 128,-1,58
 1292 170 1292 170 1315.5 195 c 128,-1,59
 1339 220 1339 220 1339 265 c 2,60,-1
 1339 1024 l 2,61,62
 1339 1171 1339 1171 1206 1257 c 0,63,64
 1073 1344 1073 1344 836 1344 c 0,65,66
 609 1344 609 1344 482 1258 c 0,67,68
 358 1173 358 1173 358 1026 c 2,69,-1
 358 150 l 2,70,71
 358 -3 358 -3 484 -90 c 0,72,73
 612 -178 612 -178 837 -178 c 2,74,-1
 1082 -179 l 2,75,0
 1105 -179 1105 -179 1121.5 -195.5 c 128,-1,1
948 863 m 2,76,77
 948 900 948 900 924 917 c 0,78,79
 885 946 885 946 855.5 946 c 128,-1,80
 826 946 826 946 810 939 c 128,-1,81
 794 932 794 932 782 920 c 0,82,83
 756 892 756 892 756 854 c 2,84,-1
 756 275 l 2,85,86
 756 236 756 236 782.5 215 c 128,-1,87
 809 194 809 194 837 194 c 128,-1,88
 865 194 865 194 883.5 199 c 128,-1,89
 902 204 902 204 916 214 c 0,90,91
 948 237 948 237 948 275 c 2,92,-1
 948 863 l 2,76,77
EndSplineSet
EndChar

StartChar: A
Encoding: 65 65 55
Width: 1193
GlyphClass: 2
Flags: W
LayerCount: 2
Fore
SplineSet
427 1148 m 0,0,1
 427 1178 427 1178 398 1178 c 2,2,-1
 282 1178 l 2,3,4
 237 1178 237 1178 214 1152 c 0,5,6
 174 1107 174 1107 174 1060 c 2,7,-1
 174 1003 l 2,8,9
 174 925 174 925 101 895 c 0,10,11
 79 886 79 886 54.5 886 c 128,-1,12
 30 886 30 886 8.5 895 c 128,-1,13
 -13 904 -13 904 -28 920 c 1,14,15
 -63 954 -63 954 -63 1003 c 2,16,-1
 -63 1063 l 2,17,18
 -63 1185 -63 1185 24 1272 c 128,-1,19
 111 1359 111 1359 233 1359 c 2,20,-1
 689 1359 l 2,21,22
 855 1359 855 1359 950 1278 c 0,23,24
 1044 1199 1044 1199 1044 1063 c 2,25,-1
 1044 98 l 2,26,27
 1044 22 1044 22 972 -10 c 0,28,29
 951 -19 951 -19 926.5 -19 c 128,-1,30
 902 -19 902 -19 880 -9.5 c 128,-1,31
 858 0 858 0 842 16 c 0,32,33
 807 49 807 49 807 98 c 2,34,-1
 807 433 l 1,35,-1
 570 433 l 1,36,-1
 570 98 l 2,37,38
 570 50 570 50 544 24 c 0,39,40
 501 -19 501 -19 464 -19 c 128,-1,41
 427 -19 427 -19 405 -9.5 c 128,-1,42
 383 0 383 0 367 16 c 0,43,44
 333 48 333 48 333 98 c 2,45,-1
 333 433 l 1,46,-1
 261 433 l 2,47,48
 226 433 226 433 206 452 c 1,49,50
 173 486 173 486 173 523.5 c 128,-1,51
 173 561 173 561 198.5 587.5 c 128,-1,52
 224 614 224 614 261 614 c 2,53,-1
 333 614 l 1,54,-1
 333 955 l 2,55,56
 333 1050 333 1050 418 1130 c 0,57,58
 427 1138 427 1138 427 1148 c 0,0,1
570 614 m 1,59,-1
 807 614 l 1,60,-1
 807 1059 l 2,61,62
 807 1109 807 1109 782 1134 c 0,63,64
 738 1178 738 1178 700.5 1178 c 128,-1,65
 663 1178 663 1178 641.5 1168.5 c 128,-1,66
 620 1159 620 1159 604 1143 c 0,67,68
 570 1109 570 1109 570 1060 c 2,69,-1
 570 614 l 1,59,-1
EndSplineSet
EndChar

StartChar: B
Encoding: 66 66 56
Width: 1191
GlyphClass: 2
Flags: W
LayerCount: 2
Fore
SplineSet
231 0 m 2,0,1
 194 0 194 0 174 19 c 0,2,3
 140 51 140 51 140 79.5 c 128,-1,4
 140 108 140 108 147 124.5 c 128,-1,5
 154 141 154 141 166 154 c 1,6,7
 194 181 194 181 231 181 c 2,8,-1
 333 181 l 1,9,-1
 333 955 l 2,10,11
 333 1050 333 1050 418 1130 c 0,12,13
 427 1138 427 1138 427 1147.5 c 128,-1,14
 427 1157 427 1157 420.5 1167.5 c 128,-1,15
 414 1178 414 1178 395 1178 c 2,16,-1
 283 1178 l 2,17,18
 238 1178 238 1178 215 1152 c 0,19,20
 175 1107 175 1107 175 1060 c 2,21,-1
 175 1003 l 2,22,23
 175 925 175 925 102 895 c 0,24,25
 80 886 80 886 55.5 886 c 128,-1,26
 31 886 31 886 9.5 895 c 128,-1,27
 -12 904 -12 904 -28 920 c 0,28,29
 -62 954 -62 954 -62 1003 c 2,30,-1
 -62 1063 l 2,31,32
 -62 1185 -62 1185 25 1272 c 128,-1,33
 112 1359 112 1359 234 1359 c 2,34,-1
 697 1359 l 2,35,36
 933 1359 933 1359 1014 1197 c 0,37,38
 1042 1141 1042 1141 1042 1063 c 2,39,-1
 1042 852 l 2,40,41
 1042 687 1042 687 880 626 c 1,42,43
 947 587 947 587 973 546 c 0,44,45
 1019 475 1019 475 1019 380 c 2,46,-1
 1019 296 l 2,47,48
 1019 173 1019 173 933 87 c 0,49,50
 846 0 846 0 724 0 c 2,51,-1
 231 0 l 2,0,1
570 722 m 1,52,-1
 689 722 l 2,53,54
 765 722 765 722 796 794 c 0,55,56
 806 815 806 815 806 841 c 2,57,-1
 806 1061 l 2,58,59
 806 1108 806 1108 781 1134 c 0,60,61
 739 1178 739 1178 699.5 1178 c 128,-1,62
 660 1178 660 1178 638 1168.5 c 128,-1,63
 616 1159 616 1159 601 1142 c 0,64,65
 570 1108 570 1108 570 1061 c 2,66,-1
 570 722 l 1,52,-1
664 181 m 2,67,68
 713 181 713 181 738 206 c 0,69,70
 783 251 783 251 783 300 c 2,71,-1
 783 424 l 2,72,73
 783 473 783 473 758 498 c 0,74,75
 714 542 714 542 664 542 c 2,76,-1
 570 542 l 1,77,-1
 570 181 l 1,78,-1
 664 181 l 2,67,68
EndSplineSet
EndChar

StartChar: C
Encoding: 67 67 57
Width: 1026
GlyphClass: 2
Flags: W
LayerCount: 2
Fore
SplineSet
646 1027.5 m 128,-1,1
 659 1049 659 1049 659 1077 c 128,-1,2
 659 1105 659 1105 649 1126.5 c 128,-1,3
 639 1148 639 1148 621 1164 c 0,4,5
 582 1199 582 1199 522 1199 c 128,-1,6
 462 1199 462 1199 427.5 1164.5 c 128,-1,7
 393 1130 393 1130 393 1080 c 2,8,-1
 393 268 l 2,9,10
 393 217 393 217 426.5 189.5 c 128,-1,11
 460 162 460 162 510.5 162 c 128,-1,12
 561 162 561 162 595 189.5 c 128,-1,13
 629 217 629 217 629 268 c 2,14,-1
 629 333 l 2,15,16
 629 383 629 383 654 408 c 0,17,18
 697 451 697 451 734 451 c 128,-1,19
 771 451 771 451 793 442 c 128,-1,20
 815 433 815 433 831 417 c 0,21,22
 866 382 866 382 866 333 c 2,23,-1
 866 274 l 2,24,25
 866 65 866 65 662 2 c 0,26,27
 596 -19 596 -19 511.5 -19 c 128,-1,28
 427 -19 427 -19 361 1.5 c 128,-1,29
 295 22 295 22 250 60 c 0,30,31
 156 140 156 140 156 277 c 2,32,-1
 156 1085 l 2,33,34
 156 1220 156 1220 248 1298 c 0,35,36
 344 1379 344 1379 511 1379 c 0,37,38
 683 1379 683 1379 780 1298 c 0,39,40
 876 1219 876 1219 876 1084 c 0,41,42
 876 873 876 873 768 799 c 0,43,44
 735 776 735 776 701.5 776 c 128,-1,45
 668 776 668 776 646.5 785 c 128,-1,46
 625 794 625 794 609 810 c 0,47,48
 575 842 575 842 575 883 c 128,-1,49
 575 924 575 924 588 945.5 c 128,-1,50
 601 967 601 967 617 986.5 c 128,-1,0
 633 1006 633 1006 646 1027.5 c 128,-1,1
EndSplineSet
EndChar

StartChar: D
Encoding: 68 68 58
Width: 1193
GlyphClass: 2
Flags: W
LayerCount: 2
Fore
SplineSet
174 1003 m 2,0,1
 174 925 174 925 101 895 c 0,2,3
 79 886 79 886 54.5 886 c 128,-1,4
 30 886 30 886 8.5 895 c 128,-1,5
 -13 904 -13 904 -29 920 c 0,6,7
 -63 952 -63 952 -63 1003 c 2,8,-1
 -63 1063 l 2,9,10
 -63 1185 -63 1185 24 1272 c 128,-1,11
 111 1359 111 1359 233 1359 c 2,12,-1
 746 1359 l 2,13,14
 868 1359 868 1359 955 1272 c 0,15,16
 1041 1186 1041 1186 1041 1063 c 2,17,-1
 1041 296 l 2,18,19
 1041 173 1041 173 955 87 c 0,20,21
 868 0 868 0 746 0 c 2,22,-1
 221 0 l 2,23,24
 184 0 184 0 164 19 c 0,25,26
 130 51 130 51 130 79.5 c 128,-1,27
 130 108 130 108 137 124.5 c 128,-1,28
 144 141 144 141 156 154 c 1,29,30
 184 181 184 181 221 181 c 2,31,-1
 333 181 l 1,32,-1
 333 956 l 2,33,34
 333 1051 333 1051 418 1131 c 0,35,36
 427 1139 427 1139 427 1148.5 c 128,-1,37
 427 1158 427 1158 420.5 1168.5 c 128,-1,38
 414 1179 414 1179 395 1179 c 2,39,-1
 282 1179 l 2,40,41
 238 1179 238 1179 214 1152 c 0,42,43
 174 1107 174 1107 174 1060 c 2,44,-1
 174 1003 l 2,0,1
570 181 m 1,45,-1
 689 181 l 2,46,47
 736 181 736 181 762 206 c 0,48,49
 805 247 805 247 805 298 c 2,50,-1
 805 1060 l 2,51,52
 805 1110 805 1110 780 1135 c 0,53,54
 736 1179 736 1179 699 1179 c 128,-1,55
 662 1179 662 1179 640 1169.5 c 128,-1,56
 618 1160 618 1160 602 1144 c 0,57,58
 570 1110 570 1110 570 1061 c 2,59,-1
 570 181 l 1,45,-1
EndSplineSet
EndChar

StartChar: E
Encoding: 69 69 59
Width: 1024
GlyphClass: 2
Flags: W
LayerCount: 2
Fore
SplineSet
520 1379 m 0,0,1
 606 1379 606 1379 674 1359 c 128,-1,2
 742 1339 742 1339 788 1300 c 0,3,4
 884 1221 884 1221 884 1084 c 0,5,6
 884 873 884 873 776 799 c 0,7,8
 743 776 743 776 709.5 776 c 128,-1,9
 676 776 676 776 654.5 785 c 128,-1,10
 633 794 633 794 617 810 c 0,11,12
 583 842 583 842 583 883 c 128,-1,13
 583 924 583 924 596 945.5 c 128,-1,14
 609 967 609 967 625 986 c 0,15,16
 667 1038 667 1038 667 1087 c 128,-1,17
 667 1136 667 1136 629.5 1167 c 128,-1,18
 592 1198 592 1198 529 1198 c 128,-1,19
 466 1198 466 1198 427 1170.5 c 128,-1,20
 388 1143 388 1143 388 1092 c 2,21,-1
 388 785 l 2,22,23
 388 736 388 736 413 710 c 0,24,25
 455 666 455 666 505 666 c 2,26,-1
 523 666 l 2,27,28
 561 666 561 666 586.5 639.5 c 128,-1,29
 612 613 612 613 612 575.5 c 128,-1,30
 612 538 612 538 586.5 512 c 128,-1,31
 561 486 561 486 529.5 486 c 128,-1,32
 498 486 498 486 476.5 477 c 128,-1,33
 455 468 455 468 439 452 c 0,34,35
 405 418 405 418 405 368 c 2,36,-1
 405 298 l 2,37,38
 405 248 405 248 430 223 c 0,39,40
 473 180 473 180 523 180 c 0,41,42
 568 180 568 180 591 204 c 0,43,44
 633 248 633 248 633 284 c 128,-1,45
 633 320 633 320 642 341.5 c 128,-1,46
 651 363 651 363 667 379 c 0,47,48
 702 414 702 414 751 414 c 0,49,50
 799 414 799 414 824 388 c 1,51,52
 868 345 868 345 868 286.5 c 128,-1,53
 868 228 868 228 844.5 173.5 c 128,-1,54
 821 119 821 119 777 80 c 0,55,56
 685 0 685 0 523 0 c 0,57,58
 356 0 356 0 260 80 c 1,59,60
 168 159 168 159 168 294 c 2,61,-1
 168 324 l 2,62,63
 168 460 168 460 252 532 c 0,64,65
 277 554 277 554 309 572 c 1,66,67
 223 606 223 606 187.5 661.5 c 128,-1,68
 152 717 152 717 152 796 c 2,69,-1
 152 1083 l 2,70,71
 152 1220 152 1220 249 1299.5 c 128,-1,72
 346 1379 346 1379 520 1379 c 0,0,1
EndSplineSet
EndChar

StartChar: F
Encoding: 70 70 60
Width: 1025
GlyphClass: 2
Flags: W
LayerCount: 2
Fore
SplineSet
543 1149 m 0,0,1
 543 1179 543 1179 514 1179 c 2,2,-1
 399 1179 l 2,3,4
 355 1179 355 1179 331 1152 c 0,5,6
 291 1107 291 1107 291 1060 c 2,7,-1
 291 1003 l 2,8,9
 291 925 291 925 218 895 c 0,10,11
 196 886 196 886 171.5 886 c 128,-1,12
 147 886 147 886 125.5 895 c 128,-1,13
 104 904 104 904 88 920 c 0,14,15
 54 954 54 954 54 1003 c 2,16,-1
 54 1063 l 2,17,18
 54 1185 54 1185 141 1272 c 128,-1,19
 228 1359 228 1359 350 1359 c 2,20,-1
 936 1359 l 2,21,22
 974 1359 974 1359 999.5 1332.5 c 128,-1,23
 1025 1306 1025 1306 1025 1278 c 128,-1,24
 1025 1250 1025 1250 1018 1233.5 c 128,-1,25
 1011 1217 1011 1217 999 1205 c 0,26,27
 973 1179 973 1179 936 1179 c 2,28,-1
 795 1179 l 2,29,30
 750 1179 750 1179 726 1154 c 0,31,32
 685 1110 685 1110 685 1061 c 2,33,-1
 685 711 l 1,34,-1
 877 711 l 2,35,36
 914 711 914 711 934 692 c 0,37,38
 968 660 968 660 968 631.5 c 128,-1,39
 968 603 968 603 961 586.5 c 128,-1,40
 954 570 954 570 942 558 c 0,41,42
 915 531 915 531 877 531 c 2,43,-1
 685 531 l 1,44,-1
 685 296 l 2,45,46
 685 173 685 173 599 87 c 0,47,48
 512 0 512 0 390 0 c 2,49,-1
 274 0 l 2,50,51
 236 0 236 0 210 26 c 128,-1,52
 184 52 184 52 184 89.5 c 128,-1,53
 184 127 184 127 210 154 c 128,-1,54
 236 181 236 181 274 181 c 2,55,-1
 331 181 l 2,56,57
 380 181 380 181 406 206 c 0,58,59
 449 247 449 247 449 298 c 2,60,-1
 449 531 l 1,61,-1
 405 531 l 2,62,63
 368 531 368 531 348 550 c 0,64,65
 314 582 314 582 314 610.5 c 128,-1,66
 314 639 314 639 321 655.5 c 128,-1,67
 328 672 328 672 340 684 c 0,68,69
 367 711 367 711 405 711 c 2,70,-1
 449 711 l 1,71,-1
 449 956 l 2,72,73
 449 1051 449 1051 534 1131 c 0,74,75
 543 1139 543 1139 543 1149 c 0,0,1
EndSplineSet
EndChar

StartChar: G
Encoding: 71 71 61
Width: 1022
GlyphClass: 2
Flags: W
LayerCount: 2
Fore
SplineSet
646 1027.5 m 128,-1,1
 659 1049 659 1049 659 1077 c 128,-1,2
 659 1105 659 1105 649 1126.5 c 128,-1,3
 639 1148 639 1148 621 1164 c 0,4,5
 582 1199 582 1199 522 1199 c 128,-1,6
 462 1199 462 1199 427.5 1164.5 c 128,-1,7
 393 1130 393 1130 393 1080 c 2,8,-1
 393 268 l 2,9,10
 393 217 393 217 427 189.5 c 128,-1,11
 461 162 461 162 511 162 c 256,12,13
 561 162 561 162 595 189.5 c 128,-1,14
 629 217 629 217 629 268 c 2,15,-1
 629 440 l 2,16,17
 629 490 629 490 654 515 c 0,18,19
 697 558 697 558 734 558 c 128,-1,20
 771 558 771 558 793 549 c 128,-1,21
 815 540 815 540 831 524 c 0,22,23
 866 489 866 489 866 440 c 2,24,-1
 866 -143 l 2,25,26
 866 -266 866 -266 780 -352 c 0,27,28
 693 -439 693 -439 572 -439 c 2,29,-1
 454 -439 l 2,30,31
 416 -439 416 -439 390 -413 c 128,-1,32
 364 -387 364 -387 364 -349.5 c 128,-1,33
 364 -312 364 -312 390 -285 c 128,-1,34
 416 -258 416 -258 454 -258 c 2,35,-1
 511 -258 l 2,36,37
 560 -258 560 -258 586 -234 c 0,38,39
 629 -192 629 -192 629 -141 c 2,40,-1
 629 41 l 2,41,42
 629 60 629 60 618.5 66.5 c 128,-1,43
 608 73 608 73 598 73 c 128,-1,44
 588 73 588 73 580 64 c 1,45,-1
 563 48 l 1,46,47
 495 -20 495 -20 407 -20 c 0,48,49
 300 -20 300 -20 228 68 c 1,50,51
 156 154 156 154 156 276 c 2,52,-1
 156 1085 l 2,53,54
 156 1220 156 1220 248 1298 c 0,55,56
 344 1379 344 1379 511 1379 c 0,57,58
 683 1379 683 1379 780 1298 c 0,59,60
 876 1219 876 1219 876 1084 c 0,61,62
 876 873 876 873 768 799 c 0,63,64
 735 776 735 776 701.5 776 c 128,-1,65
 668 776 668 776 646.5 785 c 128,-1,66
 625 794 625 794 609 810 c 0,67,68
 575 842 575 842 575 883 c 128,-1,69
 575 924 575 924 588 945.5 c 128,-1,70
 601 967 601 967 617 986.5 c 128,-1,0
 633 1006 633 1006 646 1027.5 c 128,-1,1
EndSplineSet
EndChar

StartChar: H
Encoding: 72 72 62
Width: 1364
GlyphClass: 2
Flags: W
LayerCount: 2
Fore
SplineSet
309 488.5 m 128,-1,1
 302 505 302 505 302 533 c 128,-1,2
 302 561 302 561 327.5 587.5 c 128,-1,3
 353 614 353 614 390 614 c 2,4,-1
 460 614 l 1,5,-1
 460 1179 l 1,6,-1
 415 1179 l 2,7,8
 364 1179 364 1179 332.5 1146 c 128,-1,9
 301 1113 301 1113 301 1060 c 2,10,-1
 301 1003 l 2,11,12
 301 925 301 925 228 895 c 0,13,14
 206 886 206 886 181.5 886 c 128,-1,15
 157 886 157 886 135.5 895 c 128,-1,16
 114 904 114 904 98 920 c 0,17,18
 64 954 64 954 64 1003 c 2,19,-1
 64 1063 l 2,20,21
 64 1186 64 1186 152 1272 c 0,22,23
 240 1359 240 1359 360 1359 c 2,24,-1
 578 1359 l 2,25,26
 627 1359 627 1359 652 1334 c 0,27,28
 696 1290 696 1290 696 1239 c 2,29,-1
 696 614 l 1,30,-1
 935 614 l 1,31,-1
 935 1239 l 2,32,33
 935 1318 935 1318 1006 1350 c 0,34,35
 1028 1359 1028 1359 1053.5 1359 c 128,-1,36
 1079 1359 1079 1359 1100 1349.5 c 128,-1,37
 1121 1340 1121 1340 1137 1324 c 0,38,39
 1171 1290 1171 1290 1171 1239 c 2,40,-1
 1171 117 l 2,41,42
 1171 42 1171 42 1100 10 c 0,43,44
 1079 0 1079 0 1053.5 0 c 128,-1,45
 1028 0 1028 0 1006.5 9.5 c 128,-1,46
 985 19 985 19 969 34 c 0,47,48
 935 67 935 67 935 117 c 2,49,-1
 935 433 l 1,50,-1
 696 433 l 1,51,-1
 696 296 l 2,52,53
 696 173 696 173 610 87 c 0,54,55
 523 0 523 0 401 0 c 2,56,-1
 285 0 l 2,57,58
 247 0 247 0 221 26 c 128,-1,59
 195 52 195 52 195 89.5 c 128,-1,60
 195 127 195 127 221 154 c 128,-1,61
 247 181 247 181 285 181 c 2,62,-1
 342 181 l 2,63,64
 391 181 391 181 417 206 c 0,65,66
 460 247 460 247 460 298 c 2,67,-1
 460 433 l 1,68,-1
 390 433 l 2,69,70
 355 433 355 433 335.5 452.5 c 128,-1,0
 316 472 316 472 309 488.5 c 128,-1,1
EndSplineSet
EndChar

StartChar: I
Encoding: 73 73 63
Width: 855
GlyphClass: 2
Flags: W
LayerCount: 2
Fore
SplineSet
267 1003 m 2,0,1
 267 925 267 925 194 895 c 0,2,3
 172 886 172 886 147.5 886 c 128,-1,4
 123 886 123 886 101.5 895 c 128,-1,5
 80 904 80 904 64 920 c 0,6,7
 30 954 30 954 30 1003 c 2,8,-1
 30 1063 l 2,9,10
 30 1186 30 1186 118 1272 c 0,11,12
 206 1359 206 1359 326 1359 c 2,13,-1
 544 1359 l 2,14,15
 593 1359 593 1359 618 1334 c 0,16,17
 662 1290 662 1290 662 1239 c 2,18,-1
 662 296 l 2,19,20
 662 173 662 173 576 87 c 0,21,22
 489 0 489 0 367 0 c 2,23,-1
 251 0 l 2,24,25
 213 0 213 0 187 26 c 128,-1,26
 161 52 161 52 161 89.5 c 128,-1,27
 161 127 161 127 187 154 c 128,-1,28
 213 181 213 181 251 181 c 2,29,-1
 308 181 l 2,30,31
 357 181 357 181 383 206 c 0,32,33
 426 247 426 247 426 298 c 2,34,-1
 426 1179 l 1,35,-1
 381 1179 l 2,36,37
 333 1179 333 1179 308 1153 c 0,38,39
 267 1109 267 1109 267 1060 c 2,40,-1
 267 1003 l 2,0,1
EndSplineSet
EndChar

StartChar: J
Encoding: 74 74 64
Width: 855
GlyphClass: 2
Flags: W
LayerCount: 2
Fore
SplineSet
436 1179 m 1,0,-1
 405 1179 l 2,1,2
 355 1179 355 1179 330 1154 c 0,3,4
 286 1110 286 1110 286 1060 c 2,5,-1
 286 1003 l 2,6,7
 286 925 286 925 213 895 c 0,8,9
 191 886 191 886 166.5 886 c 128,-1,10
 142 886 142 886 120.5 895 c 128,-1,11
 99 904 99 904 84 920 c 1,12,13
 49 954 49 954 49 1003 c 2,14,-1
 49 1063 l 2,15,16
 49 1186 49 1186 136 1272 c 0,17,18
 225 1359 225 1359 345 1359 c 2,19,-1
 554 1359 l 2,20,21
 603 1359 603 1359 628 1334 c 0,22,23
 672 1290 672 1290 672 1239 c 2,24,-1
 672 -178 l 2,25,26
 672 -300 672 -300 585 -387 c 128,-1,27
 498 -474 498 -474 375 -474 c 2,28,-1
 219 -474 l 2,29,30
 161 -474 161 -474 136 -420 c 0,31,32
 129 -403 129 -403 129 -384 c 0,33,34
 129 -348 129 -348 148 -327 c 0,35,36
 181 -293 181 -293 219 -293 c 2,37,-1
 317 -293 l 2,38,39
 367 -293 367 -293 392 -268 c 0,40,41
 436 -224 436 -224 436 -176 c 2,42,-1
 436 1179 l 1,0,-1
EndSplineSet
EndChar

StartChar: K
Encoding: 75 75 65
Width: 1360
GlyphClass: 2
Flags: W
LayerCount: 2
Fore
SplineSet
1003 634 m 1,0,1
 1151 576 1151 576 1151 414 c 2,2,-1
 1151 385 l 2,3,4
 1151 152 1151 152 1256 17 c 0,5,6
 1288 -25 1288 -25 1316 -56 c 0,7,8
 1360 -105 1360 -105 1360 -147 c 0,9,10
 1360 -213 1360 -213 1300 -239 c 0,11,12
 1281 -247 1281 -247 1264 -247 c 0,13,14
 1203 -247 1203 -247 1135 -185 c 128,-1,15
 1067 -123 1067 -123 1022 -43 c 0,16,17
 913 148 913 148 913 425 c 0,18,19
 913 474 913 474 888 500 c 0,20,21
 846 544 846 544 796 544 c 2,22,-1
 679 544 l 1,23,-1
 679 98 l 2,24,25
 679 50 679 50 654 24 c 1,26,27
 610 -19 610 -19 573 -19 c 128,-1,28
 536 -19 536 -19 514 -9.5 c 128,-1,29
 492 0 492 0 476 16 c 0,30,31
 441 49 441 49 441 98 c 2,32,-1
 441 1179 l 1,33,-1
 389 1179 l 2,34,35
 345 1179 345 1179 321 1152 c 0,36,37
 281 1107 281 1107 281 1060 c 2,38,-1
 281 1003 l 2,39,40
 281 925 281 925 208 895 c 0,41,42
 186 886 186 886 161.5 886 c 128,-1,43
 137 886 137 886 115.5 895 c 128,-1,44
 94 904 94 904 78 920 c 0,45,46
 44 954 44 954 44 1003 c 2,47,-1
 44 1063 l 2,48,49
 44 1185 44 1185 131 1272 c 128,-1,50
 218 1359 218 1359 340 1359 c 2,51,-1
 561 1359 l 2,52,53
 611 1359 611 1359 635 1334 c 0,54,55
 679 1288 679 1288 679 1239 c 2,56,-1
 679 724 l 1,57,-1
 795 724 l 2,58,59
 843 724 843 724 868 750 c 1,60,61
 912 793 912 793 912 844 c 2,62,-1
 912 1239 l 2,63,64
 912 1288 912 1288 938 1315 c 0,65,66
 980 1359 980 1359 1032 1359 c 0,67,68
 1082 1359 1082 1359 1106 1334 c 0,69,70
 1150 1288 1150 1288 1150 1239 c 2,71,-1
 1150 886 l 2,72,73
 1150 745 1150 745 1063 674 c 0,74,75
 1036 652 1036 652 1003 634 c 1,0,1
EndSplineSet
EndChar

StartChar: L
Encoding: 76 76 66
Width: 1025
GlyphClass: 2
Flags: W
LayerCount: 2
Fore
SplineSet
360 210 m 0,0,1
 360 180 360 180 389 180 c 2,2,-1
 638 180 l 2,3,4
 682 180 682 180 705 206 c 0,5,6
 746 251 746 251 746 287 c 128,-1,7
 746 323 746 323 755 344 c 128,-1,8
 764 365 764 365 780 381 c 0,9,10
 816 415 816 415 853 415 c 128,-1,11
 890 415 890 415 911.5 406 c 128,-1,12
 933 397 933 397 949 381 c 0,13,14
 983 347 983 347 983 291 c 128,-1,15
 983 235 983 235 959.5 181 c 128,-1,16
 936 127 936 127 896 87 c 0,17,18
 809 0 809 0 687 0 c 2,19,-1
 98 0 l 2,20,21
 63 0 63 0 44 20 c 1,22,23
 10 53 10 53 10 90.5 c 128,-1,24
 10 128 10 128 35.5 154.5 c 128,-1,25
 61 181 61 181 92 181 c 128,-1,26
 123 181 123 181 144.5 189.5 c 128,-1,27
 166 198 166 198 182 213 c 0,28,29
 216 245 216 245 216 293 c 2,30,-1
 216 1063 l 2,31,32
 216 1186 216 1186 304 1272 c 0,33,34
 392 1359 392 1359 512 1359 c 2,35,-1
 658 1359 l 2,36,37
 717 1359 717 1359 741 1304 c 0,38,39
 748 1287 748 1287 748 1259 c 128,-1,40
 748 1231 748 1231 722 1205 c 128,-1,41
 696 1179 696 1179 658 1179 c 2,42,-1
 572 1179 l 2,43,44
 522 1179 522 1179 496 1154 c 1,45,46
 453 1110 453 1110 453 1060 c 2,47,-1
 453 402 l 2,48,49
 453 314 453 314 385 246 c 1,50,51
 360 224 360 224 360 210 c 0,0,1
EndSplineSet
EndChar

StartChar: M
Encoding: 77 77 67
Width: 1706
GlyphClass: 2
Flags: W
LayerCount: 2
Fore
SplineSet
185 1003 m 2,0,1
 185 925 185 925 112 895 c 0,2,3
 90 886 90 886 65.5 886 c 128,-1,4
 41 886 41 886 19.5 895 c 128,-1,5
 -2 904 -2 904 -18 920 c 0,6,7
 -52 954 -52 954 -52 1003 c 2,8,-1
 -52 1063 l 2,9,10
 -52 1186 -52 1186 36 1272 c 0,11,12
 124 1359 124 1359 244 1359 c 2,13,-1
 462 1359 l 2,14,15
 526 1359 526 1359 563 1302 c 0,16,17
 574 1286 574 1286 586.5 1286 c 128,-1,18
 599 1286 599 1286 608 1294 c 2,19,-1
 625 1311 l 1,20,21
 680 1359 680 1359 722 1369 c 128,-1,22
 764 1379 764 1379 809.5 1379 c 128,-1,23
 855 1379 855 1379 906 1350 c 128,-1,24
 957 1321 957 1321 995 1273 c 0,25,26
 1004 1262 1004 1262 1016 1262 c 0,27,28
 1036 1262 1036 1262 1057.5 1294.5 c 128,-1,29
 1079 1327 1079 1327 1128 1353 c 128,-1,30
 1177 1379 1177 1379 1241 1379 c 128,-1,31
 1305 1379 1305 1379 1357.5 1355.5 c 128,-1,32
 1410 1332 1410 1332 1448 1292 c 0,33,34
 1531 1206 1531 1206 1531 1083 c 2,35,-1
 1531 98 l 2,36,37
 1531 22 1531 22 1459 -10 c 0,38,39
 1437 -19 1437 -19 1412.5 -19 c 128,-1,40
 1388 -19 1388 -19 1366.5 -9.5 c 128,-1,41
 1345 0 1345 0 1330 16 c 1,42,43
 1295 50 1295 50 1295 98 c 2,44,-1
 1295 1080 l 2,45,46
 1295 1129 1295 1129 1270 1154 c 0,47,48
 1225 1199 1225 1199 1187.5 1199 c 128,-1,49
 1150 1199 1150 1199 1129 1189.5 c 128,-1,50
 1108 1180 1108 1180 1092 1164 c 0,51,52
 1056 1128 1056 1128 1056 1082 c 2,53,-1
 1056 98 l 2,54,55
 1056 22 1056 22 984 -10 c 0,56,57
 963 -19 963 -19 938.5 -19 c 128,-1,58
 914 -19 914 -19 892 -9.5 c 128,-1,59
 870 0 870 0 854 16 c 0,60,61
 819 49 819 49 819 98 c 2,62,-1
 819 1080 l 2,63,64
 819 1129 819 1129 794 1154 c 0,65,66
 749 1199 749 1199 701 1199 c 0,67,68
 652 1199 652 1199 626 1176 c 0,69,70
 580 1134 580 1134 580 1079 c 2,71,-1
 580 296 l 2,72,73
 580 173 580 173 494 87 c 0,74,75
 407 0 407 0 285 0 c 2,76,-1
 199 0 l 2,77,78
 161 0 161 0 135 26 c 128,-1,79
 109 52 109 52 109 89.5 c 128,-1,80
 109 127 109 127 135 154 c 128,-1,81
 161 181 161 181 199 181 c 2,82,-1
 226 181 l 2,83,84
 275 181 275 181 301 206 c 0,85,86
 344 247 344 247 344 298 c 2,87,-1
 344 1179 l 1,88,-1
 299 1179 l 1,89,90
 251 1177 251 1177 227 1152 c 0,91,92
 185 1108 185 1108 185 1060 c 2,93,-1
 185 1003 l 2,0,1
EndSplineSet
EndChar

StartChar: N
Encoding: 78 78 68
Width: 1193
GlyphClass: 2
Flags: W
LayerCount: 2
Fore
SplineSet
192 1003 m 2,0,1
 192 925 192 925 119 895 c 0,2,3
 97 886 97 886 72.5 886 c 128,-1,4
 48 886 48 886 26.5 895 c 128,-1,5
 5 904 5 904 -10 920 c 1,6,7
 -45 954 -45 954 -45 1003 c 2,8,-1
 -45 1063 l 2,9,10
 -45 1186 -45 1186 42 1272 c 0,11,12
 131 1359 131 1359 251 1359 c 2,13,-1
 451 1359 l 2,14,15
 510 1359 510 1359 546 1310 c 1,16,17
 561 1286 561 1286 574.5 1286 c 128,-1,18
 588 1286 588 1286 596 1294 c 2,19,-1
 614 1311 l 2,20,21
 687 1379 687 1379 782 1379 c 0,22,23
 890 1379 890 1379 968 1292 c 0,24,25
 1044 1206 1044 1206 1044 1083 c 2,26,-1
 1045 98 l 2,27,28
 1045 22 1045 22 974 -10 c 0,29,30
 952 -19 952 -19 927.5 -19 c 128,-1,31
 903 -19 903 -19 881 -9.5 c 128,-1,32
 859 0 859 0 843 16 c 0,33,34
 808 49 808 49 808 98 c 2,35,-1
 807 1080 l 2,36,37
 807 1130 807 1130 782 1155 c 0,38,39
 738 1199 738 1199 690 1199 c 256,40,41
 642 1199 642 1199 616 1176 c 0,42,43
 569 1134 569 1134 569 1087 c 2,44,-1
 569 296 l 2,45,46
 569 173 569 173 483 87 c 0,47,48
 396 0 396 0 274 0 c 2,49,-1
 188 0 l 2,50,51
 150 0 150 0 124 26 c 128,-1,52
 98 52 98 52 98 89.5 c 128,-1,53
 98 127 98 127 124 154 c 128,-1,54
 150 181 150 181 188 181 c 2,55,-1
 215 181 l 2,56,57
 264 181 264 181 290 206 c 0,58,59
 333 247 333 247 333 298 c 2,60,-1
 333 1179 l 1,61,-1
 306 1179 l 1,62,63
 258 1177 258 1177 234 1152 c 0,64,65
 192 1108 192 1108 192 1060 c 2,66,-1
 192 1003 l 2,0,1
EndSplineSet
EndChar

StartChar: O
Encoding: 79 79 69
Width: 1022
GlyphClass: 2
Flags: W
LayerCount: 2
Fore
SplineSet
373 1126.5 m 128,-1,1
 363 1105 363 1105 363 1077 c 128,-1,2
 363 1049 363 1049 376 1027.5 c 128,-1,3
 389 1006 389 1006 405 986 c 0,4,5
 447 935 447 935 447 901.5 c 128,-1,6
 447 868 447 868 438 846.5 c 128,-1,7
 429 825 429 825 413 810 c 0,8,9
 378 776 378 776 332.5 776 c 128,-1,10
 287 776 287 776 253.5 799 c 128,-1,11
 220 822 220 822 196 862 c 0,12,13
 146 947 146 947 146 1084 c 0,14,15
 146 1219 146 1219 242 1298 c 0,16,17
 339 1379 339 1379 511 1379 c 0,18,19
 678 1379 678 1379 774 1298 c 0,20,21
 866 1220 866 1220 866 1085 c 2,22,-1
 866 277 l 2,23,24
 866 140 866 140 772 60 c 0,25,26
 679 -19 679 -19 511 -19 c 256,27,28
 343 -19 343 -19 248 60 c 0,29,30
 156 137 156 137 156 274 c 2,31,-1
 156 600 l 2,32,33
 156 649 156 649 182 674 c 1,34,35
 225 718 225 718 262.5 718 c 128,-1,36
 300 718 300 718 321.5 709 c 128,-1,37
 343 700 343 700 359 684 c 0,38,39
 393 650 393 650 393 600 c 2,40,-1
 393 268 l 2,41,42
 393 217 393 217 427 189.5 c 128,-1,43
 461 162 461 162 511.5 162 c 128,-1,44
 562 162 562 162 595.5 189.5 c 128,-1,45
 629 217 629 217 629 268 c 2,46,-1
 629 1080 l 2,47,48
 629 1130 629 1130 594.5 1164.5 c 128,-1,49
 560 1199 560 1199 515.5 1199 c 128,-1,50
 471 1199 471 1199 445 1189.5 c 128,-1,51
 419 1180 419 1180 401 1164 c 128,-1,0
 383 1148 383 1148 373 1126.5 c 128,-1,1
EndSplineSet
EndChar

StartChar: P
Encoding: 80 80 70
Width: 1193
GlyphClass: 2
Flags: W
LayerCount: 2
Fore
SplineSet
-54 1063 m 2,0,1
 -54 1185 -54 1185 33 1272 c 128,-1,2
 120 1359 120 1359 242 1359 c 2,3,-1
 765 1359 l 2,4,5
 886 1359 886 1359 971 1272 c 0,6,7
 1054 1187 1054 1187 1054 1063 c 2,8,-1
 1054 770 l 2,9,10
 1054 646 1054 646 968 560 c 128,-1,11
 882 474 882 474 759 474 c 2,12,-1
 579 474 l 1,13,-1
 579 98 l 2,14,15
 579 22 579 22 508 -10 c 0,16,17
 486 -19 486 -19 461.5 -19 c 128,-1,18
 437 -19 437 -19 415 -9.5 c 128,-1,19
 393 0 393 0 377 16 c 0,20,21
 342 49 342 49 342 98 c 2,22,-1
 342 956 l 2,23,24
 342 1051 342 1051 428 1131 c 0,25,26
 436 1139 436 1139 436 1148.5 c 128,-1,27
 436 1158 436 1158 429.5 1168.5 c 128,-1,28
 423 1179 423 1179 404 1179 c 2,29,-1
 291 1179 l 2,30,31
 247 1179 247 1179 223 1152 c 0,32,33
 183 1107 183 1107 183 1060 c 2,34,-1
 183 1003 l 2,35,36
 183 925 183 925 110 895 c 0,37,38
 88 886 88 886 63.5 886 c 128,-1,39
 39 886 39 886 17.5 895 c 128,-1,40
 -4 904 -4 904 -20 920 c 0,41,42
 -54 954 -54 954 -54 1003 c 2,43,-1
 -54 1063 l 2,0,1
579 652 m 1,44,-1
 701 652 l 2,45,46
 750 652 750 652 774 678 c 1,47,48
 818 723 818 723 818 772 c 2,49,-1
 818 1060 l 2,50,51
 818 1108 818 1108 793 1134 c 0,52,53
 751 1179 751 1179 713 1179 c 128,-1,54
 675 1179 675 1179 652.5 1169.5 c 128,-1,55
 630 1160 630 1160 614 1144 c 0,56,57
 579 1111 579 1111 579 1061 c 2,58,-1
 579 652 l 1,44,-1
EndSplineSet
EndChar

StartChar: Q
Encoding: 81 81 71
Width: 1022
GlyphClass: 2
Flags: W
LayerCount: 2
Fore
SplineSet
773 211 m 0,0,1
 773 181 773 181 802 181 c 2,2,-1
 866 181 l 2,3,4
 923 181 923 181 948 126 c 0,5,6
 956 109 956 109 956 90 c 0,7,8
 956 31 956 31 900 7 c 0,9,10
 884 0 884 0 866 0 c 2,11,-1
 250 0 l 2,12,13
 215 0 215 0 196 20 c 1,14,15
 162 53 162 53 162 90.5 c 128,-1,16
 162 128 162 128 187.5 154.5 c 128,-1,17
 213 181 213 181 250 181 c 2,18,-1
 511 181 l 2,19,20
 559 181 559 181 594 207 c 128,-1,21
 629 233 629 233 629 282 c 2,22,-1
 629 1080 l 2,23,24
 629 1130 629 1130 604 1155 c 0,25,26
 560 1199 560 1199 522 1199 c 128,-1,27
 484 1199 484 1199 460.5 1189.5 c 128,-1,28
 437 1180 437 1180 420 1164 c 0,29,30
 383 1131 383 1131 383 1080 c 2,31,-1
 383 668 l 2,32,33
 383 626 383 626 412 590.5 c 128,-1,34
 441 555 441 555 454 533.5 c 128,-1,35
 467 512 467 512 467 484 c 128,-1,36
 467 456 467 456 458 434.5 c 128,-1,37
 449 413 449 413 433 398 c 0,38,39
 398 364 398 364 349 364 c 0,40,41
 261 364 261 364 208.5 443.5 c 128,-1,42
 156 523 156 523 156 672 c 2,43,-1
 156 1085 l 2,44,45
 156 1220 156 1220 248 1298 c 0,46,47
 344 1379 344 1379 511 1379 c 0,48,49
 677 1379 677 1379 772 1298 c 0,50,51
 866 1219 866 1219 866 1083 c 2,52,-1
 866 403 l 2,53,54
 866 315 866 315 798 247 c 1,55,-1
 782 230 l 1,56,57
 773 222 773 222 773 211 c 0,0,1
EndSplineSet
EndChar

StartChar: R
Encoding: 82 82 72
Width: 1191
GlyphClass: 2
Flags: W
LayerCount: 2
Fore
SplineSet
888 634 m 1,0,1
 1036 576 1036 576 1036 414 c 2,2,-1
 1036 385 l 2,3,4
 1036 152 1036 152 1141 14 c 0,5,6
 1173 -28 1173 -28 1202 -58 c 0,7,8
 1246 -104 1246 -104 1246 -146 c 0,9,10
 1246 -186 1246 -186 1224 -209 c 0,11,12
 1188 -247 1188 -247 1153 -247 c 128,-1,13
 1118 -247 1118 -247 1086.5 -232 c 128,-1,14
 1055 -217 1055 -217 1003.5 -170 c 128,-1,15
 952 -123 952 -123 906 -43 c 0,16,17
 798 148 798 148 798 425 c 0,18,19
 798 474 798 474 773 500 c 0,20,21
 731 544 731 544 681 544 c 2,22,-1
 563 544 l 1,23,-1
 563 98 l 2,24,25
 563 22 563 22 492 -10 c 0,26,27
 470 -19 470 -19 445.5 -19 c 128,-1,28
 421 -19 421 -19 399 -9.5 c 128,-1,29
 377 0 377 0 361 16 c 0,30,31
 326 49 326 49 326 98 c 2,32,-1
 326 956 l 2,33,34
 326 1048 326 1048 394 1113 c 1,35,-1
 412 1131 l 2,36,37
 420 1140 420 1140 420 1149 c 256,38,39
 420 1158 420 1158 413.5 1168.5 c 128,-1,40
 407 1179 407 1179 388 1179 c 2,41,-1
 275 1179 l 2,42,43
 231 1179 231 1179 207 1152 c 0,44,45
 167 1107 167 1107 167 1060 c 2,46,-1
 167 1003 l 2,47,48
 167 925 167 925 94 895 c 0,49,50
 72 886 72 886 47.5 886 c 128,-1,51
 23 886 23 886 1.5 895 c 128,-1,52
 -20 904 -20 904 -36 920 c 0,53,54
 -70 954 -70 954 -70 1003 c 2,55,-1
 -70 1063 l 2,56,57
 -70 1185 -70 1185 17 1272 c 128,-1,58
 104 1359 104 1359 226 1359 c 2,59,-1
 745 1359 l 2,60,61
 865 1359 865 1359 950 1272 c 0,62,63
 1034 1186 1034 1186 1034 1063 c 2,64,-1
 1035 886 l 1,65,66
 1037 712 1037 712 888 634 c 1,0,1
563 724 m 1,67,-1
 680 724 l 2,68,69
 729 724 729 724 754 750 c 1,70,71
 798 793 798 793 798 844 c 2,72,-1
 798 1060 l 2,73,74
 798 1108 798 1108 773 1134 c 0,75,76
 731 1179 731 1179 679.5 1178.5 c 128,-1,77
 628 1178 628 1178 595.5 1144 c 128,-1,78
 563 1110 563 1110 563 1061 c 2,79,-1
 563 724 l 1,67,-1
EndSplineSet
EndChar

StartChar: S
Encoding: 83 83 73
Width: 1026
GlyphClass: 2
Flags: W
LayerCount: 2
Fore
SplineSet
609 1032.5 m 128,-1,1
 622 1052 622 1052 622 1078.5 c 128,-1,2
 622 1105 622 1105 612.5 1126.5 c 128,-1,3
 603 1148 603 1148 586 1164 c 0,4,5
 547 1199 547 1199 503 1199 c 128,-1,6
 459 1199 459 1199 432.5 1186 c 128,-1,7
 406 1173 406 1173 386 1149 c 0,8,9
 344 1099 344 1099 344 1013 c 0,10,11
 344 901 344 901 411 814 c 0,12,13
 431 788 431 788 454 770 c 2,14,-1
 681 588 l 1,15,16
 820 472 820 472 820 312 c 0,17,18
 820 180 820 180 723 88 c 0,19,20
 629 0 629 0 504 0 c 2,21,-1
 363 0 l 2,22,23
 326 0 326 0 299 26 c 128,-1,24
 272 52 272 52 272 80 c 128,-1,25
 272 108 272 108 279.5 124.5 c 128,-1,26
 287 141 287 141 300 154 c 0,27,28
 327 181 327 181 363 181 c 2,29,-1
 447 181 l 2,30,31
 508 181 508 181 545 212.5 c 128,-1,32
 582 244 582 244 582 287 c 0,33,34
 582 358 582 358 519 415 c 1,35,-1
 348 555 l 2,36,37
 226 654 226 654 176 741 c 0,38,39
 120 840 120 840 120 995 c 0,40,41
 120 1176 120 1176 219 1278 c 0,42,43
 316 1379 316 1379 490 1379 c 0,44,45
 653 1379 653 1379 746 1297.5 c 128,-1,46
 839 1216 839 1216 839 1074 c 0,47,48
 839 954 839 954 789 876 c 0,49,50
 738 796 738 796 656 796 c 0,51,52
 607 796 607 796 581 820 c 0,53,54
 538 862 538 862 538 901.5 c 128,-1,55
 538 941 538 941 551 960 c 128,-1,56
 564 979 564 979 580 996 c 128,-1,0
 596 1013 596 1013 609 1032.5 c 128,-1,1
EndSplineSet
EndChar

StartChar: T
Encoding: 84 84 74
Width: 855
GlyphClass: 2
Flags: W
LayerCount: 2
Fore
SplineSet
500 956 m 2,0,1
 500 1051 500 1051 586 1131 c 0,2,3
 594 1139 594 1139 594 1148.5 c 128,-1,4
 594 1158 594 1158 587.5 1168.5 c 128,-1,5
 581 1179 581 1179 562 1179 c 2,6,-1
 344 1179 l 2,7,8
 300 1179 300 1179 276 1152 c 0,9,10
 236 1107 236 1107 236 1060 c 2,11,-1
 236 1003 l 2,12,13
 236 925 236 925 163 895 c 0,14,15
 141 886 141 886 116.5 886 c 128,-1,16
 92 886 92 886 70.5 895 c 128,-1,17
 49 904 49 904 34 920 c 1,18,19
 -1 954 -1 954 -1 1003 c 2,20,-1
 -1 1063 l 2,21,22
 -1 1185 -1 1185 86 1272 c 128,-1,23
 173 1359 173 1359 295 1359 c 2,24,-1
 846 1359 l 2,25,26
 884 1359 884 1359 909.5 1332.5 c 128,-1,27
 935 1306 935 1306 935 1278 c 128,-1,28
 935 1250 935 1250 928 1233.5 c 128,-1,29
 921 1217 921 1217 909 1205 c 0,30,31
 883 1179 883 1179 853 1179 c 128,-1,32
 823 1179 823 1179 803 1169.5 c 128,-1,33
 783 1160 783 1160 768 1144 c 0,34,35
 736 1110 736 1110 736 1061 c 2,36,-1
 736 296 l 2,37,38
 736 173 736 173 650 87 c 0,39,40
 563 0 563 0 441 0 c 2,41,-1
 325 0 l 2,42,43
 287 0 287 0 261 26 c 128,-1,44
 235 52 235 52 235 89.5 c 128,-1,45
 235 127 235 127 261 154 c 128,-1,46
 287 181 287 181 325 181 c 2,47,-1
 382 181 l 2,48,49
 431 181 431 181 457 206 c 0,50,51
 500 247 500 247 500 298 c 2,52,-1
 500 956 l 2,0,1
EndSplineSet
EndChar

StartChar: U
Encoding: 85 85 75
Width: 1362
GlyphClass: 2
Flags: W
LayerCount: 2
Fore
SplineSet
1007.5 1369.5 m 128,-1,1
 1029 1379 1029 1379 1053.5 1379 c 128,-1,2
 1078 1379 1078 1379 1099.5 1369.5 c 128,-1,3
 1121 1360 1121 1360 1137 1344 c 0,4,5
 1172 1311 1172 1311 1172 1262 c 2,6,-1
 1172 101 l 2,7,8
 1172 52 1172 52 1146 25 c 0,9,10
 1081 -42 1081 -42 1008 -11 c 0,11,12
 967 6 967 6 946 49 c 0,13,14
 934 74 934 74 920 74 c 128,-1,15
 906 74 906 74 898 66 c 2,16,-1
 880 49 l 2,17,18
 852 23 852 23 816 2 c 128,-1,19
 780 -19 780 -19 724.5 -19 c 128,-1,20
 669 -19 669 -19 621 4.5 c 128,-1,21
 573 28 573 28 538 68 c 0,22,23
 461 154 461 154 461 277 c 2,24,-1
 461 1179 l 1,25,-1
 415 1179 l 2,26,27
 367 1179 367 1179 342 1153 c 0,28,29
 301 1109 301 1109 301 1060 c 2,30,-1
 301 1003 l 2,31,32
 301 925 301 925 228 895 c 0,33,34
 206 886 206 886 181.5 886 c 128,-1,35
 157 886 157 886 135.5 895 c 128,-1,36
 114 904 114 904 98 920 c 0,37,38
 64 952 64 952 64 1003 c 2,39,-1
 64 1063 l 2,40,41
 64 1185 64 1185 151 1272 c 128,-1,42
 238 1359 238 1359 360 1359 c 2,43,-1
 578 1359 l 2,44,45
 627 1359 627 1359 653 1334 c 0,46,47
 698 1291 698 1291 698 1242 c 2,48,-1
 698 280 l 2,49,50
 698 230 698 230 723 205 c 0,51,52
 767 161 767 161 815 161 c 0,53,54
 894 161 894 161 925 223 c 0,55,56
 935 243 935 243 935 268 c 2,57,-1
 935 1262 l 2,58,59
 935 1311 935 1311 960.5 1335.5 c 128,-1,0
 986 1360 986 1360 1007.5 1369.5 c 128,-1,1
EndSplineSet
EndChar

StartChar: V
Encoding: 86 86 76
Width: 1193
GlyphClass: 2
Flags: W
LayerCount: 2
Fore
SplineSet
173 1003 m 2,0,1
 173 925 173 925 100 895 c 0,2,3
 78 886 78 886 53.5 886 c 128,-1,4
 29 886 29 886 7.5 895 c 128,-1,5
 -14 904 -14 904 -30 920 c 0,6,7
 -64 954 -64 954 -64 1003 c 2,8,-1
 -64 1063 l 2,9,10
 -64 1186 -64 1186 24 1272 c 0,11,12
 112 1359 112 1359 232 1359 c 2,13,-1
 440 1359 l 2,14,15
 483 1359 483 1359 519.5 1335.5 c 128,-1,16
 556 1312 556 1312 565 1268 c 2,17,-1
 662 803 l 2,18,19
 669 768 669 768 680.5 715.5 c 128,-1,20
 692 663 692 663 704 598 c 0,21,22
 731 460 731 460 747 311 c 1,23,24
 773 556 773 556 827 800 c 1,25,-1
 928 1268 l 2,26,27
 936 1308 936 1308 968 1330 c 0,28,29
 1025 1368 1025 1368 1069 1357 c 128,-1,30
 1113 1346 1113 1346 1137 1314.5 c 128,-1,31
 1161 1283 1161 1283 1161 1253 c 128,-1,32
 1161 1223 1161 1223 1157 1208 c 2,33,-1
 871 78 l 2,34,35
 860 36 860 36 827.5 8.5 c 128,-1,36
 795 -19 795 -19 759.5 -19 c 128,-1,37
 724 -19 724 -19 703.5 -11 c 128,-1,38
 683 -3 683 -3 666 10 c 0,39,40
 631 39 631 39 621 81 c 2,41,-1
 342 1179 l 1,42,-1
 287 1179 l 2,43,44
 239 1179 239 1179 214 1153 c 0,45,46
 173 1109 173 1109 173 1060 c 2,47,-1
 173 1003 l 2,0,1
EndSplineSet
EndChar

StartChar: W
Encoding: 87 87 77
Width: 1706
GlyphClass: 2
Flags: W
LayerCount: 2
Fore
SplineSet
1287 1259 m 2,0,1
 1287 1308 1287 1308 1312 1335 c 0,2,3
 1355 1379 1355 1379 1407 1379 c 0,4,5
 1457 1379 1457 1379 1481 1354 c 0,6,7
 1524 1309 1524 1309 1524 1259 c 2,8,-1
 1523 274 l 2,9,10
 1523 141 1523 141 1430 60 c 0,11,12
 1340 -19 1340 -19 1198 -19 c 0,13,14
 1039 -19 1039 -19 955 81 c 0,15,16
 944 93 944 93 932 93 c 128,-1,17
 920 93 920 93 909 81 c 0,18,19
 825 -19 825 -19 665 -19 c 0,20,21
 523 -19 523 -19 434 60 c 0,22,23
 340 143 340 143 340 277 c 2,24,-1
 340 1179 l 1,25,-1
 297 1179 l 2,26,27
 249 1179 249 1179 224 1153 c 0,28,29
 183 1109 183 1109 183 1060 c 2,30,-1
 183 1003 l 2,31,32
 183 925 183 925 110 895 c 0,33,34
 88 886 88 886 63.5 886 c 128,-1,35
 39 886 39 886 17.5 895 c 128,-1,36
 -4 904 -4 904 -20 920 c 0,37,38
 -54 954 -54 954 -54 1003 c 2,39,-1
 -54 1063 l 2,40,41
 -54 1186 -54 1186 34 1272 c 0,42,43
 122 1359 122 1359 242 1359 c 2,44,-1
 460 1359 l 2,45,46
 510 1359 510 1359 534 1334 c 0,47,48
 577 1289 577 1289 577 1239 c 2,49,-1
 577 268 l 2,50,51
 577 217 577 217 610.5 189.5 c 128,-1,52
 644 162 644 162 693.5 162 c 128,-1,53
 743 162 743 162 778 188.5 c 128,-1,54
 813 215 813 215 813 268 c 2,55,-1
 813 1259 l 2,56,57
 813 1308 813 1308 838 1335 c 0,58,59
 881 1379 881 1379 933 1379 c 0,60,61
 983 1379 983 1379 1007 1354 c 0,62,63
 1050 1309 1050 1309 1050 1259 c 2,64,-1
 1050 268 l 2,65,66
 1050 215 1050 215 1084 188.5 c 128,-1,67
 1118 162 1118 162 1168 162 c 256,68,69
 1218 162 1218 162 1252 189.5 c 128,-1,70
 1286 217 1286 217 1286 268 c 2,71,-1
 1287 1259 l 2,0,1
EndSplineSet
EndChar

StartChar: X
Encoding: 88 88 78
Width: 1192
GlyphClass: 2
Flags: W
LayerCount: 2
Fore
SplineSet
332 484 m 2,0,1
 332 644 332 644 480 704 c 1,2,3
 406 744 406 744 380 785 c 0,4,5
 332 858 332 858 332 956 c 2,6,-1
 332 1179 l 1,7,-1
 286 1179 l 2,8,9
 238 1179 238 1179 213 1153 c 0,10,11
 172 1109 172 1109 172 1060 c 2,12,-1
 172 1003 l 2,13,14
 172 925 172 925 99 895 c 0,15,16
 77 886 77 886 52.5 886 c 128,-1,17
 28 886 28 886 6.5 895 c 128,-1,18
 -15 904 -15 904 -30 920 c 1,19,20
 -65 954 -65 954 -65 1003 c 2,21,-1
 -65 1063 l 2,22,23
 -65 1186 -65 1186 22 1272 c 0,24,25
 111 1359 111 1359 231 1359 c 2,26,-1
 449 1359 l 2,27,28
 499 1359 499 1359 524 1334 c 0,29,30
 568 1290 568 1290 568 1239 c 2,31,-1
 568 912 l 2,32,33
 568 862 568 862 593 837 c 0,34,35
 636 794 636 794 690 794 c 0,36,37
 765 794 765 794 796 866 c 0,38,39
 806 887 806 887 806 912 c 2,40,-1
 806 1259 l 2,41,42
 806 1338 806 1338 878 1370 c 0,43,44
 899 1379 899 1379 924.5 1379 c 128,-1,45
 950 1379 950 1379 971 1369.5 c 128,-1,46
 992 1360 992 1360 1008 1344 c 0,47,48
 1042 1310 1042 1310 1042 1259 c 2,49,-1
 1042 956 l 2,50,51
 1042 816 1042 816 954 744 c 0,52,53
 927 722 927 722 894 704 c 1,54,55
 1042 644 1042 644 1042 484 c 2,56,-1
 1042 98 l 2,57,58
 1042 23 1042 23 971 -10 c 0,59,60
 950 -19 950 -19 924.5 -19 c 128,-1,61
 899 -19 899 -19 877.5 -9.5 c 128,-1,62
 856 0 856 0 840 16 c 0,63,64
 806 48 806 48 806 98 c 2,65,-1
 806 495 l 2,66,67
 806 544 806 544 782 570 c 1,68,69
 739 614 739 614 701.5 614 c 128,-1,70
 664 614 664 614 642 605 c 128,-1,71
 620 596 620 596 604 580 c 0,72,73
 568 546 568 546 568 495 c 2,74,-1
 568 98 l 2,75,76
 568 22 568 22 496 -10 c 0,77,78
 474 -19 474 -19 449 -19 c 0,79,80
 400 -19 400 -19 375 6 c 0,81,82
 332 49 332 49 332 98 c 2,83,-1
 332 484 l 2,0,1
EndSplineSet
EndChar

StartChar: Y
Encoding: 89 89 79
Width: 1361
GlyphClass: 2
Flags: W
LayerCount: 2
Fore
SplineSet
1005.5 1369.5 m 128,-1,1
 1027 1379 1027 1379 1051.5 1379 c 128,-1,2
 1076 1379 1076 1379 1098 1369.5 c 128,-1,3
 1120 1360 1120 1360 1136 1344 c 0,4,5
 1171 1311 1171 1311 1171 1262 c 2,6,-1
 1171 296 l 2,7,8
 1171 174 1171 174 1082 87 c 0,9,10
 994 0 994 0 872 0 c 2,11,-1
 695 0 l 2,12,13
 657 0 657 0 630.5 26 c 128,-1,14
 604 52 604 52 604 90 c 256,15,16
 604 128 604 128 630.5 154.5 c 128,-1,17
 657 181 657 181 695 181 c 2,18,-1
 813 181 l 2,19,20
 892 181 892 181 924 252 c 0,21,22
 933 274 933 274 933 298 c 2,23,-1
 933 435 l 2,24,25
 933 454 933 454 922.5 460.5 c 128,-1,26
 912 467 912 467 902 467 c 128,-1,27
 892 467 892 467 884 458 c 1,28,-1
 867 442 l 1,29,30
 799 374 799 374 709 374 c 0,31,32
 602 374 602 374 530 461 c 0,33,34
 459 547 459 547 459 670 c 2,35,-1
 459 1179 l 1,36,-1
 415 1179 l 2,37,38
 367 1179 367 1179 342 1153 c 0,39,40
 301 1109 301 1109 301 1060 c 2,41,-1
 301 1003 l 2,42,43
 301 925 301 925 228 895 c 0,44,45
 206 886 206 886 181.5 886 c 128,-1,46
 157 886 157 886 135.5 895 c 128,-1,47
 114 904 114 904 98 920 c 0,48,49
 64 954 64 954 64 1003 c 2,50,-1
 64 1063 l 2,51,52
 64 1186 64 1186 152 1272 c 0,53,54
 240 1359 240 1359 360 1359 c 2,55,-1
 577 1359 l 2,56,57
 625 1359 625 1359 651 1334 c 0,58,59
 696 1291 696 1291 696 1242 c 2,60,-1
 696 673 l 2,61,62
 696 624 696 624 722 598 c 0,63,64
 766 554 766 554 802.5 554 c 128,-1,65
 839 554 839 554 860 561.5 c 128,-1,66
 881 569 881 569 898 583 c 0,67,68
 933 613 933 613 933 661 c 2,69,-1
 933 1262 l 2,70,71
 933 1311 933 1311 958.5 1335.5 c 128,-1,0
 984 1360 984 1360 1005.5 1369.5 c 128,-1,1
EndSplineSet
EndChar

StartChar: Z
Encoding: 90 90 80
Width: 1026
GlyphClass: 2
Flags: W
LayerCount: 2
Fore
SplineSet
649 0 m 2,0,1
 564 0 564 0 491 68 c 1,2,-1
 474 85 l 2,3,4
 465 93 465 93 452 93 c 0,5,6
 436 93 436 93 425 68 c 1,7,8
 391 0 391 0 317 0 c 0,9,10
 267 0 267 0 243 26 c 1,11,12
 199 71 199 71 199 110.5 c 128,-1,13
 199 150 199 150 213 176 c 1,14,-1
 647 1179 l 1,15,-1
 443 1179 l 2,16,17
 399 1179 399 1179 375 1152 c 0,18,19
 335 1107 335 1107 335 1060 c 2,20,-1
 335 1003 l 2,21,22
 335 925 335 925 262 895 c 0,23,24
 240 886 240 886 215.5 886 c 128,-1,25
 191 886 191 886 169.5 895 c 128,-1,26
 148 904 148 904 132 920 c 0,27,28
 98 954 98 954 98 1003 c 2,29,-1
 98 1063 l 2,30,31
 98 1185 98 1185 185 1272 c 128,-1,32
 272 1359 272 1359 394 1359 c 2,33,-1
 456 1359 l 2,34,35
 541 1359 541 1359 614 1291 c 2,36,-1
 632 1274 l 2,37,38
 640 1266 640 1266 652 1266 c 0,39,40
 669 1266 669 1266 680 1291 c 1,41,42
 714 1359 714 1359 788 1359 c 0,43,44
 838 1359 838 1359 862 1334 c 0,45,46
 906 1288 906 1288 906 1248 c 128,-1,47
 906 1208 906 1208 892 1183 c 1,48,-1
 457 180 l 1,49,-1
 818 180 l 2,50,51
 876 180 876 180 902 124 c 0,52,53
 909 108 909 108 909 80 c 128,-1,54
 909 52 909 52 882 26 c 128,-1,55
 855 0 855 0 818 0 c 2,56,-1
 649 0 l 2,0,1
EndSplineSet
EndChar

StartChar: bracketleft
Encoding: 91 91 81
Width: 1023
GlyphClass: 2
Flags: W
LayerCount: 2
Fore
SplineSet
730 -145.5 m 128,-1,1
 737 -162 737 -162 737 -190 c 128,-1,2
 737 -218 737 -218 711.5 -244.5 c 128,-1,3
 686 -271 686 -271 649 -271 c 2,4,-1
 375 -271 l 2,5,6
 337 -271 337 -271 311.5 -244.5 c 128,-1,7
 286 -218 286 -218 286 -181 c 2,8,-1
 286 1450 l 2,9,10
 286 1487 286 1487 311.5 1513.5 c 128,-1,11
 337 1540 337 1540 375 1540 c 2,12,-1
 649 1540 l 2,13,14
 686 1540 686 1540 711.5 1513.5 c 128,-1,15
 737 1487 737 1487 737 1459 c 128,-1,16
 737 1431 737 1431 730 1414.5 c 128,-1,17
 723 1398 723 1398 711 1386 c 0,18,19
 684 1359 684 1359 649 1359 c 2,20,-1
 524 1359 l 1,21,-1
 524 -90 l 1,22,-1
 649 -90 l 2,23,24
 684 -90 684 -90 703.5 -109.5 c 128,-1,0
 723 -129 723 -129 730 -145.5 c 128,-1,1
EndSplineSet
EndChar

StartChar: backslash
Encoding: 92 92 82
Width: 1023
GlyphClass: 2
Flags: W
LayerCount: 2
Fore
SplineSet
370 1470 m 2,0,1
 360 1508 360 1508 327.5 1526.5 c 128,-1,2
 295 1545 295 1545 258 1535 c 128,-1,3
 221 1525 221 1525 202.5 1493 c 128,-1,4
 184 1461 184 1461 194 1423 c 2,5,-1
 655 -292 l 2,6,7
 664 -329 664 -329 696 -347.5 c 128,-1,8
 728 -366 728 -366 755.5 -358.5 c 128,-1,9
 783 -351 783 -351 797.5 -339.5 c 128,-1,10
 812 -328 812 -328 821 -313 c 0,11,12
 840 -279 840 -279 830 -245 c 2,13,-1
 370 1470 l 2,0,1
EndSplineSet
EndChar

StartChar: bracketright
Encoding: 93 93 83
Width: 1023
GlyphClass: 2
Flags: W
LayerCount: 2
Fore
SplineSet
293 -145.5 m 128,-1,1
 286 -162 286 -162 286 -190 c 128,-1,2
 286 -218 286 -218 311.5 -244.5 c 128,-1,3
 337 -271 337 -271 374 -271 c 2,4,-1
 648 -271 l 2,5,6
 686 -271 686 -271 711.5 -244.5 c 128,-1,7
 737 -218 737 -218 737 -181 c 2,8,-1
 737 1450 l 2,9,10
 737 1487 737 1487 711.5 1513.5 c 128,-1,11
 686 1540 686 1540 648 1540 c 2,12,-1
 374 1540 l 2,13,14
 337 1540 337 1540 311.5 1513.5 c 128,-1,15
 286 1487 286 1487 286 1459 c 128,-1,16
 286 1431 286 1431 293 1414.5 c 128,-1,17
 300 1398 300 1398 312 1386 c 0,18,19
 339 1359 339 1359 374 1359 c 2,20,-1
 499 1359 l 1,21,-1
 499 -90 l 1,22,-1
 374 -90 l 2,23,24
 339 -90 339 -90 319.5 -109.5 c 128,-1,0
 300 -129 300 -129 293 -145.5 c 128,-1,1
EndSplineSet
EndChar

StartChar: asciicircum
Encoding: 94 94 84
Width: 1023
GlyphClass: 2
Flags: W
LayerCount: 2
Fore
SplineSet
904 732 m 2,0,1
 913 712 913 712 913 692 c 0,2,3
 913 646 913 646 875 625 c 0,4,5
 855 613 855 613 834 613 c 0,6,7
 791 613 791 613 763 652 c 2,8,-1
 511 1017 l 1,9,-1
 260 652 l 2,10,11
 232 613 232 613 199.5 613 c 128,-1,12
 167 613 167 613 148 624 c 0,13,14
 110 647 110 647 110 692 c 0,15,16
 110 712 110 712 119 732 c 2,17,-1
 369 1268 l 2,18,19
 421 1378 421 1378 507 1378 c 0,20,21
 604 1378 604 1378 654 1268 c 1,22,-1
 904 732 l 2,0,1
EndSplineSet
EndChar

StartChar: underscore
Encoding: 95 95 85
Width: 1530
GlyphClass: 2
Flags: W
LayerCount: 2
Fore
SplineSet
-2 -252 m 2,0,1
 -29 -252 -29 -252 -45 -236 c 128,-1,2
 -61 -220 -61 -220 -60.5 -196 c 128,-1,3
 -60 -172 -60 -172 -43.5 -156 c 128,-1,4
 -27 -140 -27 -140 -2 -140 c 2,5,-1
 1531 -140 l 2,6,7
 1555 -140 1555 -140 1571.5 -156.5 c 128,-1,8
 1588 -173 1588 -173 1588 -197 c 128,-1,9
 1588 -221 1588 -221 1571 -236.5 c 128,-1,10
 1554 -252 1554 -252 1531 -252 c 2,11,-1
 -2 -252 l 2,0,1
EndSplineSet
EndChar

StartChar: grave
Encoding: 96 96 86
Width: 1767
GlyphClass: 2
Flags: W
LayerCount: 2
Fore
SplineSet
974 1289 m 2,0,1
 991 1266 991 1266 991 1240.5 c 128,-1,2
 991 1215 991 1215 978 1201 c 0,3,4
 956 1179 956 1179 930 1179 c 128,-1,5
 904 1179 904 1179 880 1195 c 2,6,-1
 660 1349 l 2,7,8
 597 1392 597 1392 597 1462 c 0,9,10
 597 1506 597 1506 622 1532 c 1,11,12
 664 1573 664 1573 701 1573 c 0,13,14
 769 1573 769 1573 817 1507 c 2,15,-1
 974 1289 l 2,0,1
EndSplineSet
EndChar

StartChar: a
Encoding: 97 97 87
Width: 1023
GlyphClass: 2
Flags: W
LayerCount: 2
Fore
SplineSet
244 975 m 0,0,1
 244 1035 244 1035 300 1059 c 0,2,3
 316 1066 316 1066 335 1066 c 2,4,-1
 571 1066 l 2,5,6
 693 1066 693 1066 780 979 c 128,-1,7
 867 892 867 892 867 770 c 2,8,-1
 867 97 l 2,9,10
 867 21 867 21 795 -10 c 0,11,12
 773 -20 773 -20 747 -20 c 128,-1,13
 721 -20 721 -20 702.5 -11.5 c 128,-1,14
 684 -3 684 -3 671 8 c 0,15,16
 660 18 660 18 649 36.5 c 128,-1,17
 638 55 638 55 632 64 c 128,-1,18
 626 73 626 73 613 73 c 256,19,20
 600 73 600 73 592 64 c 2,21,-1
 576 47 l 1,22,23
 509 -20 509 -20 419 -20 c 0,24,25
 312 -20 312 -20 234 68 c 0,26,27
 156 155 156 155 156 276 c 2,28,-1
 156 414 l 2,29,30
 156 536 156 536 243 623 c 0,31,32
 329 709 329 709 452 709 c 2,33,-1
 630 709 l 1,34,-1
 630 767 l 2,35,36
 630 817 630 817 605 842 c 0,37,38
 561 886 561 886 512 886 c 2,39,-1
 335 886 l 2,40,41
 298 886 298 886 278 905 c 0,42,43
 244 937 244 937 244 975 c 0,0,1
393 278 m 2,44,45
 393 227 393 227 418 203 c 0,46,47
 462 161 462 161 499 161 c 128,-1,48
 536 161 536 161 557.5 168 c 128,-1,49
 579 175 579 175 595 188 c 0,50,51
 630 216 630 216 630 262 c 2,52,-1
 630 530 l 1,53,-1
 512 530 l 2,54,55
 461 530 461 530 436 505 c 0,56,57
 393 462 393 462 393 412 c 2,58,-1
 393 278 l 2,44,45
EndSplineSet
EndChar

StartChar: b
Encoding: 98 98 88
Width: 1023
GlyphClass: 2
Flags: W
LayerCount: 2
Fore
SplineSet
156 1419 m 2,0,1
 156 1496 156 1496 228 1528 c 0,2,3
 250 1538 250 1538 275 1538 c 128,-1,4
 300 1538 300 1538 321.5 1528.5 c 128,-1,5
 343 1519 343 1519 359 1503 c 0,6,7
 394 1468 394 1468 394 1419 c 2,8,-1
 394 1025 l 2,9,10
 394 1006 394 1006 404.5 999.5 c 128,-1,11
 415 993 415 993 424.5 993 c 128,-1,12
 434 993 434 993 442 1001.5 c 128,-1,13
 450 1010 450 1010 468 1028 c 0,14,15
 527 1087 527 1087 617 1087 c 0,16,17
 723 1087 723 1087 796 1000 c 1,18,19
 867 913 867 913 867 789 c 2,20,-1
 867 295 l 2,21,22
 867 174 867 174 780 87 c 128,-1,23
 693 0 693 0 572 0 c 2,24,-1
 276 0 l 2,25,26
 226 0 226 0 200 25 c 0,27,28
 156 67 156 67 156 119 c 2,29,-1
 156 1419 l 2,0,1
630 788 m 2,30,31
 630 864 630 864 558 896 c 0,32,33
 537 905 537 905 500 905 c 128,-1,34
 463 905 463 905 430 874 c 128,-1,35
 397 843 397 843 394 796 c 1,36,-1
 394 180 l 1,37,-1
 512 180 l 2,38,39
 562 180 562 180 587 205 c 0,40,41
 630 248 630 248 630 299 c 2,42,-1
 630 788 l 2,30,31
EndSplineSet
EndChar

StartChar: c
Encoding: 99 99 89
Width: 1023
GlyphClass: 2
Flags: W
LayerCount: 2
Fore
SplineSet
621 853 m 1,0,1
 578 906 578 906 516 906 c 0,2,3
 462 906 462 906 436 880 c 0,4,5
 393 837 393 837 393 787 c 2,6,-1
 393 298 l 2,7,8
 393 247 393 247 418 223 c 0,9,10
 462 181 462 181 511 181 c 2,11,-1
 757 181 l 2,12,13
 816 181 816 181 840 124 c 0,14,15
 847 108 847 108 847 89.5 c 128,-1,16
 847 71 847 71 840 54.5 c 128,-1,17
 833 38 833 38 821 26 c 0,18,19
 795 0 795 0 757 0 c 2,20,-1
 452 0 l 2,21,22
 330 0 330 0 243 87 c 128,-1,23
 156 174 156 174 156 296 c 2,24,-1
 156 792 l 2,25,26
 156 921 156 921 243 1000 c 0,27,28
 338 1086 338 1086 511 1086 c 0,29,30
 744 1086 744 1086 822 978 c 0,31,32
 847 945 847 945 847 911.5 c 128,-1,33
 847 878 847 878 838 856.5 c 128,-1,34
 829 835 829 835 813 819 c 0,35,36
 779 785 779 785 736 785 c 0,37,38
 666 785 666 785 621 853 c 1,0,1
EndSplineSet
EndChar

StartChar: d
Encoding: 100 100 90
Width: 1023
GlyphClass: 2
Flags: W
LayerCount: 2
Fore
SplineSet
867 97 m 2,0,1
 867 21 867 21 795 -10 c 0,2,3
 773 -20 773 -20 747 -20 c 128,-1,4
 721 -20 721 -20 702 -12 c 128,-1,5
 683 -4 683 -4 670 6 c 1,6,7
 652 22 652 22 644.5 37 c 128,-1,8
 637 52 637 52 631 62.5 c 128,-1,9
 625 73 625 73 613 73 c 256,10,11
 601 73 601 73 592 64 c 2,12,-1
 574 47 l 1,13,14
 509 -20 509 -20 419 -20 c 0,15,16
 311 -20 311 -20 233 68 c 0,17,18
 156 154 156 154 156 276 c 2,19,-1
 156 770 l 2,20,21
 156 892 156 892 243 979 c 128,-1,22
 330 1066 330 1066 452 1066 c 2,23,-1
 630 1066 l 1,24,-1
 630 1420 l 2,25,26
 630 1470 630 1470 655 1495 c 0,27,28
 698 1538 698 1538 748 1538 c 0,29,30
 799 1538 799 1538 824 1513 c 0,31,32
 867 1470 867 1470 867 1420 c 2,33,-1
 867 97 l 2,0,1
393 267 m 2,34,35
 393 216 393 216 426.5 188.5 c 128,-1,36
 460 161 460 161 497.5 161 c 128,-1,37
 535 161 535 161 556.5 168 c 128,-1,38
 578 175 578 175 594 188 c 0,39,40
 630 216 630 216 630 262 c 2,41,-1
 630 886 l 1,42,-1
 511 886 l 2,43,44
 462 886 462 886 436 860 c 0,45,46
 393 817 393 817 393 767 c 2,47,-1
 393 267 l 2,34,35
EndSplineSet
EndChar

StartChar: e
Encoding: 101 101 91
Width: 1023
GlyphClass: 2
Flags: W
LayerCount: 2
Fore
SplineSet
752 154 m 128,-1,1
 778 127 778 127 778 89.5 c 128,-1,2
 778 52 778 52 752 26 c 128,-1,3
 726 0 726 0 688 0 c 2,4,-1
 452 0 l 2,5,6
 330 0 330 0 243 87 c 128,-1,7
 156 174 156 174 156 296 c 2,8,-1
 156 787 l 2,9,10
 156 923 156 923 248 1004 c 1,11,12
 344 1086 344 1086 512 1086 c 0,13,14
 678 1086 678 1086 774 1004 c 1,15,16
 867 922 867 922 867 785 c 2,17,-1
 867 505 l 2,18,19
 867 455 867 455 842 430 c 0,20,21
 799 387 799 387 748 387 c 2,22,-1
 393 387 l 1,23,-1
 393 298 l 2,24,25
 393 247 393 247 418 223 c 0,26,27
 462 181 462 181 511 181 c 2,28,-1
 688 181 l 2,29,0
 726 181 726 181 752 154 c 128,-1,1
630 787 m 2,30,31
 630 837 630 837 605 862 c 0,32,33
 561 906 561 906 512 906 c 0,34,35
 462 906 462 906 436 880 c 0,36,37
 393 837 393 837 393 787 c 2,38,-1
 393 562 l 1,39,-1
 630 562 l 1,40,-1
 630 787 l 2,30,31
EndSplineSet
EndChar

StartChar: f
Encoding: 102 102 92
Width: 850
GlyphClass: 2
Flags: W
LayerCount: 2
Fore
SplineSet
524 97 m 2,0,1
 524 48 524 48 499 23 c 0,2,3
 456 -20 456 -20 406 -20 c 0,4,5
 358 -20 358 -20 332 5 c 0,6,7
 288 47 288 47 288 97 c 2,8,-1
 288 890 l 1,9,-1
 212 890 l 2,10,11
 155 890 155 890 131 944 c 0,12,13
 124 960 124 960 124 978 c 0,14,15
 124 1035 124 1035 178 1059 c 0,16,17
 194 1066 194 1066 212 1066 c 2,18,-1
 288 1066 l 1,19,-1
 288 1241 l 2,20,21
 288 1366 288 1366 374 1452 c 128,-1,22
 460 1538 460 1538 583 1538 c 2,23,-1
 695 1538 l 2,24,25
 753 1538 753 1538 777 1482 c 0,26,27
 784 1466 784 1466 784 1438 c 128,-1,28
 784 1410 784 1410 758.5 1384.5 c 128,-1,29
 733 1359 733 1359 695 1359 c 2,30,-1
 642 1359 l 2,31,32
 594 1359 594 1359 568 1334 c 1,33,34
 524 1289 524 1289 524 1239 c 2,35,-1
 524 1066 l 1,36,-1
 678 1066 l 2,37,38
 713 1066 713 1066 732 1047 c 0,39,40
 764 1015 764 1015 764 978 c 0,41,42
 764 921 764 921 712 897 c 0,43,44
 696 890 696 890 678 890 c 2,45,-1
 524 890 l 1,46,-1
 524 97 l 2,0,1
EndSplineSet
EndChar

StartChar: g
Encoding: 103 103 93
Width: 1023
GlyphClass: 2
Flags: W
LayerCount: 2
Fore
SplineSet
867 -178 m 2,0,1
 867 -301 867 -301 780 -387 c 0,2,3
 691 -474 691 -474 570 -474 c 2,4,-1
 393 -474 l 2,5,6
 355 -474 355 -474 328.5 -448 c 128,-1,7
 302 -422 302 -422 302 -384 c 256,8,9
 302 -346 302 -346 328.5 -319.5 c 128,-1,10
 355 -293 355 -293 393 -293 c 2,11,-1
 511 -293 l 2,12,13
 561 -293 561 -293 586 -268 c 0,14,15
 629 -225 629 -225 629 -176 c 2,16,-1
 629 41 l 2,17,18
 629 60 629 60 618.5 66.5 c 128,-1,19
 608 73 608 73 598 73 c 128,-1,20
 588 73 588 73 580 64 c 1,21,-1
 563 48 l 1,22,23
 495 -20 495 -20 407 -20 c 0,24,25
 300 -20 300 -20 228 68 c 1,26,27
 156 154 156 154 156 276 c 2,28,-1
 156 770 l 2,29,30
 156 892 156 892 243 979 c 128,-1,31
 330 1066 330 1066 452 1066 c 2,32,-1
 747 1066 l 2,33,34
 826 1066 826 1066 858 993 c 0,35,36
 867 971 867 971 867 946 c 2,37,-1
 867 -178 l 2,0,1
393 279 m 2,38,39
 393 229 393 229 418 204 c 0,40,41
 462 160 462 160 498.5 160 c 128,-1,42
 535 160 535 160 556 167.5 c 128,-1,43
 577 175 577 175 594 189 c 0,44,45
 629 219 629 219 629 267 c 2,46,-1
 629 886 l 1,47,-1
 511 886 l 2,48,49
 462 886 462 886 436 860 c 0,50,51
 393 817 393 817 393 767 c 2,52,-1
 393 279 l 2,38,39
EndSplineSet
EndChar

StartChar: h
Encoding: 104 104 94
Width: 1023
GlyphClass: 2
Flags: W
LayerCount: 2
Fore
SplineSet
321.5 -10.5 m 128,-1,1
 300 -20 300 -20 275.5 -20 c 128,-1,2
 251 -20 251 -20 229 -11 c 128,-1,3
 207 -2 207 -2 191 14 c 0,4,5
 156 49 156 49 156 97 c 2,6,-1
 156 1420 l 2,7,8
 156 1469 156 1469 182 1494 c 1,9,10
 225 1538 225 1538 262.5 1538 c 128,-1,11
 300 1538 300 1538 321.5 1529 c 128,-1,12
 343 1520 343 1520 359 1504 c 0,13,14
 394 1469 394 1469 394 1420 c 2,15,-1
 394 1025 l 2,16,17
 394 1006 394 1006 404.5 999.5 c 128,-1,18
 415 993 415 993 425 993 c 128,-1,19
 435 993 435 993 444 1002 c 2,20,-1
 460 1018 l 2,21,22
 528 1086 528 1086 617 1086 c 0,23,24
 725 1086 725 1086 796 998 c 0,25,26
 867 911 867 911 867 790 c 2,27,-1
 867 97 l 2,28,29
 867 21 867 21 796 -10 c 0,30,31
 774 -20 774 -20 749.5 -20 c 128,-1,32
 725 -20 725 -20 703 -11 c 128,-1,33
 681 -2 681 -2 665 14 c 0,34,35
 630 49 630 49 630 97 c 2,36,-1
 630 787 l 2,37,38
 630 837 630 837 605 862 c 0,39,40
 561 906 561 906 524.5 906 c 128,-1,41
 488 906 488 906 467 898.5 c 128,-1,42
 446 891 446 891 430 877 c 0,43,44
 394 847 394 847 394 799 c 2,45,-1
 394 97 l 2,46,47
 394 48 394 48 368.5 23.5 c 128,-1,0
 343 -1 343 -1 321.5 -10.5 c 128,-1,1
EndSplineSet
EndChar

StartChar: i
Encoding: 105 105 95
Width: 678
GlyphClass: 2
Flags: W
LayerCount: 2
Fore
SplineSet
219 966 m 2,0,1
 219 1015 219 1015 244 1042 c 0,2,3
 287 1086 287 1086 339 1086 c 0,4,5
 389 1086 389 1086 413 1060 c 1,6,7
 457 1015 457 1015 457 966 c 2,8,-1
 457 97 l 2,9,10
 457 49 457 49 432 24 c 0,11,12
 388 -20 388 -20 351 -20 c 128,-1,13
 314 -20 314 -20 292 -10.5 c 128,-1,14
 270 -1 270 -1 254 14 c 0,15,16
 219 48 219 48 219 97 c 2,17,-1
 219 966 l 2,0,1
339 1538 m 256,18,19
 394 1538 394 1538 434 1498 c 256,20,21
 474 1458 474 1458 474 1417 c 128,-1,22
 474 1376 474 1376 463 1352 c 128,-1,23
 452 1328 452 1328 434 1310 c 0,24,25
 394 1270 394 1270 339 1270 c 256,26,27
 284 1270 284 1270 244 1310 c 256,28,29
 204 1350 204 1350 204 1390 c 0,30,31
 204 1458 204 1458 244 1498 c 128,-1,32
 284 1538 284 1538 339 1538 c 256,18,19
EndSplineSet
EndChar

StartChar: j
Encoding: 106 106 96
Width: 684
GlyphClass: 2
Flags: W
LayerCount: 2
Fore
SplineSet
220 966 m 2,0,1
 220 1016 220 1016 245 1042 c 0,2,3
 287 1086 287 1086 338 1086 c 256,4,5
 389 1086 389 1086 413 1060 c 1,6,7
 456 1016 456 1016 456 966 c 2,8,-1
 456 -178 l 2,9,10
 456 -302 456 -302 370 -387 c 0,11,12
 281 -474 281 -474 160 -474 c 2,13,-1
 44 -474 l 2,14,15
 -14 -474 -14 -474 -38 -420 c 0,16,17
 -46 -403 -46 -403 -46 -384 c 0,18,19
 -46 -348 -46 -348 -26 -327 c 0,20,21
 6 -293 6 -293 44 -293 c 2,22,-1
 102 -293 l 2,23,24
 152 -293 152 -293 177 -268 c 0,25,26
 220 -225 220 -225 220 -176 c 2,27,-1
 220 966 l 2,0,1
214.5 1349 m 128,-1,29
 204 1373 204 1373 204 1400.5 c 128,-1,30
 204 1428 204 1428 214.5 1452.5 c 128,-1,31
 225 1477 225 1477 244 1496 c 0,32,33
 283 1535 283 1535 324.5 1535 c 128,-1,34
 366 1535 366 1535 390.5 1524.5 c 128,-1,35
 415 1514 415 1514 434 1496 c 1,36,37
 473 1456 473 1456 473 1414.5 c 128,-1,38
 473 1373 473 1373 462.5 1349 c 128,-1,39
 452 1325 452 1325 434 1306 c 1,40,41
 394 1267 394 1267 352.5 1267 c 128,-1,42
 311 1267 311 1267 286.5 1277.5 c 128,-1,43
 262 1288 262 1288 243.5 1306.5 c 128,-1,28
 225 1325 225 1325 214.5 1349 c 128,-1,29
EndSplineSet
EndChar

StartChar: k
Encoding: 107 107 97
Width: 1023
GlyphClass: 2
Flags: W
LayerCount: 2
Fore
SplineSet
687 602 m 1,0,1
 865 530 865 530 865 337 c 2,2,-1
 865 97 l 2,3,4
 865 48 865 48 840 24 c 0,5,6
 772 -42 772 -42 700 -10 c 1,7,8
 627 21 627 21 627 97 c 2,9,-1
 627 334 l 2,10,11
 627 384 627 384 602 409 c 0,12,13
 558 453 558 453 510 453 c 2,14,-1
 394 453 l 1,15,-1
 394 97 l 2,16,17
 394 49 394 49 368 24 c 1,18,19
 325 -20 325 -20 288 -20 c 128,-1,20
 251 -20 251 -20 229 -10.5 c 128,-1,21
 207 -1 207 -1 191 14 c 0,22,23
 156 48 156 48 156 97 c 2,24,-1
 156 1418 l 2,25,26
 156 1467 156 1467 182 1494 c 0,27,28
 224 1538 224 1538 276 1538 c 0,29,30
 326 1538 326 1538 350 1512 c 1,31,32
 394 1467 394 1467 394 1418 c 2,33,-1
 394 633 l 1,34,-1
 466 633 l 1,35,-1
 654 1021 l 1,36,37
 668 1053 668 1053 698 1070.5 c 128,-1,38
 728 1088 728 1088 759 1088 c 128,-1,39
 790 1088 790 1088 818 1073.5 c 128,-1,40
 846 1059 846 1059 862.5 1030 c 128,-1,41
 879 1001 879 1001 879 969.5 c 128,-1,42
 879 938 879 938 865 913 c 2,43,-1
 687 602 l 1,0,1
EndSplineSet
EndChar

StartChar: l
Encoding: 108 108 98
Width: 678
GlyphClass: 2
Flags: W
LayerCount: 2
Fore
SplineSet
437 298 m 2,0,1
 437 247 437 247 462 223 c 0,2,3
 506 181 506 181 555 181 c 2,4,-1
 565 181 l 2,5,6
 602 181 602 181 622 161 c 0,7,8
 656 127 656 127 656 99 c 128,-1,9
 656 71 656 71 649 54.5 c 128,-1,10
 642 38 642 38 630 26 c 0,11,12
 602 0 602 0 565 0 c 2,13,-1
 496 0 l 2,14,15
 374 0 374 0 287 87 c 128,-1,16
 200 174 200 174 200 296 c 2,17,-1
 200 1420 l 2,18,19
 200 1470 200 1470 225 1495 c 0,20,21
 268 1538 268 1538 318 1538 c 0,22,23
 369 1538 369 1538 394 1513 c 0,24,25
 437 1470 437 1470 437 1420 c 2,26,-1
 437 298 l 2,0,1
EndSplineSet
EndChar

StartChar: m
Encoding: 109 109 99
Width: 1535
GlyphClass: 2
Flags: W
LayerCount: 2
Fore
SplineSet
339.5 -10.5 m 128,-1,1
 318 -20 318 -20 293.5 -20 c 128,-1,2
 269 -20 269 -20 247.5 -11 c 128,-1,3
 226 -2 226 -2 210 14 c 0,4,5
 175 49 175 49 175 97 c 2,6,-1
 175 966 l 2,7,8
 175 1015 175 1015 200 1042 c 0,9,10
 243 1086 243 1086 281.5 1086 c 128,-1,11
 320 1086 320 1086 339 1078 c 128,-1,12
 358 1070 358 1070 371 1058 c 0,13,14
 388 1043 388 1043 396.5 1026 c 128,-1,15
 405 1009 405 1009 410.5 1001 c 128,-1,16
 416 993 416 993 428.5 993 c 128,-1,17
 441 993 441 993 450 1001 c 2,18,-1
 467 1018 l 1,19,20
 540 1086 540 1086 613 1086 c 0,21,22
 742 1086 742 1086 826 980 c 0,23,24
 834 969 834 969 846 969 c 0,25,26
 867 969 867 969 888.5 1001.5 c 128,-1,27
 910 1034 910 1034 958 1060 c 128,-1,28
 1006 1086 1006 1086 1070 1086 c 128,-1,29
 1134 1086 1134 1086 1186.5 1062.5 c 128,-1,30
 1239 1039 1239 1039 1278 998 c 0,31,32
 1360 912 1360 912 1360 790 c 2,33,-1
 1360 97 l 2,34,35
 1360 21 1360 21 1288 -10 c 0,36,37
 1266 -20 1266 -20 1241.5 -20 c 128,-1,38
 1217 -20 1217 -20 1195.5 -11 c 128,-1,39
 1174 -2 1174 -2 1158 14 c 0,40,41
 1124 50 1124 50 1124 97 c 2,42,-1
 1124 787 l 2,43,44
 1124 837 1124 837 1099 862 c 0,45,46
 1055 906 1055 906 1018 906 c 128,-1,47
 981 906 981 906 960 896.5 c 128,-1,48
 939 887 939 887 922 870 c 0,49,50
 887 835 887 835 887 789 c 2,51,-1
 887 97 l 2,52,53
 887 21 887 21 816 -10 c 0,54,55
 794 -20 794 -20 769.5 -20 c 128,-1,56
 745 -20 745 -20 723 -11 c 128,-1,57
 701 -2 701 -2 685 14 c 0,58,59
 650 49 650 49 650 97 c 2,60,-1
 650 787 l 2,61,62
 650 837 650 837 625 862 c 0,63,64
 581 906 581 906 533 906 c 0,65,66
 453 906 453 906 422 844 c 0,67,68
 412 824 412 824 412 799 c 2,69,-1
 412 97 l 2,70,71
 412 48 412 48 386.5 23.5 c 128,-1,0
 361 -1 361 -1 339.5 -10.5 c 128,-1,1
EndSplineSet
EndChar

StartChar: n
Encoding: 110 110 100
Width: 1023
GlyphClass: 2
Flags: W
LayerCount: 2
Fore
SplineSet
320.5 -10.5 m 128,-1,1
 299 -20 299 -20 274.5 -20 c 128,-1,2
 250 -20 250 -20 228.5 -11 c 128,-1,3
 207 -2 207 -2 191 14 c 0,4,5
 156 49 156 49 156 97 c 2,6,-1
 156 966 l 2,7,8
 156 1015 156 1015 182 1042 c 0,9,10
 224 1086 224 1086 262.5 1086 c 128,-1,11
 301 1086 301 1086 319.5 1077.5 c 128,-1,12
 338 1069 338 1069 351 1058 c 0,13,14
 370 1042 370 1042 377.5 1025.5 c 128,-1,15
 385 1009 385 1009 391 1001 c 128,-1,16
 397 993 397 993 409.5 993 c 128,-1,17
 422 993 422 993 430 1001.5 c 128,-1,18
 438 1010 438 1010 456 1028 c 0,19,20
 516 1086 516 1086 587.5 1086 c 128,-1,21
 659 1086 659 1086 707 1062.5 c 128,-1,22
 755 1039 755 1039 790 998 c 0,23,24
 867 911 867 911 867 790 c 2,25,-1
 867 97 l 2,26,27
 867 21 867 21 796 -10 c 0,28,29
 774 -20 774 -20 749.5 -20 c 128,-1,30
 725 -20 725 -20 703 -11 c 128,-1,31
 681 -2 681 -2 665 14 c 0,32,33
 630 49 630 49 630 97 c 2,34,-1
 630 787 l 2,35,36
 630 836 630 836 606 862 c 1,37,38
 563 906 563 906 514 906 c 0,39,40
 434 906 434 906 403 844 c 0,41,42
 393 824 393 824 393 799 c 2,43,-1
 393 97 l 2,44,45
 393 48 393 48 367.5 23.5 c 128,-1,0
 342 -1 342 -1 320.5 -10.5 c 128,-1,1
EndSplineSet
EndChar

StartChar: o
Encoding: 111 111 101
Width: 1023
GlyphClass: 2
Flags: W
LayerCount: 2
Fore
SplineSet
156 792 m 2,0,1
 156 927 156 927 248 1006 c 1,2,3
 344 1086 344 1086 512 1086 c 0,4,5
 678 1086 678 1086 774 1006 c 1,6,7
 867 926 867 926 867 790 c 2,8,-1
 867 273 l 2,9,10
 867 64 867 64 663 0 c 0,11,12
 597 -20 597 -20 512.5 -20 c 128,-1,13
 428 -20 428 -20 362 0.5 c 128,-1,14
 296 21 296 21 250 60 c 0,15,16
 156 138 156 138 156 276 c 2,17,-1
 156 792 l 2,0,1
630 787 m 2,18,19
 630 837 630 837 605 862 c 0,20,21
 561 906 561 906 512 906 c 0,22,23
 462 906 462 906 436 880 c 0,24,25
 393 837 393 837 393 787 c 2,26,-1
 393 267 l 2,27,28
 393 216 393 216 427 188.5 c 128,-1,29
 461 161 461 161 511.5 161 c 128,-1,30
 562 161 562 161 596 188.5 c 128,-1,31
 630 216 630 216 630 267 c 2,32,-1
 630 787 l 2,18,19
EndSplineSet
EndChar

StartChar: p
Encoding: 112 112 102
Width: 1023
GlyphClass: 2
Flags: W
LayerCount: 2
Fore
SplineSet
156 966 m 2,0,1
 156 1016 156 1016 181 1042 c 0,2,3
 223 1086 223 1086 262 1086 c 128,-1,4
 301 1086 301 1086 320 1077.5 c 128,-1,5
 339 1069 339 1069 352 1058 c 0,6,7
 368 1045 368 1045 376 1027 c 128,-1,8
 384 1009 384 1009 390.5 1001 c 128,-1,9
 397 993 397 993 409 993 c 256,10,11
 421 993 421 993 429 1001.5 c 128,-1,12
 437 1010 437 1010 455 1028 c 0,13,14
 515 1086 515 1086 586.5 1086 c 128,-1,15
 658 1086 658 1086 705.5 1062.5 c 128,-1,16
 753 1039 753 1039 789 998 c 0,17,18
 867 911 867 911 867 790 c 2,19,-1
 867 296 l 2,20,21
 867 173 867 173 780 87 c 0,22,23
 691 0 691 0 570 0 c 2,24,-1
 393 0 l 1,25,-1
 393 -356 l 2,26,27
 393 -406 393 -406 368 -431 c 0,28,29
 325 -474 325 -474 274 -474 c 0,30,31
 224 -474 224 -474 199 -449 c 0,32,33
 156 -406 156 -406 156 -356 c 2,34,-1
 156 966 l 2,0,1
629 799 m 2,35,36
 629 848 629 848 595.5 877 c 128,-1,37
 562 906 562 906 524.5 906 c 128,-1,38
 487 906 487 906 465.5 898.5 c 128,-1,39
 444 891 444 891 428 878 c 0,40,41
 393 848 393 848 393 804 c 2,42,-1
 393 181 l 1,43,-1
 511 181 l 2,44,45
 560 181 560 181 586 206 c 0,46,47
 629 247 629 247 629 298 c 2,48,-1
 629 799 l 2,35,36
EndSplineSet
EndChar

StartChar: q
Encoding: 113 113 103
Width: 1023
GlyphClass: 2
Flags: W
LayerCount: 2
Fore
SplineSet
794 -465 m 128,-1,1
 772 -474 772 -474 747.5 -474 c 128,-1,2
 723 -474 723 -474 701.5 -465 c 128,-1,3
 680 -456 680 -456 664 -440 c 0,4,5
 629 -405 629 -405 629 -356 c 2,6,-1
 629 41 l 2,7,8
 629 60 629 60 618.5 66.5 c 128,-1,9
 608 73 608 73 598 73 c 128,-1,10
 588 73 588 73 580 64 c 1,11,-1
 563 48 l 1,12,13
 495 -20 495 -20 407 -20 c 0,14,15
 300 -20 300 -20 228 68 c 1,16,17
 156 154 156 154 156 276 c 2,18,-1
 156 770 l 2,19,20
 156 892 156 892 243 979 c 128,-1,21
 330 1066 330 1066 452 1066 c 2,22,-1
 747 1066 l 2,23,24
 826 1066 826 1066 858 993 c 0,25,26
 867 971 867 971 867 946 c 2,27,-1
 867 -356 l 2,28,29
 867 -405 867 -405 841.5 -430.5 c 128,-1,0
 816 -456 816 -456 794 -465 c 128,-1,1
393 279 m 2,30,31
 393 229 393 229 418 204 c 0,32,33
 462 160 462 160 498.5 160 c 128,-1,34
 535 160 535 160 556 167.5 c 128,-1,35
 577 175 577 175 594 189 c 0,36,37
 629 219 629 219 629 267 c 2,38,-1
 629 886 l 1,39,-1
 511 886 l 2,40,41
 462 886 462 886 436 860 c 0,42,43
 393 817 393 817 393 767 c 2,44,-1
 393 279 l 2,30,31
EndSplineSet
EndChar

StartChar: r
Encoding: 114 114 104
Width: 852
GlyphClass: 2
Flags: W
LayerCount: 2
Fore
SplineSet
620 1086 m 0,0,1
 645 1086 645 1086 669 1079 c 128,-1,2
 693 1072 693 1072 714 1057 c 0,3,4
 762 1022 762 1022 762 960 c 0,5,6
 762 910 762 910 736 885 c 0,7,8
 691 842 691 842 652 842 c 0,9,10
 602 842 602 842 561 874 c 1,11,12
 529 895 529 895 489 895 c 128,-1,13
 449 895 449 895 426 869.5 c 128,-1,14
 403 844 403 844 403 805 c 2,15,-1
 403 98 l 2,16,17
 403 50 403 50 378 24 c 1,18,19
 333 -20 333 -20 296.5 -20 c 128,-1,20
 260 -20 260 -20 238.5 -10.5 c 128,-1,21
 217 -1 217 -1 201 15 c 0,22,23
 166 50 166 50 166 98 c 2,24,-1
 166 966 l 2,25,26
 166 1015 166 1015 192 1042 c 0,27,28
 234 1086 234 1086 272.5 1086 c 128,-1,29
 311 1086 311 1086 330 1077.5 c 128,-1,30
 349 1069 349 1069 362 1058 c 0,31,32
 380 1042 380 1042 388 1025.5 c 128,-1,33
 396 1009 396 1009 401.5 1001 c 128,-1,34
 407 993 407 993 419.5 993 c 128,-1,35
 432 993 432 993 440 1001 c 2,36,-1
 458 1018 l 1,37,38
 536 1086 536 1086 620 1086 c 0,0,1
EndSplineSet
EndChar

StartChar: s
Encoding: 115 115 105
Width: 1023
GlyphClass: 2
Flags: W
LayerCount: 2
Fore
SplineSet
223 26 m 128,-1,1
 196 52 196 52 196 80 c 128,-1,2
 196 108 196 108 203.5 124.5 c 128,-1,3
 211 141 211 141 224 154 c 0,4,5
 251 181 251 181 287 181 c 2,6,-1
 508 181 l 2,7,8
 569 181 569 181 606 215.5 c 128,-1,9
 643 250 643 250 643 301 c 128,-1,10
 643 352 643 352 615 383.5 c 128,-1,11
 587 415 587 415 546 428 c 1,12,-1
 366 478 l 1,13,14
 273 506 273 506 218 582 c 0,15,16
 162 659 162 659 162 745 c 128,-1,17
 162 831 162 831 187.5 887 c 128,-1,18
 213 943 213 943 256 983 c 0,19,20
 345 1066 345 1066 476 1066 c 2,21,-1
 720 1066 l 2,22,23
 758 1066 758 1066 783 1039.5 c 128,-1,24
 808 1013 808 1013 808 975 c 256,25,26
 808 937 808 937 783 911.5 c 128,-1,27
 758 886 758 886 720 886 c 2,28,-1
 495 886 l 2,29,30
 444 886 444 886 415.5 856 c 128,-1,31
 387 826 387 826 387 785 c 0,32,33
 387 721 387 721 458 689 c 1,34,-1
 654 632 l 1,35,36
 812 579 812 579 864 432 c 0,37,38
 881 382 881 382 881 317 c 128,-1,39
 881 252 881 252 854.5 193 c 128,-1,40
 828 134 828 134 784 91 c 0,41,42
 691 0 691 0 565 0 c 2,43,-1
 287 0 l 2,44,0
 250 0 250 0 223 26 c 128,-1,1
EndSplineSet
EndChar

StartChar: t
Encoding: 116 116 106
Width: 849
GlyphClass: 2
Flags: W
LayerCount: 2
Fore
SplineSet
734 154 m 128,-1,1
 759 127 759 127 759 89.5 c 128,-1,2
 759 52 759 52 734 26 c 128,-1,3
 709 0 709 0 671 0 c 2,4,-1
 551 0 l 2,5,6
 429 0 429 0 342 87 c 0,7,8
 256 173 256 173 256 296 c 2,9,-1
 256 890 l 1,10,-1
 138 890 l 2,11,12
 81 890 81 890 57 944 c 0,13,14
 50 960 50 960 50 978 c 0,15,16
 50 1035 50 1035 104 1059 c 0,17,18
 120 1066 120 1066 138 1066 c 2,19,-1
 256 1066 l 1,20,-1
 256 1274 l 2,21,22
 256 1353 256 1353 328 1384 c 0,23,24
 349 1394 349 1394 374 1394 c 0,25,26
 423 1394 423 1394 448 1368 c 1,27,28
 492 1325 492 1325 492 1274 c 2,29,-1
 492 1066 l 1,30,-1
 673 1066 l 2,31,32
 708 1066 708 1066 727 1047 c 0,33,34
 759 1015 759 1015 759 978.5 c 128,-1,35
 759 942 759 942 734 916 c 128,-1,36
 709 890 709 890 673 890 c 2,37,-1
 492 890 l 1,38,-1
 492 298 l 2,39,40
 492 248 492 248 518 224 c 1,41,42
 562 181 562 181 610 181 c 2,43,-1
 671 181 l 2,44,0
 709 181 709 181 734 154 c 128,-1,1
EndSplineSet
EndChar

StartChar: u
Encoding: 117 117 107
Width: 1023
GlyphClass: 2
Flags: W
LayerCount: 2
Fore
SplineSet
702.5 1076.5 m 128,-1,1
 724 1086 724 1086 748.5 1086 c 128,-1,2
 773 1086 773 1086 794.5 1077 c 128,-1,3
 816 1068 816 1068 832 1052 c 0,4,5
 867 1017 867 1017 867 969 c 2,6,-1
 867 100 l 2,7,8
 867 51 867 51 842 24 c 0,9,10
 799 -20 799 -20 760.5 -20 c 128,-1,11
 722 -20 722 -20 703 -11.5 c 128,-1,12
 684 -3 684 -3 672 8 c 0,13,14
 653 24 653 24 645.5 40.5 c 128,-1,15
 638 57 638 57 632 65 c 128,-1,16
 626 73 626 73 613.5 73 c 128,-1,17
 601 73 601 73 593 64.5 c 128,-1,18
 585 56 585 56 567 38 c 0,19,20
 507 -20 507 -20 435.5 -20 c 128,-1,21
 364 -20 364 -20 316 3.5 c 128,-1,22
 268 27 268 27 232 68 c 0,23,24
 156 155 156 155 156 276 c 2,25,-1
 156 969 l 2,26,27
 156 1045 156 1045 228 1076 c 0,28,29
 249 1086 249 1086 273.5 1086 c 128,-1,30
 298 1086 298 1086 320 1077 c 128,-1,31
 342 1068 342 1068 358 1052 c 0,32,33
 393 1017 393 1017 393 969 c 2,34,-1
 393 279 l 2,35,36
 393 229 393 229 418 204 c 0,37,38
 462 160 462 160 510 160 c 0,39,40
 589 160 589 160 620 222 c 0,41,42
 630 242 630 242 630 267 c 2,43,-1
 630 969 l 2,44,45
 630 1018 630 1018 655.5 1042.5 c 128,-1,0
 681 1067 681 1067 702.5 1076.5 c 128,-1,1
EndSplineSet
EndChar

StartChar: v
Encoding: 118 118 108
Width: 1023
GlyphClass: 2
Flags: W
LayerCount: 2
Fore
SplineSet
104 945 m 2,0,1
 100 958 100 958 100 977.5 c 128,-1,2
 100 997 100 997 108.5 1017 c 128,-1,3
 117 1037 117 1037 131 1052 c 0,4,5
 161 1086 161 1086 193.5 1086 c 128,-1,6
 226 1086 226 1086 245 1080 c 128,-1,7
 264 1074 264 1074 280 1064 c 0,8,9
 316 1040 316 1040 324 1002 c 1,10,-1
 384 778 l 1,11,12
 393 740 393 740 408 688 c 2,13,-1
 442 572 l 1,14,15
 488 408 488 408 515 271 c 1,16,17
 532 356 532 356 550 432 c 0,18,19
 594 617 594 617 610 679 c 1,20,-1
 699 1002 l 1,21,22
 711 1059 711 1059 777 1080 c 0,23,24
 796 1086 796 1086 817.5 1086 c 128,-1,25
 839 1086 839 1086 859 1076.5 c 128,-1,26
 879 1067 879 1067 893 1051 c 0,27,28
 923 1017 923 1017 923 987 c 128,-1,29
 923 957 923 957 919 945 c 2,30,-1
 637 78 l 1,31,32
 625 37 625 37 593 8.5 c 128,-1,33
 561 -20 561 -20 525.5 -20 c 128,-1,34
 490 -20 490 -20 469.5 -12 c 128,-1,35
 449 -4 449 -4 432 10 c 0,36,37
 400 38 400 38 387 81 c 1,38,-1
 104 945 l 2,0,1
EndSplineSet
EndChar

StartChar: w
Encoding: 119 119 109
Width: 1535
GlyphClass: 2
Flags: W
LayerCount: 2
Fore
SplineSet
1123 966 m 2,0,1
 1123 1015 1123 1015 1148 1042 c 0,2,3
 1191 1086 1191 1086 1243 1086 c 0,4,5
 1293 1086 1293 1086 1317 1060 c 1,6,7
 1360 1016 1360 1016 1360 966 c 2,8,-1
 1360 273 l 2,9,10
 1360 140 1360 140 1268 59 c 0,11,12
 1177 -20 1177 -20 1035 -20 c 0,13,14
 873 -20 873 -20 791 80 c 1,15,16
 765 102 765 102 745 80 c 1,17,18
 661 -20 661 -20 501 -20 c 0,19,20
 360 -20 360 -20 269 60 c 0,21,22
 175 142 175 142 175 276 c 2,23,-1
 175 966 l 2,24,25
 175 1015 175 1015 200 1042 c 0,26,27
 243 1086 243 1086 295 1086 c 0,28,29
 345 1086 345 1086 369 1060 c 1,30,31
 412 1016 412 1016 412 966 c 2,32,-1
 412 267 l 2,33,34
 412 216 412 216 446 188.5 c 128,-1,35
 480 161 480 161 529.5 161 c 128,-1,36
 579 161 579 161 614 187.5 c 128,-1,37
 649 214 649 214 649 267 c 2,38,-1
 649 965 l 2,39,40
 649 1014 649 1014 674 1041 c 0,41,42
 717 1085 717 1085 769 1085 c 0,43,44
 819 1085 819 1085 843 1060 c 0,45,46
 886 1015 886 1015 886 965 c 2,47,-1
 886 267 l 2,48,49
 886 214 886 214 920.5 187.5 c 128,-1,50
 955 161 955 161 1005 161 c 256,51,52
 1055 161 1055 161 1089 188.5 c 128,-1,53
 1123 216 1123 216 1123 267 c 2,54,-1
 1123 966 l 2,0,1
EndSplineSet
EndChar

StartChar: x
Encoding: 120 120 110
Width: 1023
GlyphClass: 2
Flags: W
LayerCount: 2
Fore
SplineSet
157 342 m 2,0,1
 157 502 157 502 305 562 c 1,2,3
 231 602 231 602 205 643 c 0,4,5
 157 716 157 716 157 814 c 2,6,-1
 157 966 l 2,7,8
 157 1016 157 1016 182 1042 c 0,9,10
 224 1086 224 1086 274 1086 c 256,11,12
 324 1086 324 1086 350 1060 c 0,13,14
 393 1017 393 1017 393 966 c 2,15,-1
 393 770 l 2,16,17
 393 721 393 721 418 695 c 0,18,19
 459 652 459 652 514 652 c 0,20,21
 589 652 589 652 620 724 c 0,22,23
 630 745 630 745 630 770 c 2,24,-1
 630 966 l 2,25,26
 630 1045 630 1045 702 1076 c 0,27,28
 723 1086 723 1086 748.5 1086 c 128,-1,29
 774 1086 774 1086 795 1076.5 c 128,-1,30
 816 1067 816 1067 832 1051 c 0,31,32
 866 1017 866 1017 866 966 c 2,33,-1
 866 814 l 2,34,35
 866 674 866 674 778 602 c 0,36,37
 751 580 751 580 718 562 c 1,38,39
 866 502 866 502 866 342 c 2,40,-1
 866 97 l 2,41,42
 866 48 866 48 841 23 c 0,43,44
 798 -20 798 -20 760.5 -20 c 128,-1,45
 723 -20 723 -20 701.5 -11 c 128,-1,46
 680 -2 680 -2 664 14 c 0,47,48
 630 48 630 48 630 97 c 2,49,-1
 630 353 l 2,50,51
 630 402 630 402 606 428 c 1,52,53
 563 472 563 472 525.5 472 c 128,-1,54
 488 472 488 472 466 463 c 128,-1,55
 444 454 444 454 428 438 c 0,56,57
 393 405 393 405 393 353 c 2,58,-1
 393 97 l 2,59,60
 393 48 393 48 368 23 c 0,61,62
 325 -20 325 -20 274 -20 c 256,63,64
 223 -20 223 -20 199 5 c 0,65,66
 157 49 157 49 157 97 c 2,67,-1
 157 342 l 2,0,1
EndSplineSet
EndChar

StartChar: y
Encoding: 121 121 111
Width: 1023
GlyphClass: 2
Flags: W
LayerCount: 2
Fore
SplineSet
701.5 1076.5 m 128,-1,1
 723 1086 723 1086 747.5 1086 c 128,-1,2
 772 1086 772 1086 794 1077 c 128,-1,3
 816 1068 816 1068 832 1052 c 0,4,5
 867 1017 867 1017 867 969 c 2,6,-1
 867 -178 l 2,7,8
 867 -301 867 -301 780 -387 c 0,9,10
 691 -474 691 -474 569 -474 c 2,11,-1
 392 -474 l 2,12,13
 354 -474 354 -474 327.5 -448 c 128,-1,14
 301 -422 301 -422 301 -384 c 256,15,16
 301 -346 301 -346 327.5 -319.5 c 128,-1,17
 354 -293 354 -293 392 -293 c 2,18,-1
 510 -293 l 2,19,20
 561 -293 561 -293 586 -268 c 0,21,22
 629 -225 629 -225 629 -176 c 2,23,-1
 629 41 l 2,24,25
 629 60 629 60 618.5 66.5 c 128,-1,26
 608 73 608 73 598 73 c 128,-1,27
 588 73 588 73 580 64 c 1,28,-1
 563 48 l 1,29,30
 495 -20 495 -20 406 -20 c 0,31,32
 298 -20 298 -20 227 68 c 0,33,34
 156 155 156 155 156 276 c 2,35,-1
 156 969 l 2,36,37
 156 1045 156 1045 228 1076 c 0,38,39
 249 1086 249 1086 273.5 1086 c 128,-1,40
 298 1086 298 1086 320 1077 c 128,-1,41
 342 1068 342 1068 358 1052 c 0,42,43
 393 1017 393 1017 393 969 c 2,44,-1
 393 279 l 2,45,46
 393 230 393 230 418 204 c 0,47,48
 460 160 460 160 497 160 c 128,-1,49
 534 160 534 160 555.5 167.5 c 128,-1,50
 577 175 577 175 594 189 c 0,51,52
 629 219 629 219 629 267 c 2,53,-1
 629 969 l 2,54,55
 629 1018 629 1018 654.5 1042.5 c 128,-1,0
 680 1067 680 1067 701.5 1076.5 c 128,-1,1
EndSplineSet
EndChar

StartChar: z
Encoding: 122 122 112
Width: 854
GlyphClass: 2
Flags: W
LayerCount: 2
Fore
SplineSet
80 975 m 0,0,1
 80 1035 80 1035 136 1059 c 0,2,3
 152 1066 152 1066 171 1066 c 2,4,-1
 637 1066 l 2,5,6
 690 1066 690 1066 726 1030 c 0,7,8
 761 995 761 995 761 956.5 c 128,-1,9
 761 918 761 918 744 890 c 2,10,-1
 339 181 l 1,11,-1
 670 181 l 2,12,13
 706 181 706 181 726 161 c 0,14,15
 761 126 761 126 761 89 c 128,-1,16
 761 52 761 52 734 26 c 128,-1,17
 707 0 707 0 670 0 c 2,18,-1
 189 0 l 2,19,20
 107 0 107 0 76 74 c 0,21,22
 68 94 68 94 68 112 c 0,23,24
 68 148 68 148 85 176 c 2,25,-1
 490 886 l 1,26,-1
 171 886 l 2,27,28
 134 886 134 886 114 905 c 0,29,30
 80 937 80 937 80 975 c 0,0,1
EndSplineSet
EndChar

StartChar: braceleft
Encoding: 123 123 113
Width: 1023
GlyphClass: 2
Flags: W
LayerCount: 2
Fore
SplineSet
193.5 701.5 m 128,-1,1
 219 728 219 728 246 732.5 c 128,-1,2
 273 737 273 737 290.5 746 c 128,-1,3
 308 755 308 755 322 770 c 0,4,5
 355 805 355 805 355 852 c 2,6,-1
 355 1086 l 2,7,8
 355 1273 355 1273 448 1398 c 0,9,10
 551 1538 551 1538 731 1538 c 2,11,-1
 765 1538 l 2,12,13
 802 1538 802 1538 828.5 1511.5 c 128,-1,14
 855 1485 855 1485 855 1457.5 c 128,-1,15
 855 1430 855 1430 848 1413.5 c 128,-1,16
 841 1397 841 1397 828 1385 c 0,17,18
 800 1358 800 1358 766.5 1358 c 128,-1,19
 733 1358 733 1358 702.5 1342 c 128,-1,20
 672 1326 672 1326 647 1294 c 0,21,22
 592 1224 592 1224 592 1096 c 2,23,-1
 592 886 l 2,24,25
 592 746 592 746 504 674 c 0,26,27
 477 652 477 652 444 634 c 1,28,29
 516 595 516 595 543 553 c 0,30,31
 592 478 592 478 592 382 c 2,32,-1
 592 171 l 2,33,34
 592 -17 592 -17 702 -75 c 0,35,36
 733 -91 733 -91 758 -91 c 128,-1,37
 783 -91 783 -91 799.5 -98.5 c 128,-1,38
 816 -106 816 -106 828 -118 c 0,39,40
 855 -143 855 -143 855 -180.5 c 128,-1,41
 855 -218 855 -218 828.5 -244.5 c 128,-1,42
 802 -271 802 -271 765 -271 c 2,43,-1
 731 -271 l 2,44,45
 551 -271 551 -271 448 -131 c 0,46,47
 355 -6 355 -6 355 181 c 2,48,-1
 355 416 l 2,49,50
 355 463 355 463 332 488 c 0,51,52
 295 527 295 527 257 534 c 128,-1,53
 219 541 219 541 193.5 566.5 c 128,-1,54
 168 592 168 592 168 633.5 c 128,-1,0
 168 675 168 675 193.5 701.5 c 128,-1,1
EndSplineSet
EndChar

StartChar: bar
Encoding: 124 124 114
Width: 678
GlyphClass: 2
Flags: W
LayerCount: 2
Fore
SplineSet
303.5 1531 m 128,-1,1
 320 1538 320 1538 338.5 1538 c 128,-1,2
 357 1538 357 1538 373.5 1531 c 128,-1,3
 390 1524 390 1524 402 1512 c 0,4,5
 429 1487 429 1487 429 1450 c 2,6,-1
 429 -271 l 2,7,8
 429 -306 429 -306 410 -326 c 1,9,10
 376 -359 376 -359 348 -359 c 128,-1,11
 320 -359 320 -359 303.5 -352 c 128,-1,12
 287 -345 287 -345 274 -333 c 0,13,14
 248 -308 248 -308 248 -271 c 2,15,-1
 248 1450 l 2,16,17
 248 1485 248 1485 267.5 1504.5 c 128,-1,0
 287 1524 287 1524 303.5 1531 c 128,-1,1
EndSplineSet
EndChar

StartChar: braceright
Encoding: 125 125 115
Width: 1023
GlyphClass: 2
Flags: W
LayerCount: 2
Fore
SplineSet
829.5 701.5 m 128,-1,1
 804 728 804 728 777 732.5 c 128,-1,2
 750 737 750 737 732.5 746 c 128,-1,3
 715 755 715 755 701 770 c 0,4,5
 668 805 668 805 668 852 c 2,6,-1
 668 1086 l 2,7,8
 668 1273 668 1273 575 1398 c 0,9,10
 472 1538 472 1538 292 1538 c 2,11,-1
 258 1538 l 2,12,13
 221 1538 221 1538 194.5 1511.5 c 128,-1,14
 168 1485 168 1485 168 1457.5 c 128,-1,15
 168 1430 168 1430 175 1413.5 c 128,-1,16
 182 1397 182 1397 195 1385 c 0,17,18
 223 1358 223 1358 256.5 1358 c 128,-1,19
 290 1358 290 1358 320.5 1342 c 128,-1,20
 351 1326 351 1326 376 1294 c 0,21,22
 431 1224 431 1224 431 1096 c 2,23,-1
 431 886 l 2,24,25
 431 746 431 746 519 674 c 0,26,27
 546 652 546 652 579 634 c 1,28,29
 507 595 507 595 480 553 c 0,30,31
 431 478 431 478 431 382 c 2,32,-1
 431 171 l 2,33,34
 431 -17 431 -17 321 -75 c 0,35,36
 290 -91 290 -91 265 -91 c 128,-1,37
 240 -91 240 -91 223.5 -98.5 c 128,-1,38
 207 -106 207 -106 195 -118 c 0,39,40
 168 -143 168 -143 168 -180.5 c 128,-1,41
 168 -218 168 -218 194.5 -244.5 c 128,-1,42
 221 -271 221 -271 258 -271 c 2,43,-1
 292 -271 l 2,44,45
 472 -271 472 -271 575 -131 c 0,46,47
 668 -6 668 -6 668 181 c 2,48,-1
 668 416 l 2,49,50
 668 463 668 463 691 488 c 0,51,52
 728 527 728 527 766 534 c 128,-1,53
 804 541 804 541 829.5 566.5 c 128,-1,54
 855 592 855 592 855 633.5 c 128,-1,0
 855 675 855 675 829.5 701.5 c 128,-1,1
EndSplineSet
EndChar

StartChar: asciitilde
Encoding: 126 126 116
Width: 1023
GlyphClass: 2
Flags: W
LayerCount: 2
Fore
SplineSet
783 588 m 1,0,1
 805 606 805 606 838 606 c 0,2,3
 869 606 869 606 888 587 c 128,-1,4
 907 568 907 568 907 538 c 128,-1,5
 907 508 907 508 882.5 476 c 128,-1,6
 858 444 858 444 828.5 412 c 128,-1,7
 799 380 799 380 765 357 c 0,8,9
 691 307 691 307 603 307 c 0,10,11
 493 307 493 307 397 413 c 1,12,-1
 380 430 l 2,13,14
 371 439 371 439 360 439 c 0,15,16
 347 439 347 439 315 413 c 1,17,-1
 240 356 l 1,18,19
 218 338 218 338 185 338 c 0,20,21
 154 338 154 338 135 357 c 128,-1,22
 116 376 116 376 116 406 c 128,-1,23
 116 436 116 436 140 468.5 c 128,-1,24
 164 501 164 501 193.5 533 c 128,-1,25
 223 565 223 565 257 588 c 0,26,27
 329 637 329 637 420 637 c 0,28,29
 512 637 512 637 584 572 c 0,30,31
 606 552 606 552 620 537 c 1,32,-1
 644 514 l 2,33,34
 652 505 652 505 663 505 c 0,35,36
 676 505 676 505 708 531 c 1,37,-1
 783 588 l 1,0,1
EndSplineSet
EndChar

StartChar: exclamdown
Encoding: 161 161 118
Width: 513
GlyphClass: 2
Flags: W
LayerCount: 2
Fore
SplineSet
411 177 m 2,0,1
 422 45 422 45 336 -3 c 0,2,3
 305 -20 305 -20 261 -20 c 128,-1,4
 217 -20 217 -20 185.5 -3 c 128,-1,5
 154 14 154 14 134 42 c 0,6,7
 94 96 94 96 101 177 c 2,8,-1
 160 837 l 2,9,10
 164 876 164 876 191.5 903.5 c 128,-1,11
 219 931 219 931 259 931 c 256,12,13
 299 931 299 931 325 904 c 128,-1,14
 351 877 351 877 355 837 c 2,15,-1
 411 177 l 2,0,1
259 1111 m 256,16,17
 204 1111 204 1111 164 1150 c 1,18,19
 124 1191 124 1191 124 1232 c 128,-1,20
 124 1273 124 1273 135 1297 c 128,-1,21
 146 1321 146 1321 164 1340 c 1,22,23
 204 1379 204 1379 259 1379 c 256,24,25
 314 1379 314 1379 354 1340 c 1,26,27
 394 1299 394 1299 394 1258 c 0,28,29
 394 1191 394 1191 354 1151 c 128,-1,30
 314 1111 314 1111 259 1111 c 256,16,17
EndSplineSet
EndChar

StartChar: cent
Encoding: 162 162 119
Width: 1023
GlyphClass: 2
Flags: W
LayerCount: 2
Fore
SplineSet
622 984 m 1,0,-1
 622 314 l 1,1,-1
 757 314 l 2,2,3
 816 314 816 314 840 258 c 0,4,5
 847 241 847 241 847 222.5 c 128,-1,6
 847 204 847 204 840 187.5 c 128,-1,7
 833 171 833 171 821 159 c 0,8,9
 795 133 795 133 757 133 c 2,10,-1
 622 133 l 1,11,-1
 622 61 l 2,12,13
 622 34 622 34 606 16.5 c 128,-1,14
 590 -1 590 -1 566 -0.5 c 128,-1,15
 542 0 542 0 526 16.5 c 128,-1,16
 510 33 510 33 510 58 c 2,17,-1
 510 133 l 1,18,-1
 472 133 l 2,19,20
 350 133 350 133 263 220 c 128,-1,21
 176 307 176 307 176 429 c 2,22,-1
 176 925 l 2,23,24
 176 1050 176 1050 258 1128 c 0,25,26
 346 1213 346 1213 510 1219 c 1,27,-1
 510 1302 l 2,28,29
 510 1326 510 1326 526.5 1342.5 c 128,-1,30
 543 1359 543 1359 567 1359 c 128,-1,31
 591 1359 591 1359 606.5 1342.5 c 128,-1,32
 622 1326 622 1326 622 1303 c 2,33,-1
 622 1212 l 1,34,35
 724 1197 724 1197 785.5 1151 c 128,-1,36
 847 1105 847 1105 847 1036 c 0,37,38
 847 986 847 986 822 961 c 0,39,40
 779 918 779 918 723.5 918 c 128,-1,41
 668 918 668 918 622 984 c 1,0,-1
413 431 m 2,42,43
 413 386 413 386 440.5 354.5 c 128,-1,44
 468 323 468 323 510 316 c 1,45,-1
 510 1037 l 1,46,47
 468 1029 468 1029 440.5 997 c 128,-1,48
 413 965 413 965 413 920 c 2,49,-1
 413 431 l 2,42,43
EndSplineSet
EndChar

StartChar: sterling
Encoding: 163 163 120
Width: 1023
GlyphClass: 2
Flags: W
LayerCount: 2
Fore
SplineSet
453 206 m 0,0,1
 453 176 453 176 481 176 c 2,2,-1
 837 176 l 2,3,4
 892 176 892 176 916 122 c 0,5,6
 923 106 923 106 923 88 c 0,7,8
 923 31 923 31 870 7 c 0,9,10
 855 0 855 0 837 0 c 2,11,-1
 191 0 l 2,12,13
 153 0 153 0 127 26 c 128,-1,14
 101 52 101 52 101 89.5 c 128,-1,15
 101 127 101 127 127 154 c 128,-1,16
 153 181 153 181 184.5 181 c 128,-1,17
 216 181 216 181 237.5 190 c 128,-1,18
 259 199 259 199 275 214 c 0,19,20
 309 247 309 247 309 298 c 2,21,-1
 309 608 l 1,22,-1
 200 608 l 2,23,24
 173 608 173 608 155.5 624 c 128,-1,25
 138 640 138 640 138.5 664 c 128,-1,26
 139 688 139 688 155.5 704 c 128,-1,27
 172 720 172 720 197 720 c 2,28,-1
 309 720 l 1,29,-1
 309 1063 l 2,30,31
 309 1185 309 1185 396 1272 c 128,-1,32
 483 1359 483 1359 605 1359 c 2,33,-1
 720 1359 l 2,34,35
 779 1359 779 1359 803 1304 c 0,36,37
 810 1287 810 1287 810 1259 c 128,-1,38
 810 1231 810 1231 784 1205 c 128,-1,39
 758 1179 758 1179 720 1179 c 2,40,-1
 665 1179 l 2,41,42
 615 1179 615 1179 590 1154 c 0,43,44
 546 1110 546 1110 546 1060 c 2,45,-1
 546 720 l 1,46,-1
 742 720 l 2,47,48
 766 720 766 720 782.5 703.5 c 128,-1,49
 799 687 799 687 799 663 c 128,-1,50
 799 639 799 639 782.5 623.5 c 128,-1,51
 766 608 766 608 743 608 c 2,52,-1
 546 608 l 1,53,-1
 546 398 l 2,54,55
 546 310 546 310 478 242 c 2,56,-1
 462 226 l 2,57,58
 453 217 453 217 453 206 c 0,0,1
EndSplineSet
EndChar

StartChar: currency
Encoding: 164 164 121
Width: 1023
GlyphClass: 2
Flags: W
LayerCount: 2
Fore
SplineSet
227 1048 m 1,0,1
 320 1135 320 1135 509.5 1135 c 128,-1,2
 699 1135 699 1135 796 1048 c 1,3,-1
 945 1197 l 2,4,5
 963 1215 963 1215 986 1215 c 128,-1,6
 1009 1215 1009 1215 1025.5 1199 c 128,-1,7
 1042 1183 1042 1183 1042 1159 c 128,-1,8
 1042 1135 1042 1135 1022 1116 c 2,9,-1
 862 955 l 1,10,11
 885 898 885 898 885 828 c 2,12,-1
 885 536 l 2,13,14
 885 465 885 465 864 410 c 1,15,-1
 1022 252 l 2,16,17
 1042 233 1042 233 1042 209 c 128,-1,18
 1042 185 1042 185 1025.5 169 c 128,-1,19
 1009 153 1009 153 986 153 c 128,-1,20
 963 153 963 153 945 171 c 2,21,-1
 801 315 l 1,22,23
 710 230 710 230 516.5 230 c 128,-1,24
 323 230 323 230 228 321 c 1,25,-1
 78 171 l 2,26,27
 60 153 60 153 37 153 c 128,-1,28
 14 153 14 153 -2.5 169 c 128,-1,29
 -19 185 -19 185 -19 209 c 128,-1,30
 -19 233 -19 233 1 252 c 2,31,-1
 165 417 l 1,32,33
 145 466 145 466 145 537 c 2,34,-1
 145 829 l 2,35,36
 145 898 145 898 164 951 c 1,37,-1
 1 1116 l 2,38,39
 -19 1135 -19 1135 -19 1159 c 128,-1,40
 -19 1183 -19 1183 -2.5 1199 c 128,-1,41
 14 1215 14 1215 37 1215 c 128,-1,42
 60 1215 60 1215 78 1197 c 2,43,-1
 227 1048 l 1,0,1
650 774 m 2,44,45
 650 863 650 863 627 897 c 0,46,47
 586 956 586 956 507 956 c 0,48,49
 403 956 403 956 386 848 c 0,50,51
 380 815 380 815 380 774 c 2,52,-1
 380 591 l 2,53,54
 380 502 380 502 403 468 c 0,55,56
 444 409 444 409 523 409 c 0,57,58
 627 409 627 409 644 516 c 0,59,60
 650 550 650 550 650 591 c 2,61,-1
 650 774 l 2,44,45
EndSplineSet
EndChar

StartChar: yen
Encoding: 165 165 122
Width: 1023
GlyphClass: 2
Flags: W
LayerCount: 2
Fore
SplineSet
391 348 m 1,0,-1
 192 348 l 2,1,2
 165 348 165 348 147.5 364 c 128,-1,3
 130 380 130 380 130.5 404 c 128,-1,4
 131 428 131 428 147.5 444 c 128,-1,5
 164 460 164 460 189 460 c 2,6,-1
 380 460 l 1,7,-1
 347 563 l 1,8,-1
 192 563 l 2,9,10
 165 563 165 563 147.5 579 c 128,-1,11
 130 595 130 595 130.5 619 c 128,-1,12
 131 643 131 643 147.5 659 c 128,-1,13
 164 675 164 675 189 675 c 2,14,-1
 311 675 l 1,15,-1
 137 1218 l 1,16,17
 131 1241 131 1241 131 1254 c 128,-1,18
 131 1267 131 1267 138.5 1286.5 c 128,-1,19
 146 1306 146 1306 160 1322 c 0,20,21
 192 1359 192 1359 235 1359 c 128,-1,22
 278 1359 278 1359 312 1336 c 128,-1,23
 346 1313 346 1313 357 1275 c 2,24,-1
 406 1101 l 2,25,26
 467 885 467 885 511 614 c 1,27,28
 558 900 558 900 617 1101 c 2,29,-1
 668 1275 l 2,30,31
 686 1333 686 1333 747 1353 c 0,32,33
 765 1359 765 1359 787.5 1359 c 128,-1,34
 810 1359 810 1359 830 1348.5 c 128,-1,35
 850 1338 850 1338 864 1322 c 0,36,37
 893 1289 893 1289 893 1262 c 128,-1,38
 893 1235 893 1235 888 1218 c 2,39,-1
 711 675 l 1,40,-1
 836 675 l 2,41,42
 860 675 860 675 876.5 658.5 c 128,-1,43
 893 642 893 642 893 618 c 128,-1,44
 893 594 893 594 876.5 578.5 c 128,-1,45
 860 563 860 563 837 563 c 2,46,-1
 674 563 l 1,47,-1
 641 460 l 1,48,-1
 836 460 l 2,49,50
 860 460 860 460 876.5 443.5 c 128,-1,51
 893 427 893 427 893 403 c 128,-1,52
 893 379 893 379 876.5 363.5 c 128,-1,53
 860 348 860 348 837 348 c 2,54,-1
 629 348 l 1,55,-1
 629 98 l 2,56,57
 629 50 629 50 604 24 c 1,58,59
 560 -19 560 -19 523 -19 c 128,-1,60
 486 -19 486 -19 464 -9.5 c 128,-1,61
 442 0 442 0 426 16 c 0,62,63
 391 49 391 49 391 98 c 2,64,-1
 391 348 l 1,0,-1
EndSplineSet
EndChar

StartChar: brokenbar
Encoding: 166 166 123
Width: 678
GlyphClass: 2
Flags: W
LayerCount: 2
Fore
SplineSet
303.5 1531 m 128,-1,1
 320 1538 320 1538 338.5 1538 c 128,-1,2
 357 1538 357 1538 373.5 1531 c 128,-1,3
 390 1524 390 1524 402 1512 c 0,4,5
 429 1487 429 1487 429 1450 c 2,6,-1
 429 780 l 2,7,8
 429 745 429 745 410 726 c 0,9,10
 376 692 376 692 348 692 c 128,-1,11
 320 692 320 692 303.5 699 c 128,-1,12
 287 706 287 706 274 718 c 0,13,14
 248 743 248 743 248 780 c 2,15,-1
 248 1450 l 2,16,17
 248 1485 248 1485 267.5 1504.5 c 128,-1,0
 287 1524 287 1524 303.5 1531 c 128,-1,1
303.5 480 m 128,-1,19
 320 487 320 487 338.5 487 c 128,-1,20
 357 487 357 487 373.5 480 c 128,-1,21
 390 473 390 473 402 461 c 0,22,23
 429 436 429 436 429 399 c 2,24,-1
 429 -271 l 2,25,26
 429 -306 429 -306 410 -326 c 1,27,28
 376 -359 376 -359 348 -359 c 128,-1,29
 320 -359 320 -359 303.5 -352 c 128,-1,30
 287 -345 287 -345 274 -333 c 0,31,32
 248 -308 248 -308 248 -271 c 2,33,-1
 248 399 l 2,34,35
 248 434 248 434 267.5 453.5 c 128,-1,18
 287 473 287 473 303.5 480 c 128,-1,19
EndSplineSet
EndChar

StartChar: section
Encoding: 167 167 124
Width: 1023
GlyphClass: 2
Flags: W
LayerCount: 2
Fore
SplineSet
722 323 m 1,0,1
 851 239 851 239 851 74 c 0,2,3
 851 -60 851 -60 757 -147 c 0,4,5
 668 -230 668 -230 537 -230 c 2,6,-1
 313 -230 l 2,7,8
 275 -230 275 -230 250 -203.5 c 128,-1,9
 225 -177 225 -177 225 -139 c 256,10,11
 225 -101 225 -101 250 -75.5 c 128,-1,12
 275 -50 275 -50 313 -50 c 2,13,-1
 518 -50 l 2,14,15
 569 -50 569 -50 597.5 -20 c 128,-1,16
 626 10 626 10 626 51 c 0,17,18
 626 124 626 124 555 147 c 2,19,-1
 379 204 l 2,20,21
 273 238 273 238 212 326 c 1,22,23
 151 412 151 412 151 513 c 0,24,25
 151 706 151 706 301 806 c 1,26,27
 172 890 172 890 172 1055 c 0,28,29
 172 1189 172 1189 266 1276 c 0,30,31
 355 1359 355 1359 486 1359 c 2,32,-1
 710 1359 l 2,33,34
 748 1359 748 1359 773 1332.5 c 128,-1,35
 798 1306 798 1306 798 1268 c 256,36,37
 798 1230 798 1230 773 1204.5 c 128,-1,38
 748 1179 748 1179 710 1179 c 2,39,-1
 505 1179 l 2,40,41
 454 1179 454 1179 425.5 1149 c 128,-1,42
 397 1119 397 1119 397 1078 c 0,43,44
 397 1005 397 1005 468 982 c 2,45,-1
 644 925 l 1,46,47
 803 872 803 872 854 720 c 0,48,49
 871 667 871 667 871 604 c 0,50,51
 871 425 871 425 722 323 c 1,0,1
367 563 m 256,52,53
 367 498 367 498 410 452 c 0,54,55
 451 407 451 407 511 407 c 0,56,57
 572 407 572 407 614 452 c 0,58,59
 656 498 656 498 656 563 c 256,60,61
 656 628 656 628 614 674 c 0,62,63
 571 720 571 720 511 720 c 0,64,65
 452 720 452 720 410 674 c 0,66,67
 367 628 367 628 367 563 c 256,52,53
EndSplineSet
EndChar

StartChar: dieresis
Encoding: 168 168 125
Width: 1696
GlyphClass: 2
Flags: W
LayerCount: 2
Fore
SplineSet
649 1445 m 256,0,1
 704 1445 704 1445 744 1406 c 1,2,3
 784 1365 784 1365 784 1324 c 128,-1,4
 784 1283 784 1283 773 1259 c 128,-1,5
 762 1235 762 1235 744 1216 c 1,6,7
 704 1177 704 1177 649 1177 c 256,8,9
 594 1177 594 1177 554 1216 c 1,10,11
 514 1257 514 1257 514 1298 c 0,12,13
 514 1365 514 1365 554 1405 c 128,-1,14
 594 1445 594 1445 649 1445 c 256,0,1
920.5 1259 m 128,-1,16
 910 1283 910 1283 910 1310.5 c 128,-1,17
 910 1338 910 1338 920.5 1362.5 c 128,-1,18
 931 1387 931 1387 950 1406 c 0,19,20
 989 1445 989 1445 1030.5 1445 c 128,-1,21
 1072 1445 1072 1445 1096.5 1434.5 c 128,-1,22
 1121 1424 1121 1424 1140 1406 c 1,23,24
 1179 1366 1179 1366 1179 1324.5 c 128,-1,25
 1179 1283 1179 1283 1168.5 1259 c 128,-1,26
 1158 1235 1158 1235 1140 1216 c 1,27,28
 1100 1177 1100 1177 1058.5 1177 c 128,-1,29
 1017 1177 1017 1177 992.5 1187.5 c 128,-1,30
 968 1198 968 1198 949.5 1216.5 c 128,-1,15
 931 1235 931 1235 920.5 1259 c 128,-1,16
EndSplineSet
EndChar

StartChar: copyright
Encoding: 169 169 126
Width: 1698
GlyphClass: 2
Flags: W
LayerCount: 2
Fore
SplineSet
1409 362 m 2,0,1
 1409 187 1409 187 1266 85 c 0,2,3
 1119 -19 1119 -19 857 -19 c 0,4,5
 590 -19 590 -19 438 85 c 0,6,7
 288 188 288 188 288 364 c 2,8,-1
 288 977 l 2,9,10
 288 1152 288 1152 432 1254 c 0,11,12
 578 1358 578 1358 840 1358 c 0,13,14
 1107 1358 1107 1358 1259 1254 c 0,15,16
 1409 1151 1409 1151 1409 975 c 2,17,-1
 1409 362 l 2,0,1
1285 975 m 2,18,19
 1285 1106 1285 1106 1168 1182 c 0,20,21
 1048 1259 1048 1259 837 1259 c 0,22,23
 635 1259 635 1259 523 1182 c 0,24,25
 413 1107 413 1107 413 977 c 2,26,-1
 413 364 l 2,27,28
 413 233 413 233 530 157 c 0,29,30
 650 80 650 80 860 80 c 0,31,32
 1168 80 1168 80 1257 246 c 0,33,34
 1285 298 1285 298 1285 362 c 2,35,-1
 1285 975 l 2,18,19
928 884 m 1,36,37
 905 921 905 921 868.5 921 c 128,-1,38
 832 921 832 921 808.5 897 c 128,-1,39
 785 873 785 873 785 840 c 2,40,-1
 785 505 l 2,41,42
 785 472 785 472 808.5 448 c 128,-1,43
 832 424 832 424 866 424 c 2,44,-1
 1021 424 l 2,45,46
 1047 424 1047 424 1064.5 406 c 128,-1,47
 1082 388 1082 388 1082 362.5 c 128,-1,48
 1082 337 1082 337 1064.5 319 c 128,-1,49
 1047 301 1047 301 1021 301 c 2,50,-1
 825 301 l 2,51,52
 742 301 742 301 682.5 360.5 c 128,-1,53
 623 420 623 420 623 503 c 2,54,-1
 623 843 l 2,55,56
 623 930 623 930 683 986 c 1,57,58
 747 1044 747 1044 866 1044 c 0,59,60
 961 1044 961 1044 1005 1019 c 0,61,62
 1082 976 1082 976 1082 919 c 0,63,64
 1082 886 1082 886 1059.5 862 c 128,-1,65
 1037 838 1037 838 1006 838 c 0,66,67
 961 838 961 838 928 884 c 1,36,37
EndSplineSet
EndChar

StartChar: ordfeminine
Encoding: 170 170 127
Width: 845
GlyphClass: 2
Flags: W
LayerCount: 2
Fore
SplineSet
269 420 m 2,0,1
 242 420 242 420 224.5 436 c 128,-1,2
 207 452 207 452 207.5 476 c 128,-1,3
 208 500 208 500 224.5 516 c 128,-1,4
 241 532 241 532 266 532 c 2,5,-1
 558 531 l 2,6,7
 582 531 582 531 599 515 c 128,-1,8
 616 499 616 499 615.5 475 c 128,-1,9
 615 451 615 451 598.5 435.5 c 128,-1,10
 582 420 582 420 559 420 c 2,11,-1
 269 420 l 2,0,1
260 1263.5 m 128,-1,13
 243 1280 243 1280 243 1303.5 c 128,-1,14
 243 1327 243 1327 260 1343.5 c 128,-1,15
 277 1360 277 1360 301 1360 c 2,16,-1
 450 1360 l 2,17,18
 527 1360 527 1360 581.5 1305.5 c 128,-1,19
 636 1251 636 1251 636 1174 c 2,20,-1
 636 750 l 2,21,22
 636 720 636 720 614.5 698 c 128,-1,23
 593 676 593 676 568.5 676 c 128,-1,24
 544 676 544 676 532 681.5 c 128,-1,25
 520 687 520 687 512.5 694 c 128,-1,26
 505 701 505 701 500.5 708.5 c 128,-1,27
 496 716 496 716 494 720 c 0,28,29
 486 735 486 735 476 735 c 0,30,31
 469 735 469 735 452 718 c 0,32,33
 410 676 410 676 365 676 c 128,-1,34
 320 676 320 676 290 691 c 128,-1,35
 260 706 260 706 238 732 c 0,36,37
 188 788 188 788 188 863 c 2,38,-1
 188 950 l 2,39,40
 188 1027 188 1027 242.5 1081.5 c 128,-1,41
 297 1136 297 1136 375 1136 c 2,42,-1
 487 1136 l 1,43,-1
 487 1172 l 2,44,45
 487 1204 487 1204 465.5 1225.5 c 128,-1,46
 444 1247 444 1247 412 1247 c 2,47,-1
 301 1247 l 2,48,12
 277 1247 277 1247 260 1263.5 c 128,-1,13
337 864 m 2,49,50
 337 833 337 833 358.5 811.5 c 128,-1,51
 380 790 380 790 411.5 790 c 128,-1,52
 443 790 443 790 465 807 c 128,-1,53
 487 824 487 824 487 854 c 2,54,-1
 487 1023 l 1,55,-1
 412 1023 l 2,56,57
 380 1023 380 1023 358.5 1001.5 c 128,-1,58
 337 980 337 980 337 948 c 2,59,-1
 337 864 l 2,49,50
EndSplineSet
EndChar

StartChar: guillemotleft
Encoding: 171 171 128
Width: 1533
GlyphClass: 2
Flags: W
LayerCount: 2
Fore
SplineSet
324 435 m 1,0,1
 269 485 269 485 269 527 c 128,-1,2
 269 569 269 569 285.5 591 c 128,-1,3
 302 613 302 613 324 633 c 1,4,-1
 620 931 l 1,5,6
 642 951 642 951 667.5 951 c 128,-1,7
 693 951 693 951 711 936 c 1,8,9
 732 915 732 915 732 888.5 c 128,-1,10
 732 862 732 862 718 843 c 1,11,-1
 514 534 l 1,12,-1
 718 225 l 1,13,14
 732 206 732 206 732 187 c 0,15,16
 732 153 732 153 712.5 135 c 128,-1,17
 693 117 693 117 667.5 117 c 128,-1,18
 642 117 642 117 620 137 c 1,19,-1
 324 435 l 1,0,1
796 435 m 1,20,21
 741 485 741 485 741 527 c 128,-1,22
 741 569 741 569 757.5 591 c 128,-1,23
 774 613 774 613 796 633 c 1,24,-1
 1092 931 l 1,25,26
 1114 951 1114 951 1139.5 951 c 128,-1,27
 1165 951 1165 951 1183 936 c 1,28,29
 1204 915 1204 915 1204 888.5 c 128,-1,30
 1204 862 1204 862 1190 843 c 1,31,-1
 986 534 l 1,32,-1
 1190 225 l 1,33,34
 1204 206 1204 206 1204 187 c 0,35,36
 1204 153 1204 153 1184.5 135 c 128,-1,37
 1165 117 1165 117 1139.5 117 c 128,-1,38
 1114 117 1114 117 1092 137 c 1,39,-1
 796 435 l 1,20,21
EndSplineSet
EndChar

StartChar: logicalnot
Encoding: 172 172 129
Width: 1023
GlyphClass: 2
Flags: W
LayerCount: 2
Fore
SplineSet
862.5 218 m 128,-1,1
 846 211 846 211 827.5 211 c 128,-1,2
 809 211 809 211 792.5 218 c 128,-1,3
 776 225 776 225 764 237 c 0,4,5
 737 262 737 262 737 299 c 2,6,-1
 737 525 l 1,7,-1
 192 525 l 2,8,9
 157 525 157 525 138 544 c 0,10,11
 104 578 104 578 104 606 c 128,-1,12
 104 634 104 634 111 650.5 c 128,-1,13
 118 667 118 667 130 680 c 0,14,15
 155 706 155 706 192 706 c 2,16,-1
 830 706 l 2,17,18
 865 706 865 706 884 686 c 1,19,20
 918 653 918 653 918 616 c 2,21,-1
 918 299 l 2,22,23
 918 264 918 264 898.5 244.5 c 128,-1,0
 879 225 879 225 862.5 218 c 128,-1,1
EndSplineSet
EndChar

StartChar: uni00AD
Encoding: 173 173 130
Width: 1274
GlyphClass: 2
Flags: W
LayerCount: 2
Fore
SplineSet
1037 720.5 m 128,-1,1
 1044 704 1044 704 1044 685.5 c 128,-1,2
 1044 667 1044 667 1037 650.5 c 128,-1,3
 1030 634 1030 634 1018 622 c 0,4,5
 993 595 993 595 956 595 c 2,6,-1
 318 595 l 2,7,8
 283 595 283 595 264 614 c 0,9,10
 230 648 230 648 230 676 c 128,-1,11
 230 704 230 704 237 720.5 c 128,-1,12
 244 737 244 737 256 750 c 0,13,14
 281 776 281 776 318 776 c 2,15,-1
 956 776 l 2,16,17
 991 776 991 776 1010.5 756.5 c 128,-1,0
 1030 737 1030 737 1037 720.5 c 128,-1,1
EndSplineSet
EndChar

StartChar: registered
Encoding: 174 174 131
Width: 1698
GlyphClass: 2
Flags: W
LayerCount: 2
Fore
SplineSet
1005 654 m 1,0,1
 1107 612 1107 612 1107 503 c 2,2,-1
 1107 381 l 2,3,4
 1107 347 1107 347 1083 324 c 128,-1,5
 1059 301 1059 301 1025 301 c 128,-1,6
 991 301 991 301 967.5 324 c 128,-1,7
 944 347 944 347 944 381 c 2,8,-1
 944 511 l 2,9,10
 944 546 944 546 920.5 569 c 128,-1,11
 897 592 897 592 864 592 c 2,12,-1
 785 592 l 1,13,-1
 785 381 l 2,14,15
 785 347 785 347 761 324 c 128,-1,16
 737 301 737 301 703 301 c 128,-1,17
 669 301 669 301 645.5 324 c 128,-1,18
 622 347 622 347 622 381 c 2,19,-1
 622 964 l 2,20,21
 622 997 622 997 645.5 1021 c 128,-1,22
 669 1045 669 1045 704 1045 c 2,23,-1
 865 1045 l 2,24,25
 980 1045 980 1045 1043.5 990.5 c 128,-1,26
 1107 936 1107 936 1107 843 c 2,27,-1
 1107 826 l 2,28,29
 1107 707 1107 707 1005 654 c 1,0,1
785 715 m 1,30,-1
 864 715 l 2,31,32
 898 715 898 715 921.5 738 c 128,-1,33
 945 761 945 761 945 796 c 2,34,-1
 945 841 l 2,35,36
 945 874 945 874 921.5 898 c 128,-1,37
 898 922 898 922 864 922 c 2,38,-1
 785 922 l 1,39,-1
 785 715 l 1,30,-1
1409 362 m 2,40,41
 1409 187 1409 187 1266 85 c 0,42,43
 1119 -19 1119 -19 857 -19 c 0,44,45
 590 -19 590 -19 438 85 c 0,46,47
 288 188 288 188 288 364 c 2,48,-1
 288 977 l 2,49,50
 288 1152 288 1152 432 1254 c 0,51,52
 578 1358 578 1358 840 1358 c 0,53,54
 1107 1358 1107 1358 1259 1254 c 0,55,56
 1409 1151 1409 1151 1409 975 c 2,57,-1
 1409 362 l 2,40,41
1285 975 m 2,58,59
 1285 1106 1285 1106 1168 1182 c 0,60,61
 1048 1259 1048 1259 837 1259 c 0,62,63
 635 1259 635 1259 523 1182 c 0,64,65
 413 1107 413 1107 413 977 c 2,66,-1
 413 364 l 2,67,68
 413 233 413 233 530 157 c 0,69,70
 650 80 650 80 860 80 c 0,71,72
 1168 80 1168 80 1257 246 c 0,73,74
 1285 298 1285 298 1285 362 c 2,75,-1
 1285 975 l 2,58,59
EndSplineSet
EndChar

StartChar: macron
Encoding: 175 175 132
Width: 1493
GlyphClass: 2
Flags: W
LayerCount: 2
Fore
SplineSet
1129 1357.5 m 128,-1,1
 1136 1341 1136 1341 1136 1322.5 c 128,-1,2
 1136 1304 1136 1304 1129 1287.5 c 128,-1,3
 1122 1271 1122 1271 1110 1258 c 0,4,5
 1085 1232 1085 1232 1048 1232 c 2,6,-1
 645 1232 l 2,7,8
 610 1232 610 1232 590 1252 c 0,9,10
 557 1285 557 1285 557 1313 c 128,-1,11
 557 1341 557 1341 564 1357.5 c 128,-1,12
 571 1374 571 1374 583 1386 c 0,13,14
 608 1413 608 1413 645 1413 c 2,15,-1
 1048 1413 l 2,16,17
 1083 1413 1083 1413 1102.5 1393.5 c 128,-1,0
 1122 1374 1122 1374 1129 1357.5 c 128,-1,1
EndSplineSet
EndChar

StartChar: degree
Encoding: 176 176 133
Width: 845
GlyphClass: 2
Flags: W
LayerCount: 2
Fore
SplineSet
424 851 m 0,0,1
 316 851 316 851 236 929 c 0,2,3
 158 1006 158 1006 158 1114 c 0,4,5
 158 1224 158 1224 236 1301 c 0,6,7
 317 1380 317 1380 424 1380 c 256,8,9
 531 1380 531 1380 610 1301 c 0,10,11
 687 1224 687 1224 687 1114 c 0,12,13
 687 1005 687 1005 610 928 c 128,-1,14
 533 851 533 851 424 851 c 0,0,1
468 1219.5 m 128,-1,16
 447 1229 447 1229 423 1229 c 128,-1,17
 399 1229 399 1229 378 1220 c 128,-1,18
 357 1211 357 1211 342 1196 c 0,19,20
 308 1162 308 1162 308 1126.5 c 128,-1,21
 308 1091 308 1091 317.5 1070.5 c 128,-1,22
 327 1050 327 1050 343 1034 c 0,23,24
 378 1001 378 1001 412 1001 c 128,-1,25
 446 1001 446 1001 467 1010.5 c 128,-1,26
 488 1020 488 1020 504 1036 c 0,27,28
 540 1070 540 1070 540 1103.5 c 128,-1,29
 540 1137 540 1137 530.5 1158 c 128,-1,30
 521 1179 521 1179 505 1194.5 c 128,-1,15
 489 1210 489 1210 468 1219.5 c 128,-1,16
EndSplineSet
EndChar

StartChar: plusminus
Encoding: 177 177 134
Width: 1023
GlyphClass: 2
Flags: W
LayerCount: 2
Fore
SplineSet
545.5 572 m 128,-1,1
 529 565 529 565 510.5 565 c 128,-1,2
 492 565 492 565 475.5 572 c 128,-1,3
 459 579 459 579 446 591 c 0,4,5
 420 616 420 616 420 653 c 2,6,-1
 420 870 l 1,7,-1
 192 870 l 2,8,9
 157 870 157 870 138 890 c 1,10,11
 104 923 104 923 104 951 c 128,-1,12
 104 979 104 979 111 995.5 c 128,-1,13
 118 1012 118 1012 130 1024 c 0,14,15
 155 1051 155 1051 192 1051 c 2,16,-1
 420 1051 l 1,17,-1
 420 1259 l 2,18,19
 420 1294 420 1294 440 1314 c 0,20,21
 473 1347 473 1347 501 1347 c 128,-1,22
 529 1347 529 1347 545.5 1340 c 128,-1,23
 562 1333 562 1333 574 1321 c 0,24,25
 601 1296 601 1296 601 1259 c 2,26,-1
 601 1051 l 1,27,-1
 830 1051 l 2,28,29
 865 1051 865 1051 884 1032 c 0,30,31
 918 998 918 998 918 970 c 128,-1,32
 918 942 918 942 911 925.5 c 128,-1,33
 904 909 904 909 892 896 c 0,34,35
 867 870 867 870 830 870 c 2,36,-1
 601 870 l 1,37,-1
 601 653 l 2,38,39
 601 618 601 618 581.5 598.5 c 128,-1,0
 562 579 562 579 545.5 572 c 128,-1,1
911 280.5 m 128,-1,41
 918 264 918 264 918 245.5 c 128,-1,42
 918 227 918 227 911 210.5 c 128,-1,43
 904 194 904 194 892 182 c 0,44,45
 867 155 867 155 830 155 c 2,46,-1
 192 155 l 2,47,48
 157 155 157 155 138 174 c 0,49,50
 104 208 104 208 104 236 c 128,-1,51
 104 264 104 264 111 280.5 c 128,-1,52
 118 297 118 297 130 310 c 0,53,54
 155 336 155 336 192 336 c 2,55,-1
 830 336 l 2,56,57
 865 336 865 336 884.5 316.5 c 128,-1,40
 904 297 904 297 911 280.5 c 128,-1,41
EndSplineSet
EndChar

StartChar: twosuperior
Encoding: 178 178 135
Width: 845
GlyphClass: 2
Flags: W
LayerCount: 2
Fore
SplineSet
472 1359 m 2,0,1
 583 1359 583 1359 646 1298 c 0,2,3
 702 1244 702 1244 702 1166.5 c 128,-1,4
 702 1089 702 1089 659.5 1037 c 128,-1,5
 617 985 617 985 545 946 c 2,6,-1
 409 872 l 2,7,8
 359 845 359 845 347 807 c 1,9,-1
 635 807 l 2,10,11
 662 807 662 807 682 786 c 128,-1,12
 702 765 702 765 702 736 c 256,13,14
 702 707 702 707 682 686.5 c 128,-1,15
 662 666 662 666 634 666 c 2,16,-1
 234 666 l 2,17,18
 172 666 172 666 149 722 c 0,19,20
 142 739 142 739 142 769 c 128,-1,21
 142 799 142 799 148 831 c 128,-1,22
 154 863 154 863 173 892 c 0,23,24
 209 946 209 946 318 1009 c 2,25,-1
 470 1098 l 1,26,27
 515 1123 515 1123 515 1162 c 0,28,29
 515 1182 515 1182 499.5 1200 c 128,-1,30
 484 1218 484 1218 455 1218 c 2,31,-1
 238 1218 l 2,32,33
 209 1218 209 1218 189 1238.5 c 128,-1,34
 169 1259 169 1259 169 1288 c 256,35,36
 169 1317 169 1317 189 1338 c 128,-1,37
 209 1359 209 1359 238 1359 c 2,38,-1
 472 1359 l 2,0,1
EndSplineSet
EndChar

StartChar: threesuperior
Encoding: 179 179 136
Width: 845
GlyphClass: 2
Flags: W
LayerCount: 2
Fore
SplineSet
174 736 m 256,0,1
 174 765 174 765 194.5 786 c 128,-1,2
 215 807 215 807 244 807 c 2,3,-1
 422 807 l 2,4,5
 461 807 461 807 488 829.5 c 128,-1,6
 515 852 515 852 515 893 c 2,7,-1
 515 956 l 2,8,9
 515 989 515 989 496 1003 c 0,10,11
 464 1027 464 1027 437.5 1027 c 128,-1,12
 411 1027 411 1027 398.5 1022.5 c 128,-1,13
 386 1018 386 1018 375 1012 c 0,14,15
 346 998 346 998 323 998 c 128,-1,16
 300 998 300 998 284 1014 c 128,-1,17
 268 1030 268 1030 268 1048 c 0,18,19
 268 1081 268 1081 290 1099 c 2,20,-1
 431 1218 l 1,21,-1
 212 1218 l 2,22,23
 182 1218 182 1218 162 1238.5 c 128,-1,24
 142 1259 142 1259 142 1288 c 256,25,26
 142 1317 142 1317 162 1338 c 128,-1,27
 182 1359 182 1359 212 1359 c 2,28,-1
 645 1359 l 2,29,30
 669 1359 669 1359 685.5 1342.5 c 128,-1,31
 702 1326 702 1326 702 1306 c 0,32,33
 702 1274 702 1274 680 1258 c 1,34,-1
 491 1101 l 1,35,36
 512 1109 512 1109 544.5 1109 c 128,-1,37
 577 1109 577 1109 606 1098 c 128,-1,38
 635 1087 635 1087 656 1067 c 0,39,40
 702 1025 702 1025 702 958 c 2,41,-1
 702 897 l 2,42,43
 702 790 702 790 629.5 728 c 128,-1,44
 557 666 557 666 422 666 c 2,45,-1
 244 666 l 2,46,47
 215 666 215 666 194.5 686.5 c 128,-1,48
 174 707 174 707 174 736 c 256,0,1
EndSplineSet
EndChar

StartChar: acute
Encoding: 180 180 137
Width: 1331
GlyphClass: 2
Flags: W
LayerCount: 2
Fore
SplineSet
754 1507 m 2,0,1
 802 1573 802 1573 865 1573 c 0,2,3
 907 1573 907 1573 932 1548 c 0,4,5
 974 1506 974 1506 974 1468 c 0,6,7
 974 1392 974 1392 911 1349 c 2,8,-1
 691 1195 l 2,9,10
 667 1179 667 1179 648 1179 c 0,11,12
 614 1179 614 1179 597 1197 c 128,-1,13
 580 1215 580 1215 580 1240.5 c 128,-1,14
 580 1266 580 1266 597 1289 c 2,15,-1
 754 1507 l 2,0,1
EndSplineSet
EndChar

StartChar: mu
Encoding: 181 181 138
AltUni2: 0003bc.ffffffff.0
Width: 1023
GlyphClass: 2
Flags: W
LayerCount: 2
Fore
SplineSet
424 73 m 0,0,1
 394 73 394 73 394 44 c 2,2,-1
 394 -322 l 2,3,4
 394 -370 394 -370 368 -396 c 0,5,6
 325 -439 325 -439 288 -439 c 128,-1,7
 251 -439 251 -439 229 -429.5 c 128,-1,8
 207 -420 207 -420 191 -404 c 0,9,10
 156 -371 156 -371 156 -322 c 2,11,-1
 156 969 l 2,12,13
 156 1017 156 1017 182 1042 c 1,14,15
 225 1086 225 1086 262.5 1086 c 128,-1,16
 300 1086 300 1086 321.5 1076.5 c 128,-1,17
 343 1067 343 1067 359 1052 c 0,18,19
 394 1018 394 1018 394 969 c 2,20,-1
 394 267 l 2,21,22
 394 194 394 194 467 168 c 0,23,24
 488 160 488 160 512 160 c 0,25,26
 560 160 560 160 586 186 c 0,27,28
 630 230 630 230 630 279 c 2,29,-1
 630 969 l 2,30,31
 630 1017 630 1017 656 1042 c 1,32,33
 699 1086 699 1086 736.5 1086 c 128,-1,34
 774 1086 774 1086 795.5 1076.5 c 128,-1,35
 817 1067 817 1067 833 1052 c 0,36,37
 867 1019 867 1019 867 969 c 2,38,-1
 867 277 l 2,39,40
 867 231 867 231 893 205 c 0,41,42
 938 160 938 160 985 160 c 2,43,-1
 1033 160 l 2,44,45
 1090 160 1090 160 1114 105 c 0,46,47
 1121 89 1121 89 1121 61 c 128,-1,48
 1121 33 1121 33 1095.5 6.5 c 128,-1,49
 1070 -20 1070 -20 1018 -20 c 0,50,51
 912 -20 912 -20 845 76 c 0,52,53
 831 97 831 97 814.5 97 c 128,-1,54
 798 97 798 97 788 83 c 0,55,56
 706 -20 706 -20 606 -20 c 0,57,58
 525 -20 525 -20 460 48 c 1,59,-1
 444 64 l 2,60,61
 435 73 435 73 424 73 c 0,0,1
EndSplineSet
EndChar

StartChar: paragraph
Encoding: 182 182 139
Width: 1275
GlyphClass: 2
Flags: W
LayerCount: 2
Fore
SplineSet
176 1063 m 2,0,1
 176 1187 176 1187 256 1272 c 0,2,3
 337 1359 337 1359 458 1359 c 2,4,-1
 1172 1358 l 2,5,6
 1232 1358 1232 1358 1256 1302 c 0,7,8
 1263 1286 1263 1286 1263 1267.5 c 128,-1,9
 1263 1249 1263 1249 1256 1232.5 c 128,-1,10
 1249 1216 1249 1216 1236 1204 c 0,11,12
 1209 1178 1209 1178 1172 1178 c 2,13,-1
 1159 1178 l 1,14,-1
 1159 -175 l 2,15,16
 1159 -210 1159 -210 1140 -230 c 1,17,18
 1106 -263 1106 -263 1078 -263 c 128,-1,19
 1050 -263 1050 -263 1033.5 -256 c 128,-1,20
 1017 -249 1017 -249 1004 -237 c 0,21,22
 978 -212 978 -212 978 -175 c 2,23,-1
 978 1178 l 1,24,-1
 749 1178 l 1,25,-1
 749 -175 l 2,26,27
 749 -210 749 -210 730 -230 c 1,28,29
 696 -263 696 -263 668 -263 c 128,-1,30
 640 -263 640 -263 623.5 -256 c 128,-1,31
 607 -249 607 -249 594 -237 c 0,32,33
 568 -212 568 -212 568 -175 c 2,34,-1
 568 188 l 2,35,36
 568 207 568 207 557.5 213.5 c 128,-1,37
 547 220 547 220 537 220 c 128,-1,38
 527 220 527 220 518 212 c 0,39,40
 497 190 497 190 480.5 173.5 c 128,-1,41
 464 157 464 157 450 148 c 0,42,43
 418 127 418 127 369.5 127 c 128,-1,44
 321 127 321 127 285.5 150.5 c 128,-1,45
 250 174 250 174 226 214 c 0,46,47
 176 296 176 296 176 423 c 2,48,-1
 176 1063 l 2,0,1
EndSplineSet
EndChar

StartChar: periodcentered
Encoding: 183 183 140
Width: 513
GlyphClass: 2
Flags: W
LayerCount: 2
Fore
SplineSet
257 752 m 256,0,1
 312 752 312 752 352 712 c 256,2,3
 392 672 392 672 392 631 c 128,-1,4
 392 590 392 590 381 566 c 128,-1,5
 370 542 370 542 352 524 c 0,6,7
 312 484 312 484 257 484 c 256,8,9
 202 484 202 484 162 524 c 256,10,11
 122 564 122 564 122 604 c 0,12,13
 122 672 122 672 162 712 c 128,-1,14
 202 752 202 752 257 752 c 256,0,1
EndSplineSet
EndChar

StartChar: cedilla
Encoding: 184 184 141
Width: 1227
GlyphClass: 2
Flags: W
LayerCount: 2
Fore
SplineSet
484 -204 m 2,0,1
 457 -204 457 -204 440 -188 c 128,-1,2
 423 -172 423 -172 423 -148 c 128,-1,3
 423 -124 423 -124 437 -91 c 2,4,-1
 487 23 l 1,5,-1
 621 23 l 1,6,-1
 571 -92 l 1,7,8
 663 -92 663 -92 716 -144 c 1,9,10
 765 -190 765 -190 765 -265 c 0,11,12
 765 -384 765 -384 642 -424 c 0,13,14
 600 -438 600 -438 544 -438 c 2,15,-1
 383 -438 l 2,16,17
 360 -438 360 -438 344 -421.5 c 128,-1,18
 328 -405 328 -405 328 -381.5 c 128,-1,19
 328 -358 328 -358 344 -341.5 c 128,-1,20
 360 -325 360 -325 383 -325 c 2,21,-1
 504 -325 l 2,22,23
 536 -325 536 -325 556.5 -306.5 c 128,-1,24
 577 -288 577 -288 577 -263.5 c 128,-1,25
 577 -239 577 -239 557.5 -221.5 c 128,-1,26
 538 -204 538 -204 510 -204 c 2,27,-1
 484 -204 l 2,0,1
EndSplineSet
EndChar

StartChar: onesuperior
Encoding: 185 185 142
Width: 845
GlyphClass: 2
Flags: W
LayerCount: 2
Fore
SplineSet
212 1288 m 256,0,1
 212 1317 212 1317 232 1338 c 128,-1,2
 252 1359 252 1359 281 1359 c 2,3,-1
 442 1359 l 2,4,5
 472 1359 472 1359 492 1338.5 c 128,-1,6
 512 1318 512 1318 512 1289 c 2,7,-1
 512 738 l 2,8,9
 512 676 512 676 456 653 c 0,10,11
 439 646 439 646 409.5 646 c 128,-1,12
 380 646 380 646 353 673 c 128,-1,13
 326 700 326 700 326 738 c 2,14,-1
 326 1218 l 1,15,-1
 281 1218 l 2,16,17
 252 1218 252 1218 232 1238.5 c 128,-1,18
 212 1259 212 1259 212 1288 c 256,0,1
EndSplineSet
EndChar

StartChar: ordmasculine
Encoding: 186 186 143
Width: 845
GlyphClass: 2
Flags: W
LayerCount: 2
Fore
SplineSet
278 420 m 2,0,1
 251 420 251 420 233.5 436 c 128,-1,2
 216 452 216 452 216.5 476 c 128,-1,3
 217 500 217 500 233.5 516 c 128,-1,4
 250 532 250 532 275 532 c 2,5,-1
 567 532 l 2,6,7
 591 532 591 532 607.5 515.5 c 128,-1,8
 624 499 624 499 624 475 c 128,-1,9
 624 451 624 451 607.5 435.5 c 128,-1,10
 591 420 591 420 568 420 c 2,11,-1
 278 420 l 2,0,1
189 1188 m 2,12,13
 189 1319 189 1319 318 1360 c 0,14,15
 360 1373 360 1373 413.5 1373 c 128,-1,16
 467 1373 467 1373 508.5 1360 c 128,-1,17
 550 1347 550 1347 579 1322 c 0,18,19
 638 1273 638 1273 638 1187 c 2,20,-1
 638 860 l 2,21,22
 638 728 638 728 510 688 c 0,23,24
 468 675 468 675 414.5 675 c 128,-1,25
 361 675 361 675 319.5 688 c 128,-1,26
 278 701 278 701 249 726 c 0,27,28
 189 776 189 776 189 862 c 2,29,-1
 189 1188 l 2,12,13
489 1185 m 2,30,31
 489 1234 489 1234 444 1254 c 0,32,33
 430 1260 430 1260 414 1260 c 0,34,35
 384 1260 384 1260 367 1244 c 0,36,37
 339 1218 339 1218 339 1185 c 2,38,-1
 339 857 l 2,39,40
 339 824 339 824 360.5 807 c 128,-1,41
 382 790 382 790 414 790 c 256,42,43
 446 790 446 790 467.5 807 c 128,-1,44
 489 824 489 824 489 857 c 2,45,-1
 489 1185 l 2,30,31
EndSplineSet
EndChar

StartChar: guillemotright
Encoding: 187 187 144
Width: 1533
GlyphClass: 2
Flags: W
LayerCount: 2
Fore
SplineSet
698 435 m 1,0,1
 753 485 753 485 753 527 c 128,-1,2
 753 569 753 569 736.5 591 c 128,-1,3
 720 613 720 613 698 633 c 1,4,-1
 402 931 l 1,5,6
 380 951 380 951 354.5 951 c 128,-1,7
 329 951 329 951 311 936 c 1,8,9
 290 915 290 915 290 888.5 c 128,-1,10
 290 862 290 862 304 843 c 1,11,-1
 508 534 l 1,12,-1
 304 225 l 1,13,14
 290 206 290 206 290 187 c 0,15,16
 290 153 290 153 309.5 135 c 128,-1,17
 329 117 329 117 354.5 117 c 128,-1,18
 380 117 380 117 402 137 c 1,19,-1
 698 435 l 1,0,1
1170 435 m 1,20,21
 1225 485 1225 485 1225 527 c 128,-1,22
 1225 569 1225 569 1208.5 591 c 128,-1,23
 1192 613 1192 613 1170 633 c 1,24,-1
 874 931 l 1,25,26
 852 951 852 951 826.5 951 c 128,-1,27
 801 951 801 951 783 936 c 1,28,29
 762 915 762 915 762 888.5 c 128,-1,30
 762 862 762 862 776 843 c 1,31,-1
 980 534 l 1,32,-1
 776 225 l 1,33,34
 762 206 762 206 762 187 c 0,35,36
 762 153 762 153 781.5 135 c 128,-1,37
 801 117 801 117 826.5 117 c 128,-1,38
 852 117 852 117 874 137 c 1,39,-1
 1170 435 l 1,20,21
EndSplineSet
EndChar

StartChar: onequarter
Encoding: 188 188 145
Width: 1687
GlyphClass: 2
Flags: W
LayerCount: 2
Fore
SplineSet
987 1361 m 2,0,1
 1011 1417 1011 1417 1070 1417 c 0,2,3
 1122 1417 1122 1417 1148 1376 c 0,4,5
 1163 1353 1163 1353 1163 1331 c 128,-1,6
 1163 1309 1163 1309 1155 1290 c 2,7,-1
 599 -19 l 2,8,9
 576 -74 576 -74 518 -74 c 0,10,11
 466 -74 466 -74 439 -32 c 0,12,13
 424 -8 424 -8 424 14.5 c 128,-1,14
 424 37 424 37 431 52 c 2,15,-1
 987 1361 l 2,0,1
1601 183 m 256,16,17
 1601 154 1601 154 1581 133.5 c 128,-1,18
 1561 113 1561 113 1532 113 c 2,19,-1
 1486 113 l 1,20,-1
 1486 53 l 2,21,22
 1486 15 1486 15 1459.5 -12 c 128,-1,23
 1433 -39 1433 -39 1403.5 -39 c 128,-1,24
 1374 -39 1374 -39 1357 -32 c 128,-1,25
 1340 -25 1340 -25 1328 -12 c 1,26,27
 1301 14 1301 14 1301 53 c 2,28,-1
 1301 113 l 1,29,-1
 1010 113 l 2,30,31
 972 113 972 113 952 145.5 c 128,-1,32
 932 178 932 178 946 210 c 2,33,-1
 1133 661 l 2,34,35
 1142 682 1142 682 1164.5 697.5 c 128,-1,36
 1187 713 1187 713 1209.5 713 c 128,-1,37
 1232 713 1232 713 1257 704 c 128,-1,38
 1282 695 1282 695 1295.5 669.5 c 128,-1,39
 1309 644 1309 644 1309 623 c 128,-1,40
 1309 602 1309 602 1302 586 c 2,41,-1
 1138 254 l 1,42,-1
 1301 254 l 1,43,-1
 1301 380 l 2,44,45
 1301 439 1301 439 1356 464 c 0,46,47
 1373 472 1373 472 1392.5 472 c 128,-1,48
 1412 472 1412 472 1429 465 c 128,-1,49
 1446 458 1446 458 1459 446 c 0,50,51
 1486 420 1486 420 1486 380 c 2,52,-1
 1486 254 l 1,53,-1
 1532 254 l 2,54,55
 1560 254 1560 254 1580.5 233 c 128,-1,56
 1601 212 1601 212 1601 183 c 256,16,17
188 1288 m 256,57,58
 188 1317 188 1317 208 1338 c 128,-1,59
 228 1359 228 1359 257 1359 c 2,60,-1
 418 1359 l 2,61,62
 448 1359 448 1359 468 1338.5 c 128,-1,63
 488 1318 488 1318 488 1289 c 2,64,-1
 488 738 l 2,65,66
 488 676 488 676 432 653 c 0,67,68
 415 646 415 646 385.5 646 c 128,-1,69
 356 646 356 646 329 673 c 128,-1,70
 302 700 302 700 302 738 c 2,71,-1
 302 1218 l 1,72,-1
 257 1218 l 2,73,74
 228 1218 228 1218 208 1238.5 c 128,-1,75
 188 1259 188 1259 188 1288 c 256,57,58
EndSplineSet
EndChar

StartChar: onehalf
Encoding: 189 189 146
Width: 1687
GlyphClass: 2
Flags: W
LayerCount: 2
Fore
SplineSet
188 1288 m 256,0,1
 188 1317 188 1317 208 1338 c 128,-1,2
 228 1359 228 1359 257 1359 c 2,3,-1
 418 1359 l 2,4,5
 448 1359 448 1359 468 1338.5 c 128,-1,6
 488 1318 488 1318 488 1289 c 2,7,-1
 488 738 l 2,8,9
 488 676 488 676 432 653 c 0,10,11
 415 646 415 646 385.5 646 c 128,-1,12
 356 646 356 646 329 673 c 128,-1,13
 302 700 302 700 302 738 c 2,14,-1
 302 1218 l 1,15,-1
 257 1218 l 2,16,17
 228 1218 228 1218 208 1238.5 c 128,-1,18
 188 1259 188 1259 188 1288 c 256,0,1
1350 693 m 2,19,20
 1461 693 1461 693 1524 632 c 0,21,22
 1580 578 1580 578 1580 500.5 c 128,-1,23
 1580 423 1580 423 1537.5 371 c 128,-1,24
 1495 319 1495 319 1423 280 c 2,25,-1
 1287 206 l 2,26,27
 1237 179 1237 179 1225 141 c 1,28,-1
 1513 141 l 2,29,30
 1540 141 1540 141 1560 120 c 128,-1,31
 1580 99 1580 99 1580 70 c 256,32,33
 1580 41 1580 41 1560 20.5 c 128,-1,34
 1540 0 1540 0 1512 0 c 2,35,-1
 1112 0 l 2,36,37
 1050 0 1050 0 1027 56 c 0,38,39
 1020 73 1020 73 1020 103 c 128,-1,40
 1020 133 1020 133 1026 165 c 128,-1,41
 1032 197 1032 197 1051 226 c 0,42,43
 1087 280 1087 280 1196 343 c 2,44,-1
 1348 432 l 1,45,46
 1393 457 1393 457 1393 496 c 0,47,48
 1393 516 1393 516 1377.5 534 c 128,-1,49
 1362 552 1362 552 1333 552 c 2,50,-1
 1116 552 l 2,51,52
 1087 552 1087 552 1067 572.5 c 128,-1,53
 1047 593 1047 593 1047 622 c 256,54,55
 1047 651 1047 651 1067 672 c 128,-1,56
 1087 693 1087 693 1116 693 c 2,57,-1
 1350 693 l 2,19,20
987 1361 m 2,58,59
 1011 1417 1011 1417 1070 1417 c 0,60,61
 1122 1417 1122 1417 1148 1376 c 0,62,63
 1163 1353 1163 1353 1163 1331 c 128,-1,64
 1163 1309 1163 1309 1155 1290 c 2,65,-1
 599 -19 l 2,66,67
 576 -74 576 -74 518 -74 c 0,68,69
 466 -74 466 -74 439 -32 c 0,70,71
 424 -8 424 -8 424 14.5 c 128,-1,72
 424 37 424 37 431 52 c 2,73,-1
 987 1361 l 2,58,59
EndSplineSet
EndChar

StartChar: threequarters
Encoding: 190 190 147
Width: 1687
GlyphClass: 2
Flags: W
LayerCount: 2
Fore
SplineSet
105 736 m 256,0,1
 105 765 105 765 125.5 786 c 128,-1,2
 146 807 146 807 175 807 c 2,3,-1
 353 807 l 2,4,5
 392 807 392 807 419 829.5 c 128,-1,6
 446 852 446 852 446 893 c 2,7,-1
 446 956 l 2,8,9
 446 989 446 989 426 1003 c 1,10,11
 395 1027 395 1027 368.5 1027 c 128,-1,12
 342 1027 342 1027 329.5 1022.5 c 128,-1,13
 317 1018 317 1018 306 1012 c 0,14,15
 277 998 277 998 254 998 c 128,-1,16
 231 998 231 998 215 1014 c 128,-1,17
 199 1030 199 1030 199 1048 c 0,18,19
 199 1081 199 1081 221 1099 c 2,20,-1
 362 1218 l 1,21,-1
 143 1218 l 2,22,23
 113 1218 113 1218 93 1238.5 c 128,-1,24
 73 1259 73 1259 73 1288 c 256,25,26
 73 1317 73 1317 93 1338 c 128,-1,27
 113 1359 113 1359 143 1359 c 2,28,-1
 576 1359 l 2,29,30
 600 1359 600 1359 616.5 1342.5 c 128,-1,31
 633 1326 633 1326 633 1306 c 0,32,33
 633 1274 633 1274 611 1258 c 1,34,-1
 422 1101 l 1,35,36
 443 1109 443 1109 475.5 1109 c 128,-1,37
 508 1109 508 1109 537 1098 c 128,-1,38
 566 1087 566 1087 588 1067 c 0,39,40
 633 1025 633 1025 633 958 c 2,41,-1
 633 897 l 2,42,43
 633 790 633 790 560.5 728 c 128,-1,44
 488 666 488 666 353 666 c 2,45,-1
 175 666 l 2,46,47
 146 666 146 666 125.5 686.5 c 128,-1,48
 105 707 105 707 105 736 c 256,0,1
987 1361 m 2,49,50
 1011 1417 1011 1417 1070 1417 c 0,51,52
 1122 1417 1122 1417 1148 1376 c 0,53,54
 1163 1353 1163 1353 1163 1331 c 128,-1,55
 1163 1309 1163 1309 1155 1290 c 2,56,-1
 599 -19 l 2,57,58
 576 -74 576 -74 518 -74 c 0,59,60
 466 -74 466 -74 439 -32 c 0,61,62
 424 -8 424 -8 424 14.5 c 128,-1,63
 424 37 424 37 431 52 c 2,64,-1
 987 1361 l 2,49,50
1601 183 m 256,65,66
 1601 154 1601 154 1581 133.5 c 128,-1,67
 1561 113 1561 113 1532 113 c 2,68,-1
 1486 113 l 1,69,-1
 1486 53 l 2,70,71
 1486 15 1486 15 1459.5 -12 c 128,-1,72
 1433 -39 1433 -39 1403.5 -39 c 128,-1,73
 1374 -39 1374 -39 1357 -32 c 128,-1,74
 1340 -25 1340 -25 1328 -12 c 1,75,76
 1301 14 1301 14 1301 53 c 2,77,-1
 1301 113 l 1,78,-1
 1010 113 l 2,79,80
 972 113 972 113 952 145.5 c 128,-1,81
 932 178 932 178 946 210 c 2,82,-1
 1133 661 l 2,83,84
 1142 682 1142 682 1164.5 697.5 c 128,-1,85
 1187 713 1187 713 1209.5 713 c 128,-1,86
 1232 713 1232 713 1257 704 c 128,-1,87
 1282 695 1282 695 1295.5 669.5 c 128,-1,88
 1309 644 1309 644 1309 623 c 128,-1,89
 1309 602 1309 602 1302 586 c 2,90,-1
 1138 254 l 1,91,-1
 1301 254 l 1,92,-1
 1301 380 l 2,93,94
 1301 439 1301 439 1356 464 c 0,95,96
 1373 472 1373 472 1392.5 472 c 128,-1,97
 1412 472 1412 472 1429 465 c 128,-1,98
 1446 458 1446 458 1459 446 c 0,99,100
 1486 420 1486 420 1486 380 c 2,101,-1
 1486 254 l 1,102,-1
 1532 254 l 2,103,104
 1560 254 1560 254 1580.5 233 c 128,-1,105
 1601 212 1601 212 1601 183 c 256,65,66
EndSplineSet
EndChar

StartChar: questiondown
Encoding: 191 191 148
Width: 1026
GlyphClass: 2
Flags: W
LayerCount: 2
Fore
SplineSet
703 759 m 2,0,1
 703 567 703 567 488 450 c 1,2,-1
 426 417 l 2,3,4
 364 385 364 385 364 321 c 2,5,-1
 364 299 l 2,6,7
 364 250 364 250 390 224 c 0,8,9
 434 180 434 180 483 180 c 2,10,-1
 739 180 l 2,11,12
 774 180 774 180 795 160 c 0,13,14
 829 128 829 128 829 90.5 c 128,-1,15
 829 53 829 53 802.5 26.5 c 128,-1,16
 776 0 776 0 739 0 c 2,17,-1
 481 0 l 2,18,19
 316 0 316 0 220 80 c 1,20,21
 128 159 128 159 128 296 c 2,22,-1
 128 330 l 2,23,24
 128 495 128 495 334 608 c 1,25,-1
 380 634 l 2,26,27
 443 669 443 669 468 730 c 0,28,29
 477 751 477 751 477 772 c 2,30,-1
 477 799 l 2,31,32
 477 845 477 845 501 869 c 0,33,34
 542 910 542 910 577.5 910 c 128,-1,35
 613 910 613 910 634 901 c 128,-1,36
 655 892 655 892 670 877 c 0,37,38
 703 844 703 844 703 799 c 2,39,-1
 703 759 l 2,0,1
591 1109 m 256,40,41
 536 1109 536 1109 496 1148 c 1,42,43
 456 1189 456 1189 456 1230 c 128,-1,44
 456 1271 456 1271 467 1295 c 128,-1,45
 478 1319 478 1319 496 1338 c 1,46,47
 536 1377 536 1377 591 1377 c 256,48,49
 646 1377 646 1377 686 1338 c 1,50,51
 726 1297 726 1297 726 1256 c 0,52,53
 726 1189 726 1189 686 1149 c 128,-1,54
 646 1109 646 1109 591 1109 c 256,40,41
EndSplineSet
EndChar

StartChar: Agrave
Encoding: 192 192 149
Width: 1193
GlyphClass: 2
Flags: W
LayerCount: 2
Fore
SplineSet
427 1148 m 0,0,1
 427 1178 427 1178 398 1178 c 2,2,-1
 282 1178 l 2,3,4
 237 1178 237 1178 214 1152 c 0,5,6
 174 1107 174 1107 174 1060 c 2,7,-1
 174 1003 l 2,8,9
 174 925 174 925 101 895 c 0,10,11
 79 886 79 886 54.5 886 c 128,-1,12
 30 886 30 886 8.5 895 c 128,-1,13
 -13 904 -13 904 -28 920 c 1,14,15
 -63 954 -63 954 -63 1003 c 2,16,-1
 -63 1063 l 2,17,18
 -63 1185 -63 1185 24 1272 c 128,-1,19
 111 1359 111 1359 233 1359 c 2,20,-1
 689 1359 l 2,21,22
 855 1359 855 1359 950 1278 c 0,23,24
 1044 1199 1044 1199 1044 1063 c 2,25,-1
 1044 98 l 2,26,27
 1044 22 1044 22 972 -10 c 0,28,29
 951 -19 951 -19 926.5 -19 c 128,-1,30
 902 -19 902 -19 880 -9.5 c 128,-1,31
 858 0 858 0 842 16 c 0,32,33
 807 49 807 49 807 98 c 2,34,-1
 807 433 l 1,35,-1
 570 433 l 1,36,-1
 570 98 l 2,37,38
 570 50 570 50 544 24 c 0,39,40
 501 -19 501 -19 464 -19 c 128,-1,41
 427 -19 427 -19 405 -9.5 c 128,-1,42
 383 0 383 0 367 16 c 0,43,44
 333 48 333 48 333 98 c 2,45,-1
 333 433 l 1,46,-1
 261 433 l 2,47,48
 226 433 226 433 206 452 c 1,49,50
 173 486 173 486 173 523.5 c 128,-1,51
 173 561 173 561 198.5 587.5 c 128,-1,52
 224 614 224 614 261 614 c 2,53,-1
 333 614 l 1,54,-1
 333 955 l 2,55,56
 333 1050 333 1050 418 1130 c 0,57,58
 427 1138 427 1138 427 1148 c 0,0,1
570 614 m 1,59,-1
 807 614 l 1,60,-1
 807 1059 l 2,61,62
 807 1109 807 1109 782 1134 c 0,63,64
 738 1178 738 1178 700.5 1178 c 128,-1,65
 663 1178 663 1178 641.5 1168.5 c 128,-1,66
 620 1159 620 1159 604 1143 c 0,67,68
 570 1109 570 1109 570 1060 c 2,69,-1
 570 614 l 1,59,-1
810 1602 m 2,70,71
 827 1579 827 1579 827 1553.5 c 128,-1,72
 827 1528 827 1528 814 1514 c 0,73,74
 792 1492 792 1492 766 1492 c 128,-1,75
 740 1492 740 1492 716 1508 c 2,76,-1
 496 1662 l 2,77,78
 433 1705 433 1705 433 1775 c 0,79,80
 433 1819 433 1819 458 1844 c 0,81,82
 500 1886 500 1886 537 1886 c 0,83,84
 605 1886 605 1886 653 1820 c 2,85,-1
 810 1602 l 2,70,71
EndSplineSet
EndChar

StartChar: Aacute
Encoding: 193 193 150
Width: 1193
GlyphClass: 2
Flags: W
LayerCount: 2
Fore
SplineSet
427 1148 m 0,0,1
 427 1178 427 1178 398 1178 c 2,2,-1
 282 1178 l 2,3,4
 237 1178 237 1178 214 1152 c 0,5,6
 174 1107 174 1107 174 1060 c 2,7,-1
 174 1003 l 2,8,9
 174 925 174 925 101 895 c 0,10,11
 79 886 79 886 54.5 886 c 128,-1,12
 30 886 30 886 8.5 895 c 128,-1,13
 -13 904 -13 904 -28 920 c 1,14,15
 -63 954 -63 954 -63 1003 c 2,16,-1
 -63 1063 l 2,17,18
 -63 1185 -63 1185 24 1272 c 128,-1,19
 111 1359 111 1359 233 1359 c 2,20,-1
 689 1359 l 2,21,22
 855 1359 855 1359 950 1278 c 0,23,24
 1044 1199 1044 1199 1044 1063 c 2,25,-1
 1044 98 l 2,26,27
 1044 22 1044 22 972 -10 c 0,28,29
 951 -19 951 -19 926.5 -19 c 128,-1,30
 902 -19 902 -19 880 -9.5 c 128,-1,31
 858 0 858 0 842 16 c 0,32,33
 807 49 807 49 807 98 c 2,34,-1
 807 433 l 1,35,-1
 570 433 l 1,36,-1
 570 98 l 2,37,38
 570 50 570 50 544 24 c 0,39,40
 501 -19 501 -19 464 -19 c 128,-1,41
 427 -19 427 -19 405 -9.5 c 128,-1,42
 383 0 383 0 367 16 c 0,43,44
 333 48 333 48 333 98 c 2,45,-1
 333 433 l 1,46,-1
 261 433 l 2,47,48
 226 433 226 433 206 452 c 1,49,50
 173 486 173 486 173 523.5 c 128,-1,51
 173 561 173 561 198.5 587.5 c 128,-1,52
 224 614 224 614 261 614 c 2,53,-1
 333 614 l 1,54,-1
 333 955 l 2,55,56
 333 1050 333 1050 418 1130 c 0,57,58
 427 1138 427 1138 427 1148 c 0,0,1
570 614 m 1,59,-1
 807 614 l 1,60,-1
 807 1059 l 2,61,62
 807 1109 807 1109 782 1134 c 0,63,64
 738 1178 738 1178 700.5 1178 c 128,-1,65
 663 1178 663 1178 641.5 1168.5 c 128,-1,66
 620 1159 620 1159 604 1143 c 0,67,68
 570 1109 570 1109 570 1060 c 2,69,-1
 570 614 l 1,59,-1
726 1820 m 2,70,71
 774 1886 774 1886 837 1886 c 0,72,73
 879 1886 879 1886 904 1860 c 1,74,75
 946 1819 946 1819 946 1781 c 0,76,77
 946 1705 946 1705 883 1662 c 2,78,-1
 663 1508 l 2,79,80
 639 1492 639 1492 620 1492 c 0,81,82
 586 1492 586 1492 569 1510 c 128,-1,83
 552 1528 552 1528 552 1553.5 c 128,-1,84
 552 1579 552 1579 569 1602 c 2,85,-1
 726 1820 l 2,70,71
EndSplineSet
EndChar

StartChar: Acircumflex
Encoding: 194 194 151
Width: 1193
GlyphClass: 2
Flags: W
LayerCount: 2
Fore
SplineSet
427 1148 m 0,0,1
 427 1178 427 1178 398 1178 c 2,2,-1
 282 1178 l 2,3,4
 237 1178 237 1178 214 1152 c 0,5,6
 174 1107 174 1107 174 1060 c 2,7,-1
 174 1003 l 2,8,9
 174 925 174 925 101 895 c 0,10,11
 79 886 79 886 54.5 886 c 128,-1,12
 30 886 30 886 8.5 895 c 128,-1,13
 -13 904 -13 904 -28 920 c 1,14,15
 -63 954 -63 954 -63 1003 c 2,16,-1
 -63 1063 l 2,17,18
 -63 1185 -63 1185 24 1272 c 128,-1,19
 111 1359 111 1359 233 1359 c 2,20,-1
 689 1359 l 2,21,22
 855 1359 855 1359 950 1278 c 0,23,24
 1044 1199 1044 1199 1044 1063 c 2,25,-1
 1044 98 l 2,26,27
 1044 22 1044 22 972 -10 c 0,28,29
 951 -19 951 -19 926.5 -19 c 128,-1,30
 902 -19 902 -19 880 -9.5 c 128,-1,31
 858 0 858 0 842 16 c 0,32,33
 807 49 807 49 807 98 c 2,34,-1
 807 433 l 1,35,-1
 570 433 l 1,36,-1
 570 98 l 2,37,38
 570 50 570 50 544 24 c 0,39,40
 501 -19 501 -19 464 -19 c 128,-1,41
 427 -19 427 -19 405 -9.5 c 128,-1,42
 383 0 383 0 367 16 c 0,43,44
 333 48 333 48 333 98 c 2,45,-1
 333 433 l 1,46,-1
 261 433 l 2,47,48
 226 433 226 433 206 452 c 1,49,50
 173 486 173 486 173 523.5 c 128,-1,51
 173 561 173 561 198.5 587.5 c 128,-1,52
 224 614 224 614 261 614 c 2,53,-1
 333 614 l 1,54,-1
 333 955 l 2,55,56
 333 1050 333 1050 418 1130 c 0,57,58
 427 1138 427 1138 427 1148 c 0,0,1
570 614 m 1,59,-1
 807 614 l 1,60,-1
 807 1059 l 2,61,62
 807 1109 807 1109 782 1134 c 0,63,64
 738 1178 738 1178 700.5 1178 c 128,-1,65
 663 1178 663 1178 641.5 1168.5 c 128,-1,66
 620 1159 620 1159 604 1143 c 0,67,68
 570 1109 570 1109 570 1060 c 2,69,-1
 570 614 l 1,59,-1
921 1599 m 2,70,71
 934 1575 934 1575 934 1553 c 128,-1,72
 934 1531 934 1531 917 1512 c 128,-1,73
 900 1493 900 1493 880 1493 c 0,74,75
 840 1493 840 1493 820 1513 c 2,76,-1
 689 1647 l 1,77,-1
 558 1513 l 2,78,79
 538 1493 538 1493 508 1493 c 128,-1,80
 478 1493 478 1493 461 1512 c 128,-1,81
 444 1531 444 1531 444 1553 c 128,-1,82
 444 1575 444 1575 457 1599 c 2,83,-1
 577 1812 l 2,84,85
 619 1888 619 1888 690 1888 c 0,86,87
 755 1888 755 1888 801 1812 c 1,88,-1
 921 1599 l 2,70,71
EndSplineSet
EndChar

StartChar: Atilde
Encoding: 195 195 152
Width: 1193
GlyphClass: 2
Flags: W
LayerCount: 2
Fore
SplineSet
427 1148 m 0,0,1
 427 1178 427 1178 398 1178 c 2,2,-1
 282 1178 l 2,3,4
 237 1178 237 1178 214 1152 c 0,5,6
 174 1107 174 1107 174 1060 c 2,7,-1
 174 1003 l 2,8,9
 174 925 174 925 101 895 c 0,10,11
 79 886 79 886 54.5 886 c 128,-1,12
 30 886 30 886 8.5 895 c 128,-1,13
 -13 904 -13 904 -28 920 c 1,14,15
 -63 954 -63 954 -63 1003 c 2,16,-1
 -63 1063 l 2,17,18
 -63 1185 -63 1185 24 1272 c 128,-1,19
 111 1359 111 1359 233 1359 c 2,20,-1
 689 1359 l 2,21,22
 855 1359 855 1359 950 1278 c 0,23,24
 1044 1199 1044 1199 1044 1063 c 2,25,-1
 1044 98 l 2,26,27
 1044 22 1044 22 972 -10 c 0,28,29
 951 -19 951 -19 926.5 -19 c 128,-1,30
 902 -19 902 -19 880 -9.5 c 128,-1,31
 858 0 858 0 842 16 c 0,32,33
 807 49 807 49 807 98 c 2,34,-1
 807 433 l 1,35,-1
 570 433 l 1,36,-1
 570 98 l 2,37,38
 570 50 570 50 544 24 c 0,39,40
 501 -19 501 -19 464 -19 c 128,-1,41
 427 -19 427 -19 405 -9.5 c 128,-1,42
 383 0 383 0 367 16 c 0,43,44
 333 48 333 48 333 98 c 2,45,-1
 333 433 l 1,46,-1
 261 433 l 2,47,48
 226 433 226 433 206 452 c 1,49,50
 173 486 173 486 173 523.5 c 128,-1,51
 173 561 173 561 198.5 587.5 c 128,-1,52
 224 614 224 614 261 614 c 2,53,-1
 333 614 l 1,54,-1
 333 955 l 2,55,56
 333 1050 333 1050 418 1130 c 0,57,58
 427 1138 427 1138 427 1148 c 0,0,1
570 614 m 1,59,-1
 807 614 l 1,60,-1
 807 1059 l 2,61,62
 807 1109 807 1109 782 1134 c 0,63,64
 738 1178 738 1178 700.5 1178 c 128,-1,65
 663 1178 663 1178 641.5 1168.5 c 128,-1,66
 620 1159 620 1159 604 1143 c 0,67,68
 570 1109 570 1109 570 1060 c 2,69,-1
 570 614 l 1,59,-1
923 1767 m 2,70,71
 943 1784 943 1784 968.5 1784 c 128,-1,72
 994 1784 994 1784 1010.5 1766 c 128,-1,73
 1027 1748 1027 1748 1027 1722 c 128,-1,74
 1027 1696 1027 1696 1006.5 1666 c 128,-1,75
 986 1636 986 1636 961.5 1607 c 128,-1,76
 937 1578 937 1578 908 1556 c 0,77,78
 848 1511 848 1511 782 1511 c 128,-1,79
 716 1511 716 1511 675 1540 c 128,-1,80
 634 1569 634 1569 614 1592 c 1,81,-1
 588 1624 l 1,82,83
 581 1631 581 1631 572 1631 c 0,84,85
 561 1631 561 1631 534 1608 c 2,86,-1
 472 1556 l 2,87,88
 452 1539 452 1539 426.5 1539 c 128,-1,89
 401 1539 401 1539 384.5 1557 c 128,-1,90
 368 1575 368 1575 368 1601 c 128,-1,91
 368 1627 368 1627 388 1657 c 128,-1,92
 408 1687 408 1687 432.5 1716.5 c 128,-1,93
 457 1746 457 1746 486 1767 c 0,94,95
 547 1812 547 1812 621 1812 c 0,96,97
 700 1812 700 1812 758 1752 c 2,98,-1
 793 1715 l 2,99,100
 801 1707 801 1707 807.5 1699.5 c 128,-1,101
 814 1692 814 1692 823 1692 c 0,102,103
 834 1692 834 1692 861 1715 c 2,104,-1
 923 1767 l 2,70,71
EndSplineSet
EndChar

StartChar: Adieresis
Encoding: 196 196 153
Width: 1193
GlyphClass: 2
Flags: W
LayerCount: 2
Fore
SplineSet
427 1148 m 0,0,1
 427 1178 427 1178 398 1178 c 2,2,-1
 282 1178 l 2,3,4
 237 1178 237 1178 214 1152 c 0,5,6
 174 1107 174 1107 174 1060 c 2,7,-1
 174 1003 l 2,8,9
 174 925 174 925 101 895 c 0,10,11
 79 886 79 886 54.5 886 c 128,-1,12
 30 886 30 886 8.5 895 c 128,-1,13
 -13 904 -13 904 -28 920 c 1,14,15
 -63 954 -63 954 -63 1003 c 2,16,-1
 -63 1063 l 2,17,18
 -63 1185 -63 1185 24 1272 c 128,-1,19
 111 1359 111 1359 233 1359 c 2,20,-1
 689 1359 l 2,21,22
 855 1359 855 1359 950 1278 c 0,23,24
 1044 1199 1044 1199 1044 1063 c 2,25,-1
 1044 98 l 2,26,27
 1044 22 1044 22 972 -10 c 0,28,29
 951 -19 951 -19 926.5 -19 c 128,-1,30
 902 -19 902 -19 880 -9.5 c 128,-1,31
 858 0 858 0 842 16 c 0,32,33
 807 49 807 49 807 98 c 2,34,-1
 807 433 l 1,35,-1
 570 433 l 1,36,-1
 570 98 l 2,37,38
 570 50 570 50 544 24 c 0,39,40
 501 -19 501 -19 464 -19 c 128,-1,41
 427 -19 427 -19 405 -9.5 c 128,-1,42
 383 0 383 0 367 16 c 0,43,44
 333 48 333 48 333 98 c 2,45,-1
 333 433 l 1,46,-1
 261 433 l 2,47,48
 226 433 226 433 206 452 c 1,49,50
 173 486 173 486 173 523.5 c 128,-1,51
 173 561 173 561 198.5 587.5 c 128,-1,52
 224 614 224 614 261 614 c 2,53,-1
 333 614 l 1,54,-1
 333 955 l 2,55,56
 333 1050 333 1050 418 1130 c 0,57,58
 427 1138 427 1138 427 1148 c 0,0,1
570 614 m 1,59,-1
 807 614 l 1,60,-1
 807 1059 l 2,61,62
 807 1109 807 1109 782 1134 c 0,63,64
 738 1178 738 1178 700.5 1178 c 128,-1,65
 663 1178 663 1178 641.5 1168.5 c 128,-1,66
 620 1159 620 1159 604 1143 c 0,67,68
 570 1109 570 1109 570 1060 c 2,69,-1
 570 614 l 1,59,-1
477 1778 m 256,70,71
 532 1778 532 1778 571 1738 c 1,72,73
 612 1698 612 1698 612 1657 c 128,-1,74
 612 1616 612 1616 601 1592 c 128,-1,75
 590 1568 590 1568 571 1550 c 1,76,77
 532 1510 532 1510 477 1510 c 256,78,79
 422 1510 422 1510 383 1550 c 1,80,81
 342 1590 342 1590 342 1630 c 0,82,83
 342 1698 342 1698 382 1738 c 128,-1,84
 422 1778 422 1778 477 1778 c 256,70,71
768.5 1592 m 128,-1,86
 758 1616 758 1616 758 1643.5 c 128,-1,87
 758 1671 758 1671 768.5 1695.5 c 128,-1,88
 779 1720 779 1720 797 1738 c 0,89,90
 837 1778 837 1778 878.5 1778 c 128,-1,91
 920 1778 920 1778 944.5 1767.5 c 128,-1,92
 969 1757 969 1757 987 1738 c 1,93,94
 1027 1699 1027 1699 1027 1657.5 c 128,-1,95
 1027 1616 1027 1616 1016.5 1592 c 128,-1,96
 1006 1568 1006 1568 987 1550 c 1,97,98
 948 1510 948 1510 906.5 1510 c 128,-1,99
 865 1510 865 1510 840.5 1520.5 c 128,-1,100
 816 1531 816 1531 797.5 1549.5 c 128,-1,85
 779 1568 779 1568 768.5 1592 c 128,-1,86
EndSplineSet
EndChar

StartChar: Aring
Encoding: 197 197 154
Width: 1193
GlyphClass: 2
Flags: W
LayerCount: 2
Fore
SplineSet
427 1148 m 0,0,1
 427 1178 427 1178 398 1178 c 2,2,-1
 282 1178 l 2,3,4
 237 1178 237 1178 214 1152 c 0,5,6
 174 1107 174 1107 174 1060 c 2,7,-1
 174 1003 l 2,8,9
 174 925 174 925 101 895 c 0,10,11
 79 886 79 886 54.5 886 c 128,-1,12
 30 886 30 886 8.5 895 c 128,-1,13
 -13 904 -13 904 -28 920 c 1,14,15
 -63 954 -63 954 -63 1003 c 2,16,-1
 -63 1063 l 2,17,18
 -63 1185 -63 1185 24 1272 c 128,-1,19
 111 1359 111 1359 233 1359 c 2,20,-1
 689 1359 l 2,21,22
 855 1359 855 1359 950 1278 c 0,23,24
 1044 1199 1044 1199 1044 1063 c 2,25,-1
 1044 98 l 2,26,27
 1044 22 1044 22 972 -10 c 0,28,29
 951 -19 951 -19 926.5 -19 c 128,-1,30
 902 -19 902 -19 880 -9.5 c 128,-1,31
 858 0 858 0 842 16 c 0,32,33
 807 49 807 49 807 98 c 2,34,-1
 807 433 l 1,35,-1
 570 433 l 1,36,-1
 570 98 l 2,37,38
 570 50 570 50 544 24 c 0,39,40
 501 -19 501 -19 464 -19 c 128,-1,41
 427 -19 427 -19 405 -9.5 c 128,-1,42
 383 0 383 0 367 16 c 0,43,44
 333 48 333 48 333 98 c 2,45,-1
 333 433 l 1,46,-1
 261 433 l 2,47,48
 226 433 226 433 206 452 c 1,49,50
 173 486 173 486 173 523.5 c 128,-1,51
 173 561 173 561 198.5 587.5 c 128,-1,52
 224 614 224 614 261 614 c 2,53,-1
 333 614 l 1,54,-1
 333 955 l 2,55,56
 333 1050 333 1050 418 1130 c 0,57,58
 427 1138 427 1138 427 1148 c 0,0,1
570 614 m 1,59,-1
 807 614 l 1,60,-1
 807 1059 l 2,61,62
 807 1109 807 1109 782 1134 c 0,63,64
 738 1178 738 1178 700.5 1178 c 128,-1,65
 663 1178 663 1178 641.5 1168.5 c 128,-1,66
 620 1159 620 1159 604 1143 c 0,67,68
 570 1109 570 1109 570 1060 c 2,69,-1
 570 614 l 1,59,-1
689 1485 m 0,70,71
 644 1485 644 1485 604 1502.5 c 128,-1,72
 564 1520 564 1520 533 1549 c 1,73,74
 468 1613 468 1613 468 1704 c 256,75,76
 468 1795 468 1795 533 1859 c 0,77,78
 601 1925 601 1925 689 1925 c 0,79,80
 780 1925 780 1925 845 1859 c 0,81,82
 908 1794 908 1794 908 1704 c 0,83,84
 908 1612 908 1612 844.5 1548.5 c 128,-1,85
 781 1485 781 1485 689 1485 c 0,70,71
725.5 1792 m 128,-1,87
 708 1800 708 1800 677.5 1800 c 128,-1,88
 647 1800 647 1800 619.5 1772 c 128,-1,89
 592 1744 592 1744 592 1714.5 c 128,-1,90
 592 1685 592 1685 600 1667.5 c 128,-1,91
 608 1650 608 1650 621 1637 c 0,92,93
 651 1609 651 1609 679 1609 c 128,-1,94
 707 1609 707 1609 724.5 1617 c 128,-1,95
 742 1625 742 1625 755 1638 c 0,96,97
 785 1666 785 1666 785 1694.5 c 128,-1,98
 785 1723 785 1723 777 1740.5 c 128,-1,99
 769 1758 769 1758 756 1771 c 128,-1,86
 743 1784 743 1784 725.5 1792 c 128,-1,87
EndSplineSet
EndChar

StartChar: AE
Encoding: 198 198 155
Width: 1655
GlyphClass: 2
Flags: W
LayerCount: 2
Fore
SplineSet
594 1148 m 0,0,1
 594 1178 594 1178 565 1178 c 2,2,-1
 449 1178 l 2,3,4
 404 1178 404 1178 381 1152 c 0,5,6
 341 1107 341 1107 341 1060 c 2,7,-1
 341 1003 l 2,8,9
 341 925 341 925 268 895 c 0,10,11
 246 886 246 886 221.5 886 c 128,-1,12
 197 886 197 886 175.5 895 c 128,-1,13
 154 904 154 904 138 920 c 0,14,15
 104 954 104 954 104 1003 c 2,16,-1
 104 1063 l 2,17,18
 104 1185 104 1185 191 1272 c 128,-1,19
 278 1359 278 1359 400 1359 c 2,20,-1
 826 1359 l 2,21,22
 985 1359 985 1359 1069 1259 c 0,23,24
 1080 1247 1080 1247 1092 1247 c 128,-1,25
 1104 1247 1104 1247 1115 1259 c 0,26,27
 1197 1359 1197 1359 1360 1359 c 2,28,-1
 1563 1359 l 2,29,30
 1623 1359 1623 1359 1646 1304 c 0,31,32
 1653 1288 1653 1288 1653 1269.5 c 128,-1,33
 1653 1251 1653 1251 1646 1234.5 c 128,-1,34
 1639 1218 1639 1218 1627 1206 c 0,35,36
 1601 1178 1601 1178 1563 1178 c 2,37,-1
 1329 1178 l 2,38,39
 1281 1178 1281 1178 1246 1151.5 c 128,-1,40
 1211 1125 1211 1125 1211 1072 c 2,41,-1
 1211 667 l 1,42,-1
 1474 667 l 2,43,44
 1512 667 1512 667 1537.5 641 c 128,-1,45
 1563 615 1563 615 1563 577.5 c 128,-1,46
 1563 540 1563 540 1537.5 513.5 c 128,-1,47
 1512 487 1512 487 1474 487 c 2,48,-1
 1211 487 l 1,49,-1
 1211 298 l 2,50,51
 1211 247 1211 247 1236 223 c 0,52,53
 1280 181 1280 181 1329 181 c 2,54,-1
 1563 181 l 2,55,56
 1622 181 1622 181 1646 124 c 0,57,58
 1653 108 1653 108 1653 89.5 c 128,-1,59
 1653 71 1653 71 1646 54.5 c 128,-1,60
 1639 38 1639 38 1627 26 c 0,61,62
 1601 0 1601 0 1563 0 c 2,63,-1
 1270 0 l 2,64,65
 1148 0 1148 0 1061 87 c 128,-1,66
 974 174 974 174 974 296 c 2,67,-1
 974 486 l 1,68,-1
 737 486 l 1,69,-1
 737 98 l 2,70,71
 737 50 737 50 712 24 c 1,72,73
 668 -19 668 -19 631 -19 c 128,-1,74
 594 -19 594 -19 572 -9.5 c 128,-1,75
 550 0 550 0 534 16 c 0,76,77
 500 48 500 48 500 98 c 2,78,-1
 500 486 l 1,79,-1
 428 486 l 2,80,81
 393 486 393 486 374 506 c 1,82,83
 340 539 340 539 340 576.5 c 128,-1,84
 340 614 340 614 365.5 640.5 c 128,-1,85
 391 667 391 667 428 667 c 2,86,-1
 500 667 l 1,87,-1
 500 955 l 2,88,89
 500 1050 500 1050 586 1130 c 0,90,91
 594 1138 594 1138 594 1148 c 0,0,1
737 667 m 1,92,-1
 974 667 l 1,93,-1
 974 1059 l 2,94,95
 974 1109 974 1109 949 1134 c 0,96,97
 905 1178 905 1178 867.5 1178 c 128,-1,98
 830 1178 830 1178 808.5 1168.5 c 128,-1,99
 787 1159 787 1159 771 1143 c 0,100,101
 737 1109 737 1109 737 1060 c 2,102,-1
 737 667 l 1,92,-1
EndSplineSet
EndChar

StartChar: Ccedilla
Encoding: 199 199 156
Width: 1026
GlyphClass: 2
Flags: W
LayerCount: 2
Fore
SplineSet
416 -204 m 2,0,1
 389 -204 389 -204 372 -188 c 128,-1,2
 355 -172 355 -172 355 -148 c 128,-1,3
 355 -124 355 -124 369 -91 c 2,4,-1
 405 -9 l 1,5,6
 285 14 285 14 220.5 88 c 128,-1,7
 156 162 156 162 156 277 c 2,8,-1
 156 1085 l 2,9,10
 156 1220 156 1220 248 1298 c 0,11,12
 344 1379 344 1379 511 1379 c 0,13,14
 683 1379 683 1379 780 1298 c 0,15,16
 876 1219 876 1219 876 1084 c 0,17,18
 876 873 876 873 768 799 c 0,19,20
 735 776 735 776 701.5 776 c 128,-1,21
 668 776 668 776 646.5 785 c 128,-1,22
 625 794 625 794 609 810 c 0,23,24
 575 842 575 842 575 883 c 128,-1,25
 575 924 575 924 588 945.5 c 128,-1,26
 601 967 601 967 617 986 c 0,27,28
 659 1038 659 1038 659 1071.5 c 128,-1,29
 659 1105 659 1105 649 1126.5 c 128,-1,30
 639 1148 639 1148 621 1164 c 0,31,32
 582 1199 582 1199 522 1199 c 128,-1,33
 462 1199 462 1199 427.5 1164.5 c 128,-1,34
 393 1130 393 1130 393 1080 c 2,35,-1
 393 268 l 2,36,37
 393 217 393 217 426.5 189.5 c 128,-1,38
 460 162 460 162 510.5 162 c 128,-1,39
 561 162 561 162 595 189.5 c 128,-1,40
 629 217 629 217 629 268 c 2,41,-1
 629 333 l 2,42,43
 629 383 629 383 654 408 c 0,44,45
 697 451 697 451 734 451 c 128,-1,46
 771 451 771 451 793 442 c 128,-1,47
 815 433 815 433 831 417 c 0,48,49
 866 382 866 382 866 333 c 2,50,-1
 866 274 l 2,51,52
 866 72 866 72 676 6 c 0,53,54
 614 -15 614 -15 535 -18 c 1,55,-1
 503 -92 l 1,56,57
 595 -92 595 -92 648 -144 c 1,58,59
 697 -190 697 -190 697 -265 c 0,60,61
 697 -384 697 -384 574 -424 c 0,62,63
 532 -438 532 -438 476 -438 c 2,64,-1
 315 -438 l 2,65,66
 292 -438 292 -438 276 -421.5 c 128,-1,67
 260 -405 260 -405 260 -381.5 c 128,-1,68
 260 -358 260 -358 276 -341.5 c 128,-1,69
 292 -325 292 -325 315 -325 c 2,70,-1
 436 -325 l 2,71,72
 468 -325 468 -325 488.5 -306.5 c 128,-1,73
 509 -288 509 -288 509 -263.5 c 128,-1,74
 509 -239 509 -239 489.5 -221.5 c 128,-1,75
 470 -204 470 -204 442 -204 c 2,76,-1
 416 -204 l 2,0,1
EndSplineSet
EndChar

StartChar: Egrave
Encoding: 200 200 157
Width: 1024
GlyphClass: 2
Flags: W
LayerCount: 2
Fore
SplineSet
520 1379 m 0,0,1
 606 1379 606 1379 674 1359 c 128,-1,2
 742 1339 742 1339 788 1300 c 0,3,4
 884 1221 884 1221 884 1084 c 0,5,6
 884 873 884 873 776 799 c 0,7,8
 743 776 743 776 709.5 776 c 128,-1,9
 676 776 676 776 654.5 785 c 128,-1,10
 633 794 633 794 617 810 c 0,11,12
 583 842 583 842 583 883 c 128,-1,13
 583 924 583 924 596 945.5 c 128,-1,14
 609 967 609 967 625 986 c 0,15,16
 667 1038 667 1038 667 1087 c 128,-1,17
 667 1136 667 1136 629.5 1167 c 128,-1,18
 592 1198 592 1198 529 1198 c 128,-1,19
 466 1198 466 1198 427 1170.5 c 128,-1,20
 388 1143 388 1143 388 1092 c 2,21,-1
 388 785 l 2,22,23
 388 736 388 736 413 710 c 0,24,25
 455 666 455 666 505 666 c 2,26,-1
 523 666 l 2,27,28
 561 666 561 666 586.5 639.5 c 128,-1,29
 612 613 612 613 612 575.5 c 128,-1,30
 612 538 612 538 586.5 512 c 128,-1,31
 561 486 561 486 529.5 486 c 128,-1,32
 498 486 498 486 476.5 477 c 128,-1,33
 455 468 455 468 439 452 c 0,34,35
 405 418 405 418 405 368 c 2,36,-1
 405 298 l 2,37,38
 405 248 405 248 430 223 c 0,39,40
 473 180 473 180 523 180 c 0,41,42
 568 180 568 180 591 204 c 0,43,44
 633 248 633 248 633 284 c 128,-1,45
 633 320 633 320 642 341.5 c 128,-1,46
 651 363 651 363 667 379 c 0,47,48
 702 414 702 414 751 414 c 0,49,50
 799 414 799 414 824 388 c 1,51,52
 868 345 868 345 868 286.5 c 128,-1,53
 868 228 868 228 844.5 173.5 c 128,-1,54
 821 119 821 119 777 80 c 0,55,56
 685 0 685 0 523 0 c 0,57,58
 356 0 356 0 260 80 c 1,59,60
 168 159 168 159 168 294 c 2,61,-1
 168 324 l 2,62,63
 168 460 168 460 252 532 c 0,64,65
 277 554 277 554 309 572 c 1,66,67
 223 606 223 606 187.5 661.5 c 128,-1,68
 152 717 152 717 152 796 c 2,69,-1
 152 1083 l 2,70,71
 152 1220 152 1220 249 1299.5 c 128,-1,72
 346 1379 346 1379 520 1379 c 0,0,1
644 1602 m 2,73,74
 661 1579 661 1579 661 1553.5 c 128,-1,75
 661 1528 661 1528 648 1514 c 0,76,77
 626 1492 626 1492 600 1492 c 128,-1,78
 574 1492 574 1492 550 1508 c 2,79,-1
 330 1662 l 2,80,81
 267 1705 267 1705 267 1775 c 0,82,83
 267 1819 267 1819 292 1844 c 0,84,85
 334 1886 334 1886 371 1886 c 0,86,87
 439 1886 439 1886 487 1820 c 2,88,-1
 644 1602 l 2,73,74
EndSplineSet
EndChar

StartChar: Eacute
Encoding: 201 201 158
Width: 1024
GlyphClass: 2
Flags: W
LayerCount: 2
Fore
SplineSet
520 1379 m 0,0,1
 606 1379 606 1379 674 1359 c 128,-1,2
 742 1339 742 1339 788 1300 c 0,3,4
 884 1221 884 1221 884 1084 c 0,5,6
 884 873 884 873 776 799 c 0,7,8
 743 776 743 776 709.5 776 c 128,-1,9
 676 776 676 776 654.5 785 c 128,-1,10
 633 794 633 794 617 810 c 0,11,12
 583 842 583 842 583 883 c 128,-1,13
 583 924 583 924 596 945.5 c 128,-1,14
 609 967 609 967 625 986 c 0,15,16
 667 1038 667 1038 667 1087 c 128,-1,17
 667 1136 667 1136 629.5 1167 c 128,-1,18
 592 1198 592 1198 529 1198 c 128,-1,19
 466 1198 466 1198 427 1170.5 c 128,-1,20
 388 1143 388 1143 388 1092 c 2,21,-1
 388 785 l 2,22,23
 388 736 388 736 413 710 c 0,24,25
 455 666 455 666 505 666 c 2,26,-1
 523 666 l 2,27,28
 561 666 561 666 586.5 639.5 c 128,-1,29
 612 613 612 613 612 575.5 c 128,-1,30
 612 538 612 538 586.5 512 c 128,-1,31
 561 486 561 486 529.5 486 c 128,-1,32
 498 486 498 486 476.5 477 c 128,-1,33
 455 468 455 468 439 452 c 0,34,35
 405 418 405 418 405 368 c 2,36,-1
 405 298 l 2,37,38
 405 248 405 248 430 223 c 0,39,40
 473 180 473 180 523 180 c 0,41,42
 568 180 568 180 591 204 c 0,43,44
 633 248 633 248 633 284 c 128,-1,45
 633 320 633 320 642 341.5 c 128,-1,46
 651 363 651 363 667 379 c 0,47,48
 702 414 702 414 751 414 c 0,49,50
 799 414 799 414 824 388 c 1,51,52
 868 345 868 345 868 286.5 c 128,-1,53
 868 228 868 228 844.5 173.5 c 128,-1,54
 821 119 821 119 777 80 c 0,55,56
 685 0 685 0 523 0 c 0,57,58
 356 0 356 0 260 80 c 1,59,60
 168 159 168 159 168 294 c 2,61,-1
 168 324 l 2,62,63
 168 460 168 460 252 532 c 0,64,65
 277 554 277 554 309 572 c 1,66,67
 223 606 223 606 187.5 661.5 c 128,-1,68
 152 717 152 717 152 796 c 2,69,-1
 152 1083 l 2,70,71
 152 1220 152 1220 249 1299.5 c 128,-1,72
 346 1379 346 1379 520 1379 c 0,0,1
560 1820 m 2,73,74
 608 1886 608 1886 671 1886 c 0,75,76
 713 1886 713 1886 738 1860 c 1,77,78
 780 1819 780 1819 780 1781 c 0,79,80
 780 1705 780 1705 717 1662 c 2,81,-1
 497 1508 l 2,82,83
 473 1492 473 1492 454 1492 c 0,84,85
 420 1492 420 1492 403 1510 c 128,-1,86
 386 1528 386 1528 386 1553.5 c 128,-1,87
 386 1579 386 1579 403 1602 c 2,88,-1
 560 1820 l 2,73,74
EndSplineSet
EndChar

StartChar: Ecircumflex
Encoding: 202 202 159
Width: 1024
GlyphClass: 2
Flags: W
LayerCount: 2
Fore
SplineSet
520 1379 m 0,0,1
 606 1379 606 1379 674 1359 c 128,-1,2
 742 1339 742 1339 788 1300 c 0,3,4
 884 1221 884 1221 884 1084 c 0,5,6
 884 873 884 873 776 799 c 0,7,8
 743 776 743 776 709.5 776 c 128,-1,9
 676 776 676 776 654.5 785 c 128,-1,10
 633 794 633 794 617 810 c 0,11,12
 583 842 583 842 583 883 c 128,-1,13
 583 924 583 924 596 945.5 c 128,-1,14
 609 967 609 967 625 986 c 0,15,16
 667 1038 667 1038 667 1087 c 128,-1,17
 667 1136 667 1136 629.5 1167 c 128,-1,18
 592 1198 592 1198 529 1198 c 128,-1,19
 466 1198 466 1198 427 1170.5 c 128,-1,20
 388 1143 388 1143 388 1092 c 2,21,-1
 388 785 l 2,22,23
 388 736 388 736 413 710 c 0,24,25
 455 666 455 666 505 666 c 2,26,-1
 523 666 l 2,27,28
 561 666 561 666 586.5 639.5 c 128,-1,29
 612 613 612 613 612 575.5 c 128,-1,30
 612 538 612 538 586.5 512 c 128,-1,31
 561 486 561 486 529.5 486 c 128,-1,32
 498 486 498 486 476.5 477 c 128,-1,33
 455 468 455 468 439 452 c 0,34,35
 405 418 405 418 405 368 c 2,36,-1
 405 298 l 2,37,38
 405 248 405 248 430 223 c 0,39,40
 473 180 473 180 523 180 c 0,41,42
 568 180 568 180 591 204 c 0,43,44
 633 248 633 248 633 284 c 128,-1,45
 633 320 633 320 642 341.5 c 128,-1,46
 651 363 651 363 667 379 c 0,47,48
 702 414 702 414 751 414 c 0,49,50
 799 414 799 414 824 388 c 1,51,52
 868 345 868 345 868 286.5 c 128,-1,53
 868 228 868 228 844.5 173.5 c 128,-1,54
 821 119 821 119 777 80 c 0,55,56
 685 0 685 0 523 0 c 0,57,58
 356 0 356 0 260 80 c 1,59,60
 168 159 168 159 168 294 c 2,61,-1
 168 324 l 2,62,63
 168 460 168 460 252 532 c 0,64,65
 277 554 277 554 309 572 c 1,66,67
 223 606 223 606 187.5 661.5 c 128,-1,68
 152 717 152 717 152 796 c 2,69,-1
 152 1083 l 2,70,71
 152 1220 152 1220 249 1299.5 c 128,-1,72
 346 1379 346 1379 520 1379 c 0,0,1
755 1599 m 2,73,74
 768 1575 768 1575 768 1553 c 128,-1,75
 768 1531 768 1531 751 1512 c 128,-1,76
 734 1493 734 1493 714 1493 c 0,77,78
 674 1493 674 1493 654 1513 c 2,79,-1
 523 1647 l 1,80,-1
 392 1513 l 2,81,82
 372 1493 372 1493 342 1493 c 128,-1,83
 312 1493 312 1493 295 1512 c 128,-1,84
 278 1531 278 1531 278 1553 c 128,-1,85
 278 1575 278 1575 291 1599 c 2,86,-1
 411 1812 l 2,87,88
 453 1888 453 1888 524 1888 c 0,89,90
 589 1888 589 1888 635 1812 c 1,91,-1
 755 1599 l 2,73,74
EndSplineSet
EndChar

StartChar: Edieresis
Encoding: 203 203 160
Width: 1024
GlyphClass: 2
Flags: W
LayerCount: 2
Fore
SplineSet
520 1379 m 0,0,1
 606 1379 606 1379 674 1359 c 128,-1,2
 742 1339 742 1339 788 1300 c 0,3,4
 884 1221 884 1221 884 1084 c 0,5,6
 884 873 884 873 776 799 c 0,7,8
 743 776 743 776 709.5 776 c 128,-1,9
 676 776 676 776 654.5 785 c 128,-1,10
 633 794 633 794 617 810 c 0,11,12
 583 842 583 842 583 883 c 128,-1,13
 583 924 583 924 596 945.5 c 128,-1,14
 609 967 609 967 625 986 c 0,15,16
 667 1038 667 1038 667 1087 c 128,-1,17
 667 1136 667 1136 629.5 1167 c 128,-1,18
 592 1198 592 1198 529 1198 c 128,-1,19
 466 1198 466 1198 427 1170.5 c 128,-1,20
 388 1143 388 1143 388 1092 c 2,21,-1
 388 785 l 2,22,23
 388 736 388 736 413 710 c 0,24,25
 455 666 455 666 505 666 c 2,26,-1
 523 666 l 2,27,28
 561 666 561 666 586.5 639.5 c 128,-1,29
 612 613 612 613 612 575.5 c 128,-1,30
 612 538 612 538 586.5 512 c 128,-1,31
 561 486 561 486 529.5 486 c 128,-1,32
 498 486 498 486 476.5 477 c 128,-1,33
 455 468 455 468 439 452 c 0,34,35
 405 418 405 418 405 368 c 2,36,-1
 405 298 l 2,37,38
 405 248 405 248 430 223 c 0,39,40
 473 180 473 180 523 180 c 0,41,42
 568 180 568 180 591 204 c 0,43,44
 633 248 633 248 633 284 c 128,-1,45
 633 320 633 320 642 341.5 c 128,-1,46
 651 363 651 363 667 379 c 0,47,48
 702 414 702 414 751 414 c 0,49,50
 799 414 799 414 824 388 c 1,51,52
 868 345 868 345 868 286.5 c 128,-1,53
 868 228 868 228 844.5 173.5 c 128,-1,54
 821 119 821 119 777 80 c 0,55,56
 685 0 685 0 523 0 c 0,57,58
 356 0 356 0 260 80 c 1,59,60
 168 159 168 159 168 294 c 2,61,-1
 168 324 l 2,62,63
 168 460 168 460 252 532 c 0,64,65
 277 554 277 554 309 572 c 1,66,67
 223 606 223 606 187.5 661.5 c 128,-1,68
 152 717 152 717 152 796 c 2,69,-1
 152 1083 l 2,70,71
 152 1220 152 1220 249 1299.5 c 128,-1,72
 346 1379 346 1379 520 1379 c 0,0,1
311 1778 m 256,73,74
 366 1778 366 1778 405 1738 c 1,75,76
 446 1698 446 1698 446 1657 c 128,-1,77
 446 1616 446 1616 435 1592 c 128,-1,78
 424 1568 424 1568 405 1550 c 1,79,80
 366 1510 366 1510 311 1510 c 256,81,82
 256 1510 256 1510 217 1550 c 1,83,84
 176 1590 176 1590 176 1630 c 0,85,86
 176 1698 176 1698 216 1738 c 128,-1,87
 256 1778 256 1778 311 1778 c 256,73,74
602.5 1592 m 128,-1,89
 592 1616 592 1616 592 1643.5 c 128,-1,90
 592 1671 592 1671 602.5 1695.5 c 128,-1,91
 613 1720 613 1720 631 1738 c 0,92,93
 671 1778 671 1778 712.5 1778 c 128,-1,94
 754 1778 754 1778 778.5 1767.5 c 128,-1,95
 803 1757 803 1757 821 1738 c 1,96,97
 861 1699 861 1699 861 1657.5 c 128,-1,98
 861 1616 861 1616 850.5 1592 c 128,-1,99
 840 1568 840 1568 821 1550 c 1,100,101
 782 1510 782 1510 740.5 1510 c 128,-1,102
 699 1510 699 1510 674.5 1520.5 c 128,-1,103
 650 1531 650 1531 631.5 1549.5 c 128,-1,88
 613 1568 613 1568 602.5 1592 c 128,-1,89
EndSplineSet
EndChar

StartChar: Igrave
Encoding: 204 204 161
Width: 855
GlyphClass: 2
Flags: W
LayerCount: 2
Fore
SplineSet
267 1003 m 2,0,1
 267 925 267 925 194 895 c 0,2,3
 172 886 172 886 147.5 886 c 128,-1,4
 123 886 123 886 101.5 895 c 128,-1,5
 80 904 80 904 64 920 c 0,6,7
 30 954 30 954 30 1003 c 2,8,-1
 30 1063 l 2,9,10
 30 1186 30 1186 118 1272 c 0,11,12
 206 1359 206 1359 326 1359 c 2,13,-1
 544 1359 l 2,14,15
 593 1359 593 1359 618 1334 c 0,16,17
 662 1290 662 1290 662 1239 c 2,18,-1
 662 296 l 2,19,20
 662 173 662 173 576 87 c 0,21,22
 489 0 489 0 367 0 c 2,23,-1
 251 0 l 2,24,25
 213 0 213 0 187 26 c 128,-1,26
 161 52 161 52 161 89.5 c 128,-1,27
 161 127 161 127 187 154 c 128,-1,28
 213 181 213 181 251 181 c 2,29,-1
 308 181 l 2,30,31
 357 181 357 181 383 206 c 0,32,33
 426 247 426 247 426 298 c 2,34,-1
 426 1179 l 1,35,-1
 381 1179 l 2,36,37
 333 1179 333 1179 308 1153 c 0,38,39
 267 1109 267 1109 267 1060 c 2,40,-1
 267 1003 l 2,0,1
631 1602 m 2,41,42
 648 1579 648 1579 648 1553.5 c 128,-1,43
 648 1528 648 1528 635 1514 c 0,44,45
 613 1492 613 1492 587 1492 c 128,-1,46
 561 1492 561 1492 537 1508 c 2,47,-1
 317 1662 l 2,48,49
 254 1705 254 1705 254 1775 c 0,50,51
 254 1819 254 1819 279 1844 c 0,52,53
 321 1886 321 1886 358 1886 c 0,54,55
 426 1886 426 1886 474 1820 c 2,56,-1
 631 1602 l 2,41,42
EndSplineSet
EndChar

StartChar: Iacute
Encoding: 205 205 162
Width: 855
GlyphClass: 2
Flags: W
LayerCount: 2
Fore
SplineSet
267 1003 m 2,0,1
 267 925 267 925 194 895 c 0,2,3
 172 886 172 886 147.5 886 c 128,-1,4
 123 886 123 886 101.5 895 c 128,-1,5
 80 904 80 904 64 920 c 0,6,7
 30 954 30 954 30 1003 c 2,8,-1
 30 1063 l 2,9,10
 30 1186 30 1186 118 1272 c 0,11,12
 206 1359 206 1359 326 1359 c 2,13,-1
 544 1359 l 2,14,15
 593 1359 593 1359 618 1334 c 0,16,17
 662 1290 662 1290 662 1239 c 2,18,-1
 662 296 l 2,19,20
 662 173 662 173 576 87 c 0,21,22
 489 0 489 0 367 0 c 2,23,-1
 251 0 l 2,24,25
 213 0 213 0 187 26 c 128,-1,26
 161 52 161 52 161 89.5 c 128,-1,27
 161 127 161 127 187 154 c 128,-1,28
 213 181 213 181 251 181 c 2,29,-1
 308 181 l 2,30,31
 357 181 357 181 383 206 c 0,32,33
 426 247 426 247 426 298 c 2,34,-1
 426 1179 l 1,35,-1
 381 1179 l 2,36,37
 333 1179 333 1179 308 1153 c 0,38,39
 267 1109 267 1109 267 1060 c 2,40,-1
 267 1003 l 2,0,1
547 1820 m 2,41,42
 595 1886 595 1886 658 1886 c 0,43,44
 700 1886 700 1886 725 1860 c 1,45,46
 767 1819 767 1819 767 1781 c 0,47,48
 767 1705 767 1705 704 1662 c 2,49,-1
 484 1508 l 2,50,51
 460 1492 460 1492 441 1492 c 0,52,53
 407 1492 407 1492 390 1510 c 128,-1,54
 373 1528 373 1528 373 1553.5 c 128,-1,55
 373 1579 373 1579 390 1602 c 2,56,-1
 547 1820 l 2,41,42
EndSplineSet
EndChar

StartChar: Icircumflex
Encoding: 206 206 163
Width: 855
GlyphClass: 2
Flags: W
LayerCount: 2
Fore
SplineSet
267 1003 m 2,0,1
 267 925 267 925 194 895 c 0,2,3
 172 886 172 886 147.5 886 c 128,-1,4
 123 886 123 886 101.5 895 c 128,-1,5
 80 904 80 904 64 920 c 0,6,7
 30 954 30 954 30 1003 c 2,8,-1
 30 1063 l 2,9,10
 30 1186 30 1186 118 1272 c 0,11,12
 206 1359 206 1359 326 1359 c 2,13,-1
 544 1359 l 2,14,15
 593 1359 593 1359 618 1334 c 0,16,17
 662 1290 662 1290 662 1239 c 2,18,-1
 662 296 l 2,19,20
 662 173 662 173 576 87 c 0,21,22
 489 0 489 0 367 0 c 2,23,-1
 251 0 l 2,24,25
 213 0 213 0 187 26 c 128,-1,26
 161 52 161 52 161 89.5 c 128,-1,27
 161 127 161 127 187 154 c 128,-1,28
 213 181 213 181 251 181 c 2,29,-1
 308 181 l 2,30,31
 357 181 357 181 383 206 c 0,32,33
 426 247 426 247 426 298 c 2,34,-1
 426 1179 l 1,35,-1
 381 1179 l 2,36,37
 333 1179 333 1179 308 1153 c 0,38,39
 267 1109 267 1109 267 1060 c 2,40,-1
 267 1003 l 2,0,1
742 1599 m 2,41,42
 755 1575 755 1575 755 1553 c 128,-1,43
 755 1531 755 1531 738 1512 c 128,-1,44
 721 1493 721 1493 701 1493 c 0,45,46
 661 1493 661 1493 641 1513 c 2,47,-1
 510 1647 l 1,48,-1
 379 1513 l 2,49,50
 359 1493 359 1493 329 1493 c 128,-1,51
 299 1493 299 1493 282 1512 c 128,-1,52
 265 1531 265 1531 265 1553 c 128,-1,53
 265 1575 265 1575 278 1599 c 2,54,-1
 398 1812 l 2,55,56
 440 1888 440 1888 511 1888 c 0,57,58
 576 1888 576 1888 622 1812 c 1,59,-1
 742 1599 l 2,41,42
EndSplineSet
EndChar

StartChar: Idieresis
Encoding: 207 207 164
Width: 855
GlyphClass: 2
Flags: W
LayerCount: 2
Fore
SplineSet
267 1003 m 2,0,1
 267 925 267 925 194 895 c 0,2,3
 172 886 172 886 147.5 886 c 128,-1,4
 123 886 123 886 101.5 895 c 128,-1,5
 80 904 80 904 64 920 c 0,6,7
 30 954 30 954 30 1003 c 2,8,-1
 30 1063 l 2,9,10
 30 1186 30 1186 118 1272 c 0,11,12
 206 1359 206 1359 326 1359 c 2,13,-1
 544 1359 l 2,14,15
 593 1359 593 1359 618 1334 c 0,16,17
 662 1290 662 1290 662 1239 c 2,18,-1
 662 296 l 2,19,20
 662 173 662 173 576 87 c 0,21,22
 489 0 489 0 367 0 c 2,23,-1
 251 0 l 2,24,25
 213 0 213 0 187 26 c 128,-1,26
 161 52 161 52 161 89.5 c 128,-1,27
 161 127 161 127 187 154 c 128,-1,28
 213 181 213 181 251 181 c 2,29,-1
 308 181 l 2,30,31
 357 181 357 181 383 206 c 0,32,33
 426 247 426 247 426 298 c 2,34,-1
 426 1179 l 1,35,-1
 381 1179 l 2,36,37
 333 1179 333 1179 308 1153 c 0,38,39
 267 1109 267 1109 267 1060 c 2,40,-1
 267 1003 l 2,0,1
298 1778 m 256,41,42
 353 1778 353 1778 392 1738 c 1,43,44
 433 1698 433 1698 433 1657 c 128,-1,45
 433 1616 433 1616 422 1592 c 128,-1,46
 411 1568 411 1568 392 1550 c 1,47,48
 353 1510 353 1510 298 1510 c 256,49,50
 243 1510 243 1510 204 1550 c 1,51,52
 163 1590 163 1590 163 1630 c 0,53,54
 163 1698 163 1698 203 1738 c 128,-1,55
 243 1778 243 1778 298 1778 c 256,41,42
589.5 1592 m 128,-1,57
 579 1616 579 1616 579 1643.5 c 128,-1,58
 579 1671 579 1671 589.5 1695.5 c 128,-1,59
 600 1720 600 1720 618 1738 c 0,60,61
 658 1778 658 1778 699.5 1778 c 128,-1,62
 741 1778 741 1778 765.5 1767.5 c 128,-1,63
 790 1757 790 1757 808 1738 c 1,64,65
 848 1699 848 1699 848 1657.5 c 128,-1,66
 848 1616 848 1616 837.5 1592 c 128,-1,67
 827 1568 827 1568 808 1550 c 1,68,69
 769 1510 769 1510 727.5 1510 c 128,-1,70
 686 1510 686 1510 661.5 1520.5 c 128,-1,71
 637 1531 637 1531 618.5 1549.5 c 128,-1,56
 600 1568 600 1568 589.5 1592 c 128,-1,57
EndSplineSet
EndChar

StartChar: Eth
Encoding: 208 208 165
Width: 1321
GlyphClass: 2
Flags: W
LayerCount: 2
Fore
SplineSet
297 1003 m 2,0,1
 297 925 297 925 224 895 c 0,2,3
 202 886 202 886 177.5 886 c 128,-1,4
 153 886 153 886 131.5 895 c 128,-1,5
 110 904 110 904 94 920 c 0,6,7
 60 952 60 952 60 1003 c 2,8,-1
 60 1063 l 2,9,10
 60 1185 60 1185 147 1272 c 128,-1,11
 234 1359 234 1359 356 1359 c 2,12,-1
 870 1359 l 2,13,14
 992 1359 992 1359 1079 1272 c 0,15,16
 1165 1186 1165 1186 1165 1063 c 2,17,-1
 1165 296 l 2,18,19
 1165 173 1165 173 1079 87 c 0,20,21
 992 0 992 0 870 0 c 2,22,-1
 324 0 l 2,23,24
 287 0 287 0 267 19 c 0,25,26
 233 51 233 51 233 79.5 c 128,-1,27
 233 108 233 108 240 124.5 c 128,-1,28
 247 141 247 141 260 154 c 0,29,30
 287 181 287 181 324 181 c 2,31,-1
 456 181 l 1,32,-1
 456 559 l 1,33,-1
 329 559 l 2,34,35
 302 559 302 559 284.5 575 c 128,-1,36
 267 591 267 591 267.5 615 c 128,-1,37
 268 639 268 639 284.5 655 c 128,-1,38
 301 671 301 671 326 671 c 2,39,-1
 456 671 l 1,40,-1
 456 956 l 2,41,42
 456 1051 456 1051 542 1131 c 0,43,44
 550 1139 550 1139 550 1148.5 c 128,-1,45
 550 1158 550 1158 543.5 1168.5 c 128,-1,46
 537 1179 537 1179 518 1179 c 2,47,-1
 405 1179 l 2,48,49
 361 1179 361 1179 337 1152 c 0,50,51
 297 1107 297 1107 297 1060 c 2,52,-1
 297 1003 l 2,0,1
693 559 m 1,53,-1
 693 181 l 1,54,-1
 812 181 l 2,55,56
 888 181 888 181 920 252 c 0,57,58
 929 273 929 273 929 298 c 2,59,-1
 929 1060 l 2,60,61
 929 1108 929 1108 904 1134 c 0,62,63
 861 1179 861 1179 812 1179 c 2,64,-1
 802 1179 l 1,65,66
 755 1176 755 1176 724 1143 c 128,-1,67
 693 1110 693 1110 693 1061 c 2,68,-1
 693 671 l 1,69,-1
 753 671 l 2,70,71
 777 671 777 671 793.5 654.5 c 128,-1,72
 810 638 810 638 810 614 c 128,-1,73
 810 590 810 590 793.5 574.5 c 128,-1,74
 777 559 777 559 754 559 c 2,75,-1
 693 559 l 1,53,-1
EndSplineSet
EndChar

StartChar: Ntilde
Encoding: 209 209 166
Width: 1193
GlyphClass: 2
Flags: W
LayerCount: 2
Fore
SplineSet
192 1003 m 2,0,1
 192 925 192 925 119 895 c 0,2,3
 97 886 97 886 72.5 886 c 128,-1,4
 48 886 48 886 26.5 895 c 128,-1,5
 5 904 5 904 -10 920 c 1,6,7
 -45 954 -45 954 -45 1003 c 2,8,-1
 -45 1063 l 2,9,10
 -45 1186 -45 1186 42 1272 c 0,11,12
 131 1359 131 1359 251 1359 c 2,13,-1
 451 1359 l 2,14,15
 510 1359 510 1359 546 1310 c 1,16,17
 561 1286 561 1286 574.5 1286 c 128,-1,18
 588 1286 588 1286 596 1294 c 2,19,-1
 614 1311 l 2,20,21
 687 1379 687 1379 782 1379 c 0,22,23
 890 1379 890 1379 968 1292 c 0,24,25
 1044 1206 1044 1206 1044 1083 c 2,26,-1
 1045 98 l 2,27,28
 1045 22 1045 22 974 -10 c 0,29,30
 952 -19 952 -19 927.5 -19 c 128,-1,31
 903 -19 903 -19 881 -9.5 c 128,-1,32
 859 0 859 0 843 16 c 0,33,34
 808 49 808 49 808 98 c 2,35,-1
 807 1080 l 2,36,37
 807 1130 807 1130 782 1155 c 0,38,39
 738 1199 738 1199 690 1199 c 256,40,41
 642 1199 642 1199 616 1176 c 0,42,43
 569 1134 569 1134 569 1087 c 2,44,-1
 569 296 l 2,45,46
 569 173 569 173 483 87 c 0,47,48
 396 0 396 0 274 0 c 2,49,-1
 188 0 l 2,50,51
 150 0 150 0 124 26 c 128,-1,52
 98 52 98 52 98 89.5 c 128,-1,53
 98 127 98 127 124 154 c 128,-1,54
 150 181 150 181 188 181 c 2,55,-1
 215 181 l 2,56,57
 264 181 264 181 290 206 c 0,58,59
 333 247 333 247 333 298 c 2,60,-1
 333 1179 l 1,61,-1
 306 1179 l 1,62,63
 258 1177 258 1177 234 1152 c 0,64,65
 192 1108 192 1108 192 1060 c 2,66,-1
 192 1003 l 2,0,1
925 1767 m 2,67,68
 945 1784 945 1784 970.5 1784 c 128,-1,69
 996 1784 996 1784 1012.5 1766 c 128,-1,70
 1029 1748 1029 1748 1029 1722 c 128,-1,71
 1029 1696 1029 1696 1008.5 1666 c 128,-1,72
 988 1636 988 1636 963.5 1607 c 128,-1,73
 939 1578 939 1578 910 1556 c 0,74,75
 850 1511 850 1511 784 1511 c 128,-1,76
 718 1511 718 1511 677 1540 c 128,-1,77
 636 1569 636 1569 616 1592 c 1,78,-1
 590 1624 l 1,79,80
 583 1631 583 1631 574 1631 c 0,81,82
 563 1631 563 1631 536 1608 c 2,83,-1
 474 1556 l 2,84,85
 454 1539 454 1539 428.5 1539 c 128,-1,86
 403 1539 403 1539 386.5 1557 c 128,-1,87
 370 1575 370 1575 370 1601 c 128,-1,88
 370 1627 370 1627 390 1657 c 128,-1,89
 410 1687 410 1687 434.5 1716.5 c 128,-1,90
 459 1746 459 1746 488 1767 c 0,91,92
 549 1812 549 1812 623 1812 c 0,93,94
 702 1812 702 1812 760 1752 c 2,95,-1
 795 1715 l 2,96,97
 803 1707 803 1707 809.5 1699.5 c 128,-1,98
 816 1692 816 1692 825 1692 c 0,99,100
 836 1692 836 1692 863 1715 c 2,101,-1
 925 1767 l 2,67,68
EndSplineSet
EndChar

StartChar: Ograve
Encoding: 210 210 167
Width: 1022
GlyphClass: 2
Flags: W
LayerCount: 2
Fore
SplineSet
373 1126.5 m 128,-1,1
 363 1105 363 1105 363 1077 c 128,-1,2
 363 1049 363 1049 376 1027.5 c 128,-1,3
 389 1006 389 1006 405 986 c 0,4,5
 447 935 447 935 447 901.5 c 128,-1,6
 447 868 447 868 438 846.5 c 128,-1,7
 429 825 429 825 413 810 c 0,8,9
 378 776 378 776 332.5 776 c 128,-1,10
 287 776 287 776 253.5 799 c 128,-1,11
 220 822 220 822 196 862 c 0,12,13
 146 947 146 947 146 1084 c 0,14,15
 146 1219 146 1219 242 1298 c 0,16,17
 339 1379 339 1379 511 1379 c 0,18,19
 678 1379 678 1379 774 1298 c 0,20,21
 866 1220 866 1220 866 1085 c 2,22,-1
 866 277 l 2,23,24
 866 140 866 140 772 60 c 0,25,26
 679 -19 679 -19 511 -19 c 256,27,28
 343 -19 343 -19 248 60 c 0,29,30
 156 137 156 137 156 274 c 2,31,-1
 156 600 l 2,32,33
 156 649 156 649 182 674 c 1,34,35
 225 718 225 718 262.5 718 c 128,-1,36
 300 718 300 718 321.5 709 c 128,-1,37
 343 700 343 700 359 684 c 0,38,39
 393 650 393 650 393 600 c 2,40,-1
 393 268 l 2,41,42
 393 217 393 217 427 189.5 c 128,-1,43
 461 162 461 162 511.5 162 c 128,-1,44
 562 162 562 162 595.5 189.5 c 128,-1,45
 629 217 629 217 629 268 c 2,46,-1
 629 1080 l 2,47,48
 629 1130 629 1130 594.5 1164.5 c 128,-1,49
 560 1199 560 1199 515.5 1199 c 128,-1,50
 471 1199 471 1199 445 1189.5 c 128,-1,51
 419 1180 419 1180 401 1164 c 128,-1,0
 383 1148 383 1148 373 1126.5 c 128,-1,1
681 1602 m 2,52,53
 698 1579 698 1579 698 1553.5 c 128,-1,54
 698 1528 698 1528 685 1514 c 0,55,56
 663 1492 663 1492 637 1492 c 128,-1,57
 611 1492 611 1492 587 1508 c 2,58,-1
 367 1662 l 2,59,60
 304 1705 304 1705 304 1775 c 0,61,62
 304 1819 304 1819 329 1844 c 0,63,64
 371 1886 371 1886 408 1886 c 0,65,66
 476 1886 476 1886 524 1820 c 2,67,-1
 681 1602 l 2,52,53
EndSplineSet
EndChar

StartChar: Oacute
Encoding: 211 211 168
Width: 1022
GlyphClass: 2
Flags: W
LayerCount: 2
Fore
SplineSet
373 1126.5 m 128,-1,1
 363 1105 363 1105 363 1077 c 128,-1,2
 363 1049 363 1049 376 1027.5 c 128,-1,3
 389 1006 389 1006 405 986 c 0,4,5
 447 935 447 935 447 901.5 c 128,-1,6
 447 868 447 868 438 846.5 c 128,-1,7
 429 825 429 825 413 810 c 0,8,9
 378 776 378 776 332.5 776 c 128,-1,10
 287 776 287 776 253.5 799 c 128,-1,11
 220 822 220 822 196 862 c 0,12,13
 146 947 146 947 146 1084 c 0,14,15
 146 1219 146 1219 242 1298 c 0,16,17
 339 1379 339 1379 511 1379 c 0,18,19
 678 1379 678 1379 774 1298 c 0,20,21
 866 1220 866 1220 866 1085 c 2,22,-1
 866 277 l 2,23,24
 866 140 866 140 772 60 c 0,25,26
 679 -19 679 -19 511 -19 c 256,27,28
 343 -19 343 -19 248 60 c 0,29,30
 156 137 156 137 156 274 c 2,31,-1
 156 600 l 2,32,33
 156 649 156 649 182 674 c 1,34,35
 225 718 225 718 262.5 718 c 128,-1,36
 300 718 300 718 321.5 709 c 128,-1,37
 343 700 343 700 359 684 c 0,38,39
 393 650 393 650 393 600 c 2,40,-1
 393 268 l 2,41,42
 393 217 393 217 427 189.5 c 128,-1,43
 461 162 461 162 511.5 162 c 128,-1,44
 562 162 562 162 595.5 189.5 c 128,-1,45
 629 217 629 217 629 268 c 2,46,-1
 629 1080 l 2,47,48
 629 1130 629 1130 594.5 1164.5 c 128,-1,49
 560 1199 560 1199 515.5 1199 c 128,-1,50
 471 1199 471 1199 445 1189.5 c 128,-1,51
 419 1180 419 1180 401 1164 c 128,-1,0
 383 1148 383 1148 373 1126.5 c 128,-1,1
597 1820 m 2,52,53
 645 1886 645 1886 708 1886 c 0,54,55
 750 1886 750 1886 775 1860 c 1,56,57
 817 1819 817 1819 817 1781 c 0,58,59
 817 1705 817 1705 754 1662 c 2,60,-1
 534 1508 l 2,61,62
 510 1492 510 1492 491 1492 c 0,63,64
 457 1492 457 1492 440 1510 c 128,-1,65
 423 1528 423 1528 423 1553.5 c 128,-1,66
 423 1579 423 1579 440 1602 c 2,67,-1
 597 1820 l 2,52,53
EndSplineSet
EndChar

StartChar: Ocircumflex
Encoding: 212 212 169
Width: 1022
GlyphClass: 2
Flags: W
LayerCount: 2
Fore
SplineSet
373 1126.5 m 128,-1,1
 363 1105 363 1105 363 1077 c 128,-1,2
 363 1049 363 1049 376 1027.5 c 128,-1,3
 389 1006 389 1006 405 986 c 0,4,5
 447 935 447 935 447 901.5 c 128,-1,6
 447 868 447 868 438 846.5 c 128,-1,7
 429 825 429 825 413 810 c 0,8,9
 378 776 378 776 332.5 776 c 128,-1,10
 287 776 287 776 253.5 799 c 128,-1,11
 220 822 220 822 196 862 c 0,12,13
 146 947 146 947 146 1084 c 0,14,15
 146 1219 146 1219 242 1298 c 0,16,17
 339 1379 339 1379 511 1379 c 0,18,19
 678 1379 678 1379 774 1298 c 0,20,21
 866 1220 866 1220 866 1085 c 2,22,-1
 866 277 l 2,23,24
 866 140 866 140 772 60 c 0,25,26
 679 -19 679 -19 511 -19 c 256,27,28
 343 -19 343 -19 248 60 c 0,29,30
 156 137 156 137 156 274 c 2,31,-1
 156 600 l 2,32,33
 156 649 156 649 182 674 c 1,34,35
 225 718 225 718 262.5 718 c 128,-1,36
 300 718 300 718 321.5 709 c 128,-1,37
 343 700 343 700 359 684 c 0,38,39
 393 650 393 650 393 600 c 2,40,-1
 393 268 l 2,41,42
 393 217 393 217 427 189.5 c 128,-1,43
 461 162 461 162 511.5 162 c 128,-1,44
 562 162 562 162 595.5 189.5 c 128,-1,45
 629 217 629 217 629 268 c 2,46,-1
 629 1080 l 2,47,48
 629 1130 629 1130 594.5 1164.5 c 128,-1,49
 560 1199 560 1199 515.5 1199 c 128,-1,50
 471 1199 471 1199 445 1189.5 c 128,-1,51
 419 1180 419 1180 401 1164 c 128,-1,0
 383 1148 383 1148 373 1126.5 c 128,-1,1
792 1599 m 2,52,53
 805 1575 805 1575 805 1553 c 128,-1,54
 805 1531 805 1531 788 1512 c 128,-1,55
 771 1493 771 1493 751 1493 c 0,56,57
 711 1493 711 1493 691 1513 c 2,58,-1
 560 1647 l 1,59,-1
 429 1513 l 2,60,61
 409 1493 409 1493 379 1493 c 128,-1,62
 349 1493 349 1493 332 1512 c 128,-1,63
 315 1531 315 1531 315 1553 c 128,-1,64
 315 1575 315 1575 328 1599 c 2,65,-1
 448 1812 l 2,66,67
 490 1888 490 1888 561 1888 c 0,68,69
 626 1888 626 1888 672 1812 c 1,70,-1
 792 1599 l 2,52,53
EndSplineSet
EndChar

